<svg xmlns="http://www.w3.org/2000/svg" viewBox="0 0 47.83 70"><defs><style>.cls-1{fill:#c7892c;}.cls-2{fill:#0c0000;}.cls-3{fill:#fff;}.cls-4{fill:#ebd0c8;}.cls-5{fill:#3c2415;}.cls-6{fill:#f6daac;}.cls-7{fill:#26130a;}.cls-8{fill:#fbb040;}.cls-9{fill:#e2b829;}.cls-10{fill:#ffd255;}.cls-11{fill:#472b1d;}</style></defs><g id="Layer_2" data-name="Layer 2"><g id="Layer_1-2" data-name="Layer 1"><path class="cls-1" d="M33.36,52.18s-.16,2.25.24,2.69a9.74,9.74,0,0,0,2,1.35c.33.16-.37.62-.49.55a18,18,0,0,0-2.16,1,7.16,7.16,0,0,1-1.1,1c-.45.26-1.26.63-1.26.63s.2-.9.28-1.63a4.87,4.87,0,0,0,0-1.22c0-.29,0-1-.24-1.23s-.37-1.67-.41-2,3.22-1.06,3.22-1.06Z"/><path class="cls-2" d="M39.05,13.47l1.44,1.89s2.49.75,2.9,1.35S48,30.2,42.09,37.54A23.82,23.82,0,0,1,39.68,41c-1.35,1.55-4.85,4.32-6,12.48l-.44.49-.54-.57-.9.57L31,53.28l-1.61.66.39-.66-.39-.89s-1.32-1.31-.75-2.61c0,0-.9.32-.74.08s.74-1.31.74-1.31l-.76-.73V46.35s-.11-.41-1.06-.65a2.89,2.89,0,0,0-2.39.9c-.28.32-.78.08-.78.08a53.54,53.54,0,0,1-8.06.49,2.58,2.58,0,0,1-1.39-1,1.28,1.28,0,0,1-.9-1.23l-.49-1.63S18.43,26.21,18.72,26s3.06-7.83,3.06-7.83l17.27-4.66Z"/><path class="cls-3" d="M39.44,14l.24,4.61-.63-1.22.32,2-1.47-.78,1.15,1.39-1.45-1,.3,1.5L37.11,20l-.28.77-.41-1.34-1,2L33.25,19v1.4l-.79-.89.23,1.26s-2.43-2.16-2.31-2.08,1.27,4.41,1.23,4.24-2.27-5-2.27-5l.55,3.18s-1.09-2-1.46-2.16a10,10,0,0,1-.9,5L25.77,21a4.15,4.15,0,0,1,0,1.06s-.9-1.79-1.35-1.92a3.43,3.43,0,0,0-1.11.16v-.65H21.17V18.62L21,17.8l.21-1.8,6.6-3.66L39.44,14Z"/><path class="cls-4" d="M34.56,4.7a15.27,15.27,0,0,1,5.51,5.72L38.4,9.16l.65,1.26A6.33,6.33,0,0,1,40.65,13l-.85-.71s1.6,2.92,1.43,4.45l-1.64-3a14.14,14.14,0,0,1,.21,2.54l-3.14-3.19s-2-4.74-2-4.85-.13-3.5-.13-3.5Z"/><path class="cls-3" d="M22.77,16.05l.12-.06-.12.06m-.14.08.09-.05-.09.05m-.07,0,0,0,0,0h0M37.05,15s.57.11.56.06a2.68,2.68,0,0,0-.32-.34l1.76.12a6.78,6.78,0,0,1-1.44-.34c-.17-.16.84.05.84.05s-.91-.57-1-.67.66.25.66.25l.44-.3a12.18,12.18,0,0,1-1.35-1.06c-.19-.24-1-3.56-1.9-4.44a10.1,10.1,0,0,1,2.43,2,6.93,6.93,0,0,0-2.5-3S37,8,37.16,8.15A5.67,5.67,0,0,0,35.27,6a5.45,5.45,0,0,1,2.8,1A5.11,5.11,0,0,0,37,6s1.29.27,1.39.15S36.11,4.93,35.3,4.61l1-.06-.37-.47.95.21a6.05,6.05,0,0,0-2.76-.72l2,0S31.19.25,27.35,0a9,9,0,0,0-5.87,2.14c-1.65,1.45-.93,2.33-.93,2.33l.62.54a3.52,3.52,0,0,0-.35,1.62l-.27-.13c-.05,0-2.4,1-2.4,1,.92,0,2.78.06,3.34.08,1.32.78,1.76,3.39,2.07,3.77a41.25,41.25,0,0,1-2.41,5.21l-.54.88a4.26,4.26,0,0,0,.79-.64l.21.79a2.1,2.1,0,0,1,.92-1.37h0a2.37,2.37,0,0,1-.38,1.38,5.53,5.53,0,0,0,.61-.37c0,.06,0,.55,0,.55a6.73,6.73,0,0,1,.59-1.06l.05-.05a6.66,6.66,0,0,1-1.3,2.45,4.38,4.38,0,0,0,2.17-2.17S25.73,18,25.88,18.2s0-1.54-.22-2,0,0,0,0,.6.57.77.42a5.63,5.63,0,0,0-.31-2.21,9,9,0,0,1,2.94,1.53l.95.66.6-1.79s.41.95.58,1.24.33-.29.36-.79a13.86,13.86,0,0,0,1.59,1.28,2.87,2.87,0,0,0-.32-1.44,6.42,6.42,0,0,0,1.59,2.41s-.08-.52-.22-1.33v-.06l.57.35-.34-1.3A8.32,8.32,0,0,0,36,16.45a1.37,1.37,0,0,0-.08-.75s2.32.62,2.15.2c-.05-.11-.8-.18-1-1"/><path class="cls-4" d="M22.77,16.05l.12-.06-.12.06m-.21.12h0l0,0,0,0m7-4.39a16.46,16.46,0,0,1,2.55,1.7,20.9,20.9,0,0,0-.65-5.58,8.13,8.13,0,0,1,1.26.68A11,11,0,0,0,31.53,4.7l1.63.13s.21.41,0-.13A4.46,4.46,0,0,0,32,3.4c-7.35-3.75-9.69-.49-9.69-.49.1-.17-.31-.3-.31-.3l-.06,0V2.31l-.43.27-.05,1.48L21,4.82l.21.19a3.52,3.52,0,0,0-.35,1.62l-.27-.13c-.05,0-2.4,1-2.4,1h.55c.15,0,2.58,0,2.79.07,1.87.56,2.57,3.73,2.57,3.73a21.8,21.8,0,0,1-2.66,5.49l.21.79a2.1,2.1,0,0,1,.92-1.37h0a2.37,2.37,0,0,1-.38,1.38,5.53,5.53,0,0,0,.61-.37c0,.06,0,.55,0,.55a6.73,6.73,0,0,1,.59-1.06l.05-.05a6.66,6.66,0,0,1-1.3,2.45,4.38,4.38,0,0,0,2.17-2.17S25.73,18,25.88,18.2s0-1.54-.22-2,0,0,0,0,.6.57.77.42a5.63,5.63,0,0,0-.31-2.21c-.07-.1.22,0,.69.23l0-.37a4.78,4.78,0,0,0-.1-1.29,9.8,9.8,0,0,1,2.61,2.16c0-.78.22-3.35.22-3.35"/><path class="cls-5" d="M22.66,3.41c1.54-.46,1.86-.89,2.77-.79.57.07.85,1.83-.36,2.05s-1.6-.65-1.46-1.2c0,0,0-.19-.32-.1a1.91,1.91,0,0,1-.63,0Z"/><path class="cls-6" d="M23.77,3.87c0,.48.59.69,1.15.67a.89.89,0,0,0,.84-1c0-.48-.16-.81-.72-.78s-1.29.6-1.27,1.08Z"/><path class="cls-5" d="M24.22,3.69a.5.5,0,0,0,.51.46.49.49,0,1,0-.05-1,.49.49,0,0,0-.46.51Z"/><path class="cls-4" d="M36.9,12.65a14.54,14.54,0,0,0-2-3.08,2.53,2.53,0,0,0-.68.33c-.13.14,2.08,2,2.43,2.66a5.81,5.81,0,0,0-1.34-.94,6.81,6.81,0,0,1,1.65,1.88,1.9,1.9,0,0,0-.09-.66c-.1-.18,0,0,.11,0a4.76,4.76,0,0,1,.49.82,1.8,1.8,0,0,0-.55-1Z"/><path class="cls-1" d="M22.63,5.36c-.26-.31-.83-.17-1.38.08a.48.48,0,0,1,0-.08s-.72-.86-1.36-.53a43.44,43.44,0,0,0-3.58,3.11,5.15,5.15,0,0,1,2.72-.48,44.13,44.13,0,0,1,7.36-1.31.41.41,0,0,0,.17-.37c0-.09-.5-.07-1.15,0-1,0-2.45.08-2.82-.38"/><path class="cls-7" d="M17.38,7.19a33.86,33.86,0,0,1,9-1.24l0-.07a35.58,35.58,0,0,0-9,1.31Z"/><path class="cls-8" d="M22.63,5.36s-.57-2.79-1.48-3A6.41,6.41,0,0,0,16,4.93c-1.26,2.12-.43,5,0,5.31s.37.22.31-.18c0-.12-.18-1.8.23-2.26s1.32-.53,2.7-1.61a5.11,5.11,0,0,1,3.35-.83"/><path class="cls-7" d="M20.08,3.8s.68.12.83.42.12.36.12.36a3.67,3.67,0,0,1-.76-.49c-.12-.17-.19-.29-.19-.29Z"/><path class="cls-9" d="M22.63,5.36h0"/><path class="cls-10" d="M16.36,10.42c-.05,0-.14-.06-.32-.18h0a4.39,4.39,0,0,1-.67-2.65A5.19,5.19,0,0,1,16,4.93a6.67,6.67,0,0,1,4.78-2.62,1.55,1.55,0,0,1,.33,0c.91.23,1.48,3,1.48,3h-.07c0-.13-.08-.23-.08-.23V4.87s-.66-2-1.19-2.29a.55.55,0,0,0-.24,0,7.41,7.41,0,0,0-3,1.26,6.82,6.82,0,0,1,1.41-.41A5.68,5.68,0,0,0,16.6,5.81a5.18,5.18,0,0,0-.22,4.6h0"/><path class="cls-3" d="M24.48,10.89a4.68,4.68,0,0,0-.13,2.1l.3-.58a1.55,1.55,0,0,0,0,1,1.85,1.85,0,0,0,.31-.7c0-.3.05.58.49,1.06a1.77,1.77,0,0,0,.14-1.21,6.22,6.22,0,0,0-.82-1.46c-.1-.07-.07.36-.07.36s-.25-.4-.22-.59Z"/><path class="cls-3" d="M20.55,7.33s5.56,2.28,6.26,3.59c0,0-1.68-2.09-1.31-1.79l.83.65a4.23,4.23,0,0,0-2.65-2c-1.74-.3-2.62-.39-3.13-.44Z"/><path class="cls-3" d="M14.93,55.32s-4.57,1.47-7.34,0a2.62,2.62,0,0,1-.82-1.38S6.93,56.55,0,56.79A39.18,39.18,0,0,1,4.08,49.7s-1.63,1.54-1.39.81a18.52,18.52,0,0,1,3.75-4.57c1.72-1.55,3.43-3.83,4.08-4S14,41,14.6,42A26.35,26.35,0,0,1,16,46l-1.06,9.29Z"/><path class="cls-4" d="M11.21,42C11,42,6.54,48.74,7.45,50.09A4.36,4.36,0,0,0,11,47.9L9.13,50.16s-1.83,2.77,1.78,3.63c1.79.43,4.89.29,6.12-1.61s.55-5.32.49-6.42-.6-4.06-1-4a7.36,7.36,0,0,0-5.34.26Z"/><path class="cls-1" d="M30.81,58.65a2.07,2.07,0,0,0-.28,1c.06.37.37,1.12,1.51.84s1.12-1.72,1.1-1.82a5.48,5.48,0,0,0-.65-.95c-.06,0-1.68.95-1.68.95Z"/><path class="cls-2" d="M42.25,16.71a4.65,4.65,0,0,1,5.14,2.37C49,22.29,45.84,37.54,42.9,39.66c0,0-2,.25-5.45,3.84l4.8-26.79Z"/><path class="cls-7" d="M23.33,41.47s2.09,9.38,1.06,14.91c0,.14-.05.28-.08.41L24,56.14l-.28,2.59a4.86,4.86,0,0,0-1.34-1.1A14.7,14.7,0,0,0,21,59.69c0,.24-.53-1.06-.53-1.06a21.42,21.42,0,0,1-1.06,2.16,8.27,8.27,0,0,1-.9-2.25l-.57.45-1.26-1.51.24,1.31-.53-.61v1l-.4-.57s-.74.73-.74.61-3.3-10.45.57-17.73a.93.93,0,0,0,.7-.34l0,.78,1.38-.78,1.1.69,2.17-.69.32.34.17-.34.16.69.69-.85s.68.05.78.5Z"/><path class="cls-7" d="M23.24,57.05a6.23,6.23,0,0,1,.49-.61l0-.06c.26-.71.47-1.44.66-2.18-.12-1-.49-2-.53-2.93A39.46,39.46,0,0,0,23,46.83a28.48,28.48,0,0,1-.26-3.06A10.21,10.21,0,0,0,22.64,42l-.13.1a1.13,1.13,0,0,1-1-.05c-.84-.52-1.07-.12-1.85.05a2.31,2.31,0,0,1-1.3-.08c-.39-.11-1.1.26-1.55.23s-.63-.34-.95-.31a.52.52,0,0,1-.28,0,16.27,16.27,0,0,0-.64,1.55c-2.42,7,.31,15.59.31,15.7s.74-.61.74-.61l.4.57v-1l.53.61-.24-1.31L17.94,59l.57-.45a8.27,8.27,0,0,0,.9,2.25,21.42,21.42,0,0,0,1.06-2.16s.53,1.3.53,1.06a14.7,14.7,0,0,1,1.38-2.06,3.88,3.88,0,0,1,.48.3,3.45,3.45,0,0,1,.38-.88Z"/><path class="cls-2" d="M22.35,57.67l0,0a4.86,4.86,0,0,1,1.34,1.1L24,56.14l.31.65c0-.13.05-.27.08-.41,1-5.53-1.06-14.91-1.06-14.91-.1-.45-.78-.5-.78-.5l-.69.85-.16-.69-.17.34-.32-.34L19,41.82l-1.1-.69-.69-.39-.73.39c-.21.33-.78-.78-.78-.78-.18.34-.27,1.82-.42,2.17s-.51,1.41-.56,1.57v0L16,42.56l.44.73.82-.73.29.73,2.16-.73s.68,7.38.65,6.57c0-.16.94-3.16.9-3.25s0-.57,0,.09.32,6.5,0,7.64l.69-.69a25.3,25.3,0,0,0-.37,3.67l.74-1.14v2.22Z"/><path class="cls-8" d="M23.33,57.28l1.06,2.81s.26-.12.59.25a1.11,1.11,0,0,0,.59.41h0c.16,0,2.94-1.31,3.79,0a3.93,3.93,0,0,1,.33,2.08c-.21.93-2.94-.13-3.43-.61,0,0,3.78,2.77,3,4.44,0,0,.16,1-1.26,1a1.64,1.64,0,0,1-1.66-1.24A5.45,5.45,0,0,1,25.49,65c-.17-.62-2.16-1.9-2.16-1.9s-1.06,1.14-1.39,1.63-.49.86-1.43.53-.73-.93-.53-1.06S21.49,63,21.49,63a2.16,2.16,0,0,1,.25-.94,4.64,4.64,0,0,0-.56-2.68c-.34-.5.31-2.42.6-2.54s1.55.49,1.55.49Z"/><path class="cls-1" d="M36.36,56.4a1.9,1.9,0,0,0,2.15,1A1,1,0,0,0,37.43,56a4.66,4.66,0,0,0-2,.15l.92.27Z"/><path class="cls-8" d="M34,56.77a7,7,0,0,1,1.92.88,7.38,7.38,0,0,1,1.75,2.44c.1.51.27.86,1,.86s.82-.16.8-1.16A2.53,2.53,0,0,0,38.33,58c-.24-.24-1.93-1.79-2.16-1.95a1.75,1.75,0,0,0-1.55-.47c-.75.21-.65,1.18-.65,1.18Z"/><path class="cls-8" d="M32.05,56.77c.07,0,1.21-.77,1.76-.08a2.71,2.71,0,0,1,.43,2c-.07.45-.13,1-.55,1.14s-.66.33-.94-.51a15,15,0,0,0-.92-1.67,7.9,7.9,0,0,1,.22-.92Z"/><path class="cls-2" d="M33.38,58.86s.38-.36.66-.13a1.47,1.47,0,0,1,.3,2.06.85.85,0,0,1-.7.23,1,1,0,0,0,.36-1c0-.69-.17-.68-.25-.71s-.48-.07-.37-.5Z"/><path class="cls-2" d="M20.88,64.91s-.73.57.18,2.73a2.49,2.49,0,0,1-.94-.68c-.31-.43-1-2,0-2.51s.76.46.76.46Z"/><path class="cls-2" d="M28.91,62.64a3.78,3.78,0,0,1,.62,2.53s.65-.26.81-1.59-.57-2-1-2.08-.63.72-.39,1.14Z"/><path class="cls-2" d="M28.14,67.41A3.75,3.75,0,0,1,28.42,70s.68-.18,1-1.48a1.74,1.74,0,0,0-.77-2.19c-.45-.16-.72.63-.53,1.08Z"/><path class="cls-2" d="M38.54,60.75s.05-.62.46-.57.35.74.14,1.27-.85,1.17-1.43.94a1.09,1.09,0,0,0,.67-.53,1.28,1.28,0,0,0,.16-1.11Z"/><path class="cls-2" d="M38.3,57.19s-.48-.41-.2-.71.8.13,1.11.61.47,1.37-.05,1.71a1.12,1.12,0,0,0,0-.86,1.27,1.27,0,0,0-.81-.75Z"/><path class="cls-4" d="M6.74,54.15a35.56,35.56,0,0,0,.85-3.48s-2.73,5-4.89,5.86c0,0,3.49-.32,4-2.38Z"/><path class="cls-4" d="M2.68,50.67A6.28,6.28,0,0,1,5,48.44s-.65.94-.91,1.26-1.07,1.07-1.4,1Z"/><path class="cls-7" d="M21.86,16.61A16.56,16.56,0,0,0,8.65,25.39a22.44,22.44,0,0,0-1.72,7.34s-2.11,3.34-1.79,3.75-.08,3.59.49,6a4.64,4.64,0,0,0-.49,3.26s.49.25.57,2.74a4.71,4.71,0,0,0,1.06-2.17s.7,2.93,2.88-2c0,0,.32,3.41,3.41-1.76,0,0,2.27-2.32,4.07-4.19,0,0,4.29-2.53,6.18-5.22,0,0,3.18-5.59,4-9.57s1-8.88-5.46-7Z"/><path class="cls-7" d="M28.67,30.73s1.26,1.7,1.42,1.43.25-3.75.25-3.75l.9,4.89s.9,0,1.3-1.92c0-.08,0-.16,0-.24.37-2.2.36,3.67.59,4.12s2.1-6.11,1.82-4.49c0,.24-.39,3.51,0,3.75s2.13-3.58,2.33-5.91a48.84,48.84,0,0,1,0,6,1.5,1.5,0,0,1,0,.24c-.28,1.51,1.47-1.59,1.72-2.73,0,0-.14,4.69-2.56,7.46a18.25,18.25,0,0,0,.52-2c0-.28-2.37,2.33-4.57,3.67,0,0,.07-.57.34-1.91,0,0-2.91,2.57-3.56,3.26,0,0,0-3.18.49-4a8.52,8.52,0,0,0-1.2,2.29,1.17,1.17,0,0,0,0,.36,28.5,28.5,0,0,1,0-3.63s-1.1.74-1.06,1.63a32.53,32.53,0,0,1,1.27-8.72"/><path class="cls-7" d="M30.36,47.66h.34L29.2,46.1l-.4-.62-.93.87v1.47l.76.73s-.57,1.06-.74,1.31.74-.08.74-.08c-.57,1.3.75,2.61.75,2.61l.39.89-.39.66L31,53.28l.18.14.45-.35V50.32l-.22-.47-1-2.19Z"/><path class="cls-11" d="M18,31.06a11.14,11.14,0,0,1-1.28,2.32c-.58.8-1.32,1.79-2.37,1.94h-.05a.7.7,0,0,1-.93-.44,3,3,0,0,1-.17-.91c-.92,1.66-2.17,3.34-3.23,2.92a.6.6,0,0,1-.69-.48,4.76,4.76,0,0,1,.11-1.85,2,2,0,0,1-.72.63.86.86,0,0,1-1.27-.68,2.4,2.4,0,0,1,.09-1.06,8.68,8.68,0,0,0-.85,1.84c-.28,1,.43.58.43.58C6.8,37.1,6,39,6.65,39.24S8.32,37.1,8.32,37.1a15.43,15.43,0,0,0-.66,4,.64.64,0,0,1,0,.2,2.44,2.44,0,0,1,0,.27l0,.09,0,.1,0,.07h0c.73.3,3.67-4.41,3.67-4.41a5.29,5.29,0,0,0-.18,2.6c1.52.61,5-5.08,5-5.08-.21,1.11.4,1.14.4,1.14,1.58-1.17,3.67-6.43,3.67-6.43C18.31,32.08,18,31.53,18,31.06Z"/><path class="cls-11" d="M21.86,16.61A16.56,16.56,0,0,0,8.65,25.39a22.44,22.44,0,0,0-1.72,7.34s-2.11,3.34-1.79,3.75-.08,3.59.49,6a4.64,4.64,0,0,0-.49,3.26s.49.25.57,2.74a4.71,4.71,0,0,0,1.06-2.17s.67,2.8,2.73-1.65V43.31S8.43,46.8,7.59,45.48c0,0-1.3,1-1.5-.21a4.12,4.12,0,0,1,0-2.67,19.79,19.79,0,0,0-.38-2.67,34.3,34.3,0,0,1,.12-3.65,18.88,18.88,0,0,1,1.37-3c.41-.43.22-14.13,14.23-16.15,0,0,4.49-1.58,5.38.43l.27-.1c-.77-1.2-2.33-1.71-5.22-.85Z"/><path class="cls-3" d="M24.47,3.51a.15.15,0,0,1-.15.15.15.15,0,0,1-.15-.15.15.15,0,0,1,.15-.15.14.14,0,0,1,.15.15Z"/></g></g></svg>