<svg xmlns="http://www.w3.org/2000/svg" xmlns:xlink="http://www.w3.org/1999/xlink" viewBox="0 0 66.28 106.41"><defs><style>.cls-1{fill:none;}.cls-2{clip-path:url(#clip-path);}.cls-3{fill:#1e1e1e;}.cls-10,.cls-11,.cls-12,.cls-13,.cls-14,.cls-15,.cls-16,.cls-17,.cls-18,.cls-19,.cls-20,.cls-21,.cls-22,.cls-3,.cls-4,.cls-5,.cls-6,.cls-7,.cls-8,.cls-9{fill-rule:evenodd;}.cls-4{fill:#2e2e2e;}.cls-5{fill:#f1d134;}.cls-6{fill:#e8ab35;}.cls-7{fill:#d18747;}.cls-8{fill:#95464f;}.cls-9{fill:#e9da8e;}.cls-10{fill:#dac83b;}.cls-11{fill:#dfb32c;}.cls-12{fill:#d9dcf1;}.cls-14{fill:#e9da91;}.cls-15{fill:#eab02d;}.cls-16{fill:#b8b8b8;}.cls-17{fill:#fff;}.cls-18{fill:#cd5f39;}.cls-19{fill:#4e5363;}.cls-20{fill:#da0142;}.cls-21{fill:#58401b;}.cls-22{fill:#67422b;}</style><clipPath id="clip-path" transform="translate(-1.32 -7.03)"><path class="cls-1" d="M63,58.83a31.48,31.48,0,0,1-21.9,30,31.66,31.66,0,0,1-6.57,1.35c-1,.09-7.61,24.64-8.63,24.64-7.3,0-14.26,1.36-19.6-2.8-1.85-1.44,2.31-31.43.83-33.24A31.52,31.52,0,0,1,23,28.49C25.71,27.73,31.56-1,34.3,0c70,27.3,12.82,30.41,18.42,35.52A31.41,31.41,0,0,1,63,58.83Z"/></clipPath></defs><g id="Layer_2" data-name="Layer 2"><g id="Layer_1-2" data-name="Layer 1"><g class="cls-2"><path class="cls-3" d="M47,34.23c-.17.28.34,1.72.37,2.09a38,38,0,0,1-.09,6.22A41.32,41.32,0,0,1,45,52.48,10.18,10.18,0,0,1,43.34,56c-.07.07,0-.39-.1-.39s-.49,1.28-.54,1.37a5.11,5.11,0,0,1-1.42,1.62A40,40,0,0,0,38.64,62a8.46,8.46,0,0,1-1.32,1c-.41.34-1,1.45-1.62,1.33-.39-.08-.18-1.61-.15-1.86A32.18,32.18,0,0,1,36.83,57a94.15,94.15,0,0,1,3.57-9.4c1.64-3.73,2.66-7.41,6.17-9.74L47,34.23Z" transform="translate(-1.32 -7.03)"/><path class="cls-4" d="M32.74,30.38S27.92,31.81,25.59,35s-8.09,14.6-8.83,17.08-1.43,10.93-1.59,14-.49,11.93,1.23,11.68,8.26-2.07,9.55-1S28,78,30.6,76.7s3.66-1,5-3.72S38,62.23,39.86,59.35s6.67-12.65,7-18.55.75-8.92-3.07-10.26-11.09-.16-11.09-.16Z" transform="translate(-1.32 -7.03)"/><path class="cls-5" d="M41.66,8a5.23,5.23,0,0,1,2.62-1c1.46-.09,5.32.08,4.95,1s-1.65,1.29-1.76,1.74.38,1-.79,1.06a31.56,31.56,0,0,1-5.33-1.05L41.66,8Z" transform="translate(-1.32 -7.03)"/><path class="cls-6" d="M43.92,8.63s.35-.15-.38-.5-4.34-1.55-7-.07-7.6,5.16-7.13,6.49a2.71,2.71,0,0,0,3.78,1.36A47.53,47.53,0,0,0,38,13.22c.78-.49,5.55-3.13,5.55-3.13l.36-1.46Z" transform="translate(-1.32 -7.03)"/><path class="cls-7" d="M46.75,10.81S44.41,9.92,44,8.76s-.63,1.09-1.89,1.83S37.89,13,38,13.08s2.47-1.11,4.24-1.42,4.24-.81,4.51-.85Z" transform="translate(-1.32 -7.03)"/><path class="cls-8" d="M32,15.28a1.86,1.86,0,0,1-.92-.86,1,1,0,0,1,.37-1.09c.46-.47.94-1.05,1.46-1.61a10.58,10.58,0,0,1,1-1,5.67,5.67,0,0,1,.76-.52A3.2,3.2,0,0,1,36,9.8a14,14,0,0,0,2.13-.37c1.32-.34,2.49-.79,3.06-1-.58.15-1.77.51-3.11.76a13.38,13.38,0,0,1-2.1.25,3.33,3.33,0,0,0-1.46.41,5,5,0,0,0-.82.56,9.39,9.39,0,0,0-1,1.06c-.49.58-.93,1.2-1.35,1.7A1.15,1.15,0,0,0,31,14.47a1.92,1.92,0,0,0,1,.81Z" transform="translate(-1.32 -7.03)"/><path class="cls-9" d="M60.71,26.05s1,2.41.17,1.57-5.48-5.79-10.06-6.25a27.63,27.63,0,0,0-8.2.25c-1.49.19-6.32-2.26-3-4s8.74-2.74,13,0,7.53,5.78,8.12,8.44Z" transform="translate(-1.32 -7.03)"/><path class="cls-10" d="M49.49,21.25a2,2,0,0,1-.48-2c.71-2.3,4.47-.7,4.47-.7l.44-.05c3.6,2.49,6.26,5.18,6.79,7.56,0,0,1,2.41.17,1.57s-5.48-5.79-10.06-6.25l-1.33-.12Z" transform="translate(-1.32 -7.03)"/><path class="cls-11" d="M38.27,18.56s3.49-2,6.17-2.12c4.13-.21,12.58,3.13,15.75,9.06s.46-3.25-1-5.44-5.61-8.35-11.84-9.34-15.69,2.85-9.06,7.84Z" transform="translate(-1.32 -7.03)"/><path class="cls-4" d="M31.42,16.28c-.2.1-.46.69-.26.94s.26.11.31.24c.11.29-.24.7-.13,1s.37.12.43.29c.15.35-.11.8.1,1.15.12.2.34,0,.46.13s-.06.83.28,1,.42-.12.55-.06.05.19.07.24a2,2,0,0,0,.19.64c.14.2.44.06.56.25a4.19,4.19,0,0,1,.2.49,1.61,1.61,0,0,0,.55.52c.24.19.52.14.79.19.12,0,.19.28.25.36a1.15,1.15,0,0,0,.54.41c.27.09.28-.28.47-.24s.25.28.34.36a1,1,0,0,0,.47.19c.17.05.21-.22.4-.21s.4.36.65.4.6-.25.9-.34c.14-.05.48.16.66.16s.27-.27.48-.34.31.22.5.27.32-.13.48-.1.21.12.43,0,.17-.63.28-.84.28,0,.42-.1.18-.27.3-.36.33,0,.49-.13.2-.41.37-.55.18,0,.27,0,.27-.36.44-.49.68-.19.78-.48-.41-.19-.49-.2-.35-.14-.55-.13a8.52,8.52,0,0,1-1,0,3.26,3.26,0,0,1-.59-.11c-.18-.14.18-.4-.16-.46a6.28,6.28,0,0,1-1.23-.17,6.69,6.69,0,0,1-.9-.51c-.17-.1-.42-.1-.57-.24s0-.52-.16-.79-.66-.16-.84-.34.08-.49-.06-.69-.21-.07-.29-.11c-.33-.16-.72-.16-1.05-.32s0-.58-.14-.79a2.9,2.9,0,0,1-.44-.69A2,2,0,0,1,37.43,14c.12-.18.24-.61,0-.79-.36-.35-1.23,0-1.6.14a8.43,8.43,0,0,0-1.47.81,3,3,0,0,1-.76.48c-.59.22-1.5,0-1.95.48a2,2,0,0,0-.27.63v.56Z" transform="translate(-1.32 -7.03)"/><path class="cls-8" d="M35.6,15.21a1.61,1.61,0,1,1-1.71,1.6,1.65,1.65,0,0,1,1.71-1.6Z" transform="translate(-1.32 -7.03)"/><path class="cls-5" d="M31.2,16.39c-.05-.1-.53.39-.57.43a6.79,6.79,0,0,0-1.23,1.85,19.84,19.84,0,0,0-.8,2.19,8.43,8.43,0,0,0-.05,2.7,7.4,7.4,0,0,0,.15,1.55c.36,1.37.76,3.14,1.79,4.19.12.12.17-.17.29,0,.27.31.66,1.06,1.1,1.17.18,0,.18-.34.33-.35s.15.15.19.19a.82.82,0,0,0,.52.28c.14,0,.23-.12.35-.15a1,1,0,0,1,.62.19c.79.63,1.24,1.64,2,2.32.23.22.23-.28.39-.16.49.38.7,1.09,1.16,1.52.23.22.4-.08.58.07.44.39.78,1.29,1.33,1.52.14.06.2-.29.31-.26.56.14.85,1.12,1.41,1.26.36.09.36-.45.65-.38s.52.57.88.71a.58.58,0,0,0,.5,0s.1-.21.16-.2c.29.08.5.58.82.6s.22-.25.21-.41c0,0,0-.35,0-.3s.35.52.56.29c.35-.41.1-1,.11-1.5a14.25,14.25,0,0,0-.51-3.19c0-.14,0-.38,0-.56a13.43,13.43,0,0,0-.43-1.46c-.08-.47.26-.52.25-1s-.17-.72-.18-1.1a1.46,1.46,0,0,1,0-.51c.05-.14.2,0,.19-.19A11.17,11.17,0,0,0,44,26.27c0-.23.22-.07.26-.26.09-.34-.38-1-.51-1.26s0-.36-.06-.58a2.87,2.87,0,0,0-.93-1.31,5.3,5.3,0,0,0-2.55-.7c-.23,0-.43-.14-.65-.2s-.52-.05-.76-.12a11.26,11.26,0,0,1-3.87-1.6c-1.36-1-1.8-2.71-3.18-3.6" transform="translate(-1.32 -7.03)"/><path class="cls-12" d="M17.19,51.28c-.2-.05-.54,1-.61,1.14a21.16,21.16,0,0,0-.78,3.42c-.08.31-.23,1,.12,1.15.16.08.4-.21.45-.33a16,16,0,0,1,.78-1.48c.13-.23.25-.46.37-.7a4.15,4.15,0,0,0,.17-.41s.1.67.29.57c.55-.27.79-1.49,1.19-1.89.06-.06.12.29.13.33,0,.21.3.47.53.41.44-.11.91-1.11,1.16-1.48,0,0,.31-.77.37-.74s.19.75.37.57a3.69,3.69,0,0,0,.49-1.11c.15-.35.34-.68.5-1,.23-.52,1.2-1.52.65-2.18-1.54-1.89-4,.54-5,1.77a5.74,5.74,0,0,0-.58,1" transform="translate(-1.32 -7.03)"/><path class="cls-5" d="M22.21,47.68c-.13,0-.35.6-.4.7a9.68,9.68,0,0,0-.54,2.1c0,.15-.2.55-.12.7s.34-.31.37-.24-.14.48-.16.57c-.12.49-.28,1.78.12,2.19.23.23.47-.91.58-.91s-.06.3-.09.45,0,1,.33.74c.85-.56,1-2.2,1.24-3.08,0-.13.09-.25.12-.38.13-.52-.28-.19-.45-.37a7,7,0,0,1,.45-1.48c0-.05.08.25.21.29s.39-.15.45-.21c.28-.27.18-.68.33-1,.05-.1.31.31.45.12a2.35,2.35,0,0,0,.29-1.07c.06-.49-.12-2.16-1-1.9a3.86,3.86,0,0,0-2.43,2l.28.78Z" transform="translate(-1.32 -7.03)"/><path class="cls-13" d="M45.39,40.77h0s0,0,0,0Zm-.07,3.41h0s0,0,0,0,0,0,0,0Zm-.08-7.31h0a5.73,5.73,0,0,0-.05.82c0,.39.07.77.1,1.15s0,.77,0,1.16c0,.06,0,.26,0,.45h0s0,0,0-.06a.19.19,0,0,0-.18-.13.16.16,0,0,0-.13.1.62.62,0,0,0,0,.18c0,.34.14,1.17.15,1.25.06.45.14.91.17,1.37a4.42,4.42,0,0,1,0,.89v0a.19.19,0,0,0-.13,0,.21.21,0,0,0-.15.16c0,.27-.08.55-.11.83-.06.63-.1,1.29-.19,1.92a6.85,6.85,0,0,1-.23,1.13c-.22.72-.48,1.5-.76,2.28s-.55,1.53-.82,2.26c.38-.85.77-1.76,1.14-2.66.25-.61.48-1.22.69-1.8a8.2,8.2,0,0,0,.3-1.16c.11-.63.17-1.29.25-1.92,0-.2,0-.4.08-.6a.26.26,0,0,0,.16,0,.45.45,0,0,0,.11-.15,1.2,1.2,0,0,0,.05-.23,4.49,4.49,0,0,0,0-1c0-.47-.14-.93-.21-1.39,0,0-.07-.41-.13-.74a.18.18,0,0,0,.14,0,.33.33,0,0,0,.1-.26,6.69,6.69,0,0,0-.08-.73c0-.39-.07-.77-.11-1.16s-.11-.76-.18-1.15a4.38,4.38,0,0,1,0-.81h0l0,.08c0-.06,0-.08,0-.09ZM33.56,39.3h0a.06.06,0,0,0,0,0,2.27,2.27,0,0,0-.06-.59.14.14,0,0,0-.11-.09.16.16,0,0,0-.13.05,2.59,2.59,0,0,0-.55.9c-.2.5-.33,1-.46,1.45a14.24,14.24,0,0,1-.54,1.36c-.27.59-.58,1.17-.87,1.72a1.25,1.25,0,0,1,0-.15.26.26,0,0,0-.15-.21.2.2,0,0,0-.15,0,.84.84,0,0,0-.29.32c-.14.24-.26.57-.33.71-.16.32-.3.66-.43,1-.29.78-.52,1.59-.83,2.35-.06.15-.21.6-.38,1a2.58,2.58,0,0,1-.19.34l-.07.09,0-.08a1.76,1.76,0,0,1-.07-.22.54.54,0,0,0-.07-.12.14.14,0,0,0-.1-.05.17.17,0,0,0-.17.05,1.24,1.24,0,0,0-.25.41c-.12.3-.21.67-.31.9s-.35.71-.56,1.07a6.91,6.91,0,0,1-.69,1l-.05.06v-.07a.15.15,0,0,0-.09-.16.16.16,0,0,0-.19.05,1.16,1.16,0,0,0-.13.4v.09h0a7.06,7.06,0,0,1-.43.59,10.64,10.64,0,0,1-.89,1.06,9.89,9.89,0,0,1-.87.85h0a.09.09,0,0,0-.11,0l0,0a.52.52,0,0,0-.07.15.25.25,0,0,0,0,.09,2.4,2.4,0,0,1-.27.36,7.56,7.56,0,0,1-.77.73c-.23.21-.87.44-1.24.68a.76.76,0,0,0-.27.27,0,0,0,0,0,0,0l0,0h.08l.18-.05h0l0,.05A10.39,10.39,0,0,0,19.38,59a3,3,0,0,0-.52,1.08A3,3,0,0,1,19.4,59a11.94,11.94,0,0,1,1.24-1.31.24.24,0,0,0,.07-.09c0-.05,0-.08,0-.09a.57.57,0,0,0-.24,0,.79.79,0,0,1,.19-.15c.38-.24,1-.46,1.28-.66a8.09,8.09,0,0,0,.91-.86,1.41,1.41,0,0,0,.22-.32h0a9.12,9.12,0,0,0,1-1c.34-.35.66-.71.94-1.06.1-.13.25-.31.39-.51h0a.23.23,0,0,0,.17,0,1.9,1.9,0,0,0,.35-.39,6.87,6.87,0,0,0,.74-1,9.84,9.84,0,0,0,.59-1.09c.11-.23.2-.61.33-.91h0l0,0c.09.2.24.29.42.23a1,1,0,0,0,.44-.48c.21-.39.4-1,.48-1.14.31-.77.54-1.58.83-2.36a10.44,10.44,0,0,1,.41-1c.06-.12.15-.38.26-.61h0l0,.15a.35.35,0,0,0,.13.21c.07.05.24.08.37-.17.31-.65.66-1.33,1-2a13.38,13.38,0,0,0,.52-1.41c.12-.4.24-1,.42-1.45a3,3,0,0,1,.39-.73c0,.18,0,.43,0,.54s.13.16.19.13a.89.89,0,0,0,.32-.44A6.22,6.22,0,0,0,34.24,38c0-.22.1-.43.16-.64.26-.84.61-1.66.81-2.52.08-.32.1-.66.16-1a1.69,1.69,0,0,1,.05-.24c0-.14,0-.45,0-.53s0,0,0,0,0,0,0,0,0,.39-.06.52a2.17,2.17,0,0,0-.07.24c-.07.32-.1.66-.18,1-.23.86-.61,1.66-.89,2.5-.07.21-.13.42-.19.64a6.25,6.25,0,0,1-.3.92,1.54,1.54,0,0,1-.22.41Z" transform="translate(-1.32 -7.03)"/><path class="cls-14" d="M22.05,58.06c-1.23.24-1.7,1.22-2.45,2.22a15,15,0,0,0-1.81,4.22,8.37,8.37,0,0,0-.4,1.26c-.06.31.14.38.08.63s-.45.72-.28,1.06.56-.11.75.08.47.75.79,1c.54.4,1.82,0,2.41-.16.43-.09,1.08-.83,1.57-.67.11,0,.31.88.36,1s.43.24.51.4a9,9,0,0,0,1.15,2,3.82,3.82,0,0,0,.51.55c.26.18,1.11-.29,1.26-.08.27.4,0,1.25.59,1.54.2.1.65-.34.83-.43.84-.42,1.5-1.63,2.41-1.93.34-.12.65,0,1,0s.54-.59.91-.44.69.6,1,.44.27-.54.36-.71a4.25,4.25,0,0,1,.79-1c.06-.06,0-.38-.08-.43-.16-.33-.61-1.1-.47-1.5.2-.6.91-.92,1.14-1.5A44.26,44.26,0,0,1,36.76,61a3.85,3.85,0,0,1,2.39-1.68c.42-.13.85.13,1-.59s-1.36-.59-1.7-.59c-.94,0-1.17.36-2,.67a13.2,13.2,0,0,1-4,.78c-1.75.07-2.56-1-4-1.69a5.3,5.3,0,0,0-3.74-.55c-.47.09-1.22.07-1.58.43l-1.14.27Z" transform="translate(-1.32 -7.03)"/><path class="cls-12" d="M13.92,99c-.47.44-.57,2.55-.62,3.16-.21,2.52-.83,5-.83,7.52,0,.57.23,2.13.83,2.43.38.19,1.06-1.13,1.42-.77s.61,2.31,1.31,2.08c.53-.18,1.46-2,2.07-1.78.46.15.24,1.48.77,1.66.79.26,1.39-1.27,2-1.48.31-.11.59.89,1.06,1,.95.24,1.29-1.11,2-1.48.29-.15,1,1,1.48.65s.28-1.4.65-1.77c0,0,.53.48.89,0,.72-1,.5-2.6.59-3.74.21-2.42.37-5.52-1.3-7.52-1.21-1.45-4.32-2-6.1-2.2a11.56,11.56,0,0,0-5.69.72c-.47.23-1.86.92-1.19,1.6l.62-.08Z" transform="translate(-1.32 -7.03)"/><path class="cls-4" d="M15.39,88.19c-.19.72-.74,1.52-1,2.29-.94,2.58-2.73,8.06-1.42,10.67.25.5,1.21-1,1.36-.83.42.42.92,2.24,2,1.72.56-.29,1.34-1.87,2.13-1.6.53.18.21,1.37,1.07,1.54,1.18.24,1.77-1.17,2.72-1.48.47-.16.72.75,1.13.89s.55-.34.83-.48.69,1,1.18,1,.42-1,.83-1.18c.1-.06.05.08.06.11.07.38.41.59.59.77s.27-.12.3-.17c.29-.49,1.06-1.26,1.18-1.78.32-1.27-.33-3.07-.47-4.33-.2-1.85.45-3.94-1.18-5-1-.69-2.78-.51-4-.83-.76-.21-1.33-.89-2.08-1-1.62-.27-4.53-.65-5.45,1.18l.25-1.4Z" transform="translate(-1.32 -7.03)"/><path class="cls-12" d="M18.08,75.75c.05.08-.45.76-.51.87A9.59,9.59,0,0,0,16.5,79.4c-.79,3.55-3.13,8.51-2.61,12.15.25,1.71,1.34-.15,1.9-.71.05,0,.21-.27.3-.18.5.5-.55,2.23.59,2.61.9.3,1.34-1.66,2-1.66.09,0,.08.56.11.65a1.39,1.39,0,0,0,.83.89c1.24.31,1.28-1.08,2.14-1.36s1.21,1.23,1.77,1.42.88-1.42,1.43-1.6c.16-.06.94.73,1.24.83s.42-.78.59-1,.57.57.89.36c.91-.61.83-3,.83-3.91,0-3.08.2-6.25-.06-9.31-.1-1.22.3-2.73-.65-3.67-1.37-1.37-5.34-1.32-7-.71-.33.11-2.19.56-2.19.94l-.5.56Z" transform="translate(-1.32 -7.03)"/><path class="cls-12" d="M25.74,60.76c-.41-.15-.33-.93-1-1-.38-.06-.5.35-.83.4s-.3-.46-.6-.31-.73.79-1.17.68c-.63-.15-.27-1.77-1.15-1.6s-1.72,1.26-2.23,2a10.71,10.71,0,0,0-1.74,5c-.05.43.07.84,0,1.26s-.21.86-.25,1.29.23.62.17,1a10.53,10.53,0,0,0-.4,1.51,5.55,5.55,0,0,1-.37,1.69c-.1.2.27.11.34.17s0,.41,0,.52a16.67,16.67,0,0,1-.49,2,9.7,9.7,0,0,1-.23,1.63c0,.13-.08.51.06.57s.64-.35.89-.22.5,0,.8.08c.7.12,1.21.3,1.74-.23.06-.06.18.19.32.12.33-.17.58-.59,1-.69.64-.16,1.14.4,1.74.49.45.06.77-.25,1.18-.32.25,0,.35.27.57.32s.68-.26.94-.43c.07,0,.29-.23.38-.15s.06.65.34.83.38-.09.57-.14c.4-.1.36.2.6.32s.49-.14.66,0c.57.38.16,1.32.66,1.66s.58-.49.94-.38.05.71.46.58c.22-.08.36-.6.46-.78A7.22,7.22,0,0,1,31,77.17c.14-.15.37-.42.58-.46s.44.15.65,0c.49-.28.51-1,.86-1.32,0,0,.27.11.37,0a2.09,2.09,0,0,0,.55-.8c.08-.16.39-.21.48-.4s-.07-.74-.11-1a.71.71,0,0,1,0-.29s.22.12.14,0-.69-.65-.48-.86.05-.7.08-.88.23-.52.23-.37.21.41.26.54c.16.45.48,1.73.91,2,.15.07.35-.47.58-.32s.3.53.4.49.23-.36.43-.46.18.28.34.23c.45-.15.48-1,.8-1.35s.57.09.77-.11c.42-.42.35-1.19.6-1.69.14-.27.53,0,.69-.2s.06-1.11,0-1.52c0-.67.35-.87.43-1.48s-.45-1.35-.32-2a16.28,16.28,0,0,0,.23-3.35,3.68,3.68,0,0,0-.34-2c-.44-.66-1.77-.12-2,0,0,0-1.09,1.11-1.15,1.17-.38.38-1.21,3.19-1.62,3.39-.24.13-.28.56-.51.72-1.16.77-2.27,1.67-3.49,2.4a13,13,0,0,1-3.49,1c-1.14.29-.53-.84-1-1.34-.28-.28-.76-.08-1.06-.49s0-1.28.17-1.71c0-.11.17-.37.12-.49s-.39.08-.4,0c-.14-.42.3-1.09.4-1.49.05-.21.16-.62,0-.77s-.17,0-.2,0,.07-.46.08-.54a.82.82,0,0,0-.25-.86l.08.15Z" transform="translate(-1.32 -7.03)"/><path class="cls-4" d="M32.1,29.9c-.49.08-1.36,1.12-1.72,1.43-.9.77-1.8,1.47-2.64,2.31a41.69,41.69,0,0,0-8.53,12.68c-.61,1.38-1.23,2.94-2,4.25-.1.17-.58,1.39-.42,1.56s.58-.21.75-.41c.51-.62.85-1.77,1.6-2.14.14-.07-.08.3-.12.45-.08.31.14.4.41.33s.42-.4.54-.58c.32-.48.88-.81,1.23-1.31.18-.25.29-.54.46-.79s.2-.51.2-.37-.12.5,0,.66.69,0,.87-.08a8,8,0,0,0,1.81-2c.11-.17.32-.32.41-.49s0,.7.33.45a5.34,5.34,0,0,0,1.23-1.28,19.92,19.92,0,0,0,1.16-2.88c0-.06,0,.29.16.33a.5.5,0,0,0,.5-.25,12.51,12.51,0,0,0,1-2.88c.33-.86.8-1.62,1.07-2.47A17.92,17.92,0,0,1,31,34.25c.15-.31.25-.16.5-.32a2.24,2.24,0,0,0,.62-1c.13-.41.14-.87.24-1.28s.91-1,.79-1.39-.8-.69-1-.33Z" transform="translate(-1.32 -7.03)"/><path class="cls-15" d="M22,52.33c0-.13,0-.26-.06-.37a3.05,3.05,0,0,1,0-.35c0-.24,0-.51-.06-.8a11.48,11.48,0,0,1-.07-1.17,3.09,3.09,0,0,1,.11-.83,3.63,3.63,0,0,0-.25,1.1,8.38,8.38,0,0,0,0,.86c0,.3,0,.58,0,.84s.08,1,.14,1.27a1,1,0,0,0,.05.16.21.21,0,0,0,.35,0,2.31,2.31,0,0,0,.25-.58,7.21,7.21,0,0,0,.14-.81,3.4,3.4,0,0,1,.1-.5,14.14,14.14,0,0,1,.44-1.35,13.8,13.8,0,0,1,.6-1.29,10.83,10.83,0,0,0-.74,1.23,11.08,11.08,0,0,0-.59,1.32c-.13.36-.18.82-.3,1.23Z" transform="translate(-1.32 -7.03)"/><path class="cls-13" d="M29.69,35.14Zm0,0h0s0,0,0,0a.92.92,0,0,1-.05-.26,5.31,5.31,0,0,1,0-1.15,1.68,1.68,0,0,1,.07-.4.33.33,0,0,1,.14-.22.34.34,0,0,0-.19.2,2.52,2.52,0,0,0-.15.39c-.05.18-.12.44-.17.72a2.57,2.57,0,0,0,0,.77.4.4,0,0,0,.3.36.5.5,0,0,0,.32-.09,2.09,2.09,0,0,0,.38-.37l.23-.33a3.21,3.21,0,0,0,.17-.36,2.72,2.72,0,0,0,.11-.25l.23-.59a9.47,9.47,0,0,1,.37-.93,4.85,4.85,0,0,1,.29-.61,7.91,7.91,0,0,0-.48.7c-.15.24-.28.48-.42.74l-.41.78a3.34,3.34,0,0,1-.18.32l-.22.28a2.09,2.09,0,0,1-.26.29l-.08.05Zm6.37,1.41h0s0-.07,0-.1a1.74,1.74,0,0,0,0-.18,1.94,1.94,0,0,0,0-.4c0-.19-.08-.38-.1-.56a.88.88,0,0,1,0-.23,1,1,0,0,0-.13.34c0,.14-.05.28-.07.42a3.63,3.63,0,0,1,0,.39s0,.13,0,.26a2.29,2.29,0,0,0,0,.41.28.28,0,0,0,.08.15.15.15,0,0,0,.14,0l.06,0a.92.92,0,0,0,.19-.28,2.84,2.84,0,0,1,.23-.62,2.16,2.16,0,0,0-.34.39Zm10.47,1.29h0l0,0s0,0,0,0Zm0,0h0a1,1,0,0,1-.16-.18,3,3,0,0,1-.29-.45,5.89,5.89,0,0,1-.51-1.38,8.24,8.24,0,0,1-.22-1.49,8.4,8.4,0,0,0,.07,1.51,6.89,6.89,0,0,0,.4,1.48,2.49,2.49,0,0,0,.51.76.33.33,0,0,0,.39.05.5.5,0,0,0,.19-.41,4.73,4.73,0,0,0,0-.73c0-.18,0-.36,0-.55s-.08-.54-.13-.81-.14-.67-.22-1-.17-.66-.26-1-.13-.57-.2-.85l-.12-.37a2,2,0,0,0-.15-.36s-.06-.07-.07,0,0,0,.06,0,.09.32.11.38,0,.25.07.37c0,.29.07.58.11.87s.11.67.16,1,.11.67.15,1,.07.53.1.8,0,.35,0,.53.07.36.08.59a.91.91,0,0,1,0,.17.06.06,0,0,1,0,0Zm-9.08-1.77h0c-.16,0-.35.28-.51.63a2.55,2.55,0,0,0-.11.33,2.52,2.52,0,0,0-.1.46,1.82,1.82,0,0,0,0,.33.82.82,0,0,0,.08.3.38.38,0,0,0,.34.24.45.45,0,0,0,.3-.1,1.62,1.62,0,0,0,.38-.42l.15-.25.2-.36-.34.34-.15.15a1.32,1.32,0,0,1-.42.29.18.18,0,0,1-.09,0,0,0,0,0,1,0,0,.58.58,0,0,1-.05-.25,5,5,0,0,1,.05-1c0-.34.14-.63.28-.69Zm-2.56,3.27h0l0,0h0s0,0,0,0Zm-2.52,0h0l0,0a.56.56,0,0,1-.12-.2,3.12,3.12,0,0,1-.17-.52,13.9,13.9,0,0,1-.56-2.15,1.91,1.91,0,0,1,.1-.94,2.22,2.22,0,0,0-.18,1.26,18.84,18.84,0,0,0,.34,1.89,2.89,2.89,0,0,0,.27.82c.14.22.32.3.51.2a.84.84,0,0,0,.38-.57,3.46,3.46,0,0,0,.12-.67c0-.27,0-.52,0-.65,0-.41,0-.82.06-1.23,0-.61.06-1.22.11-1.84a20,20,0,0,1,.24-2,20.52,20.52,0,0,0-.42,2c-.1.61-.17,1.22-.24,1.84-.05.41-.08.82-.12,1.23a10.39,10.39,0,0,1-.11,1.07,1.72,1.72,0,0,1-.11.38c0,.06,0,.11-.1.13Zm7.44-1.72h0c0-.07-.08,0-.16.12a3.35,3.35,0,0,0-.2.37.36.36,0,0,0,0,.11c0,.08,0,.18-.06.31s0,.13,0,.2a2,2,0,0,0,0,.35,1.4,1.4,0,0,0,.09.29.76.76,0,0,0,.19.28.26.26,0,0,0,.4-.06A3.06,3.06,0,0,0,40.3,39s-.16.2-.28.34a.41.41,0,0,1-.18.13s0,0,0,0a.3.3,0,0,1,0-.1,1.12,1.12,0,0,1,0-.21c0-.06,0-.14,0-.21s0-.09,0-.14a2.48,2.48,0,0,1,0-.27c0-.11,0-.2,0-.27a3.53,3.53,0,0,1,.08-.55c0-.07,0-.12.06-.08Zm-12,2.19h0v0s0,0,0,0Zm-3.8,0ZM42.2,38.69h0s0,.06-.06.17a.2.2,0,0,0,0,.1,2.59,2.59,0,0,0,0,.41,1,1,0,0,0,.09.43.48.48,0,0,0,.37.32.51.51,0,0,0,.3,0,.64.64,0,0,0,.31-.26,1.55,1.55,0,0,0,.21-.49c.07-.28.09-.56.14-.73-.08.13-.18.34-.3.55s-.14.24-.21.34a.71.71,0,0,1-.2.19.26.26,0,0,1-.19,0,.18.18,0,0,1-.12-.09.35.35,0,0,1-.06-.09,2.86,2.86,0,0,1-.22-.61c0-.08,0-.22,0-.26s0,0,0,0Zm-14.33.88h0v0a1.66,1.66,0,0,1,0-.24c0-.07,0-.13,0-.27s0-.53,0-.8,0-.8,0-1.2,0-.9.06-1.34a4.39,4.39,0,0,1,.05-.69.5.5,0,0,1,.13-.26.56.56,0,0,0-.17.25,3.76,3.76,0,0,0-.12.68,12,12,0,0,0-.2,1.34c0,.41-.07.81-.08,1.22s0,.54,0,.8v.28a2.32,2.32,0,0,0,0,.29,1.41,1.41,0,0,0,.1.39.56.56,0,0,0,.09.14.29.29,0,0,0,.21.06.37.37,0,0,0,.14-.07.7.7,0,0,0,.13-.22,4.77,4.77,0,0,0,.23-.9l.09-.51c0-.2.07-.33.1-.44s.1-.35.19-.68l.61-2.13L28.8,36.7c-.09.2-.16.41-.24.62s-.19.47-.25.66l-.14.45-.12.51a6.05,6.05,0,0,1-.18.63Zm6.94-.28h0c0,.18-.08.37-.11.57s0,.26-.05.39a2.43,2.43,0,0,0,0,.27,1.14,1.14,0,0,0,.09.42.37.37,0,0,0,.26.26.47.47,0,0,0,.16,0,.72.72,0,0,0,.22-.17,2.65,2.65,0,0,0,.3-.45,3,3,0,0,1-.38.29.42.42,0,0,1-.23.09s0,0,0,0a.07.07,0,0,1,0,0,.65.65,0,0,1,0-.21v-.25a1.7,1.7,0,0,0,0-.22c0-.11,0-.22,0-.33s0-.4-.08-.57,0-.06,0-.07-.09,0-.1,0v0Zm3,2.41Zm2.59.63h0s0,0,0,0Zm-2.51.61h0l0,0s0,0,0,0,0,0,0,0Zm5.66.13h0l0,0s0,0,0,0,0,0,0,0ZM38,42.8h0a1.6,1.6,0,0,1-.08-.26c0-.09,0-.18,0-.26s0-.3,0-.41v-.08c0-.25,0-.15-.13.11a2.74,2.74,0,0,0-.1.41,2.13,2.13,0,0,0,0,.43,1,1,0,0,0,.11.36.44.44,0,0,0,.25.2.19.19,0,0,0,.2,0,.53.53,0,0,0,.12-.2,5,5,0,0,0,.15-.57c.07-.38.12-.78.14-.86l-.39.78c-.07.14-.13.28-.19.39Zm5.57.26h0l-.1-.09,0,0v0a1.31,1.31,0,0,1-.09-.28c0-.18-.1-.38-.15-.51s-.1-.2-.15-.12,0,0,.06,0a3.65,3.65,0,0,1,0,.58,1.4,1.4,0,0,0,0,.29.39.39,0,0,0,0,.15.84.84,0,0,0,.2.24.62.62,0,0,0,.19.11.26.26,0,0,0,.3-.09,1.14,1.14,0,0,0,.12-.22A1.69,1.69,0,0,0,44,42.8a4.36,4.36,0,0,0,0-.63c0-.24,0-.45,0-.63,0,.17-.11.39-.17.62s-.07.27-.12.4a2,2,0,0,1-.14.37l-.06.13Zm2.39.6h0s0,0,0,0h0Zm-.09,0h0s0,0,0,0,0,0,.05,0Zm-16.06.19h-.05s0,0,.05,0Zm.05,0h0s0,0,0,0ZM40.45,42.4h0v0a.31.31,0,0,0,0-.13s0,0,0,0a.26.26,0,0,0,0,.13,3.87,3.87,0,0,0,0,.51,2.18,2.18,0,0,0,.09.51,1.14,1.14,0,0,0,.18.33.42.42,0,0,0,.29.17.59.59,0,0,0,.23,0,.7.7,0,0,0,.36-.27,1.76,1.76,0,0,0,.25-.45c.1-.26.16-.53.21-.69a6.14,6.14,0,0,1-.58.82l-.18.16a.27.27,0,0,1-.23.06s0,0,0,0l-.06-.06a1.36,1.36,0,0,1-.13-.24,3.45,3.45,0,0,1-.14-.34,4.06,4.06,0,0,1-.14-.48Zm5.45,1.07h0c0-.13,0-.27-.06-.32,0-.23,0-.45,0-.68s0-.7,0-1c0-.15,0-.29,0-.44s0-.25-.05-.37-.07-.37-.1-.56,0-.3-.05-.43,0-.09,0-.05,0,0,0,.05a2.25,2.25,0,0,0,0,.44c0,.22,0,.43,0,.65V41c0,.3,0,.6,0,.91s0,.4,0,.61,0,.44,0,.66a2.12,2.12,0,0,0,.11.54.46.46,0,0,0,.21.29c.12.06.29,0,.39-.19a4.14,4.14,0,0,0,.19-.78c.09-.41.22-.8.35-1.2s.17-.54.24-.81a6.56,6.56,0,0,0,.19-.88,8.51,8.51,0,0,1-.29.85c-.16.38-.34.77-.5,1.15s-.22.53-.31.8c0,0-.06.28-.13.5v0ZM25.8,44Zm4-.23h0a1.73,1.73,0,0,1-.08-.31A15,15,0,0,1,29.56,42c0-.33,0-.69,0-1,0-.15,0-.3,0-.44a3.37,3.37,0,0,1,0,.44c0,.34-.08.7-.1,1a12.94,12.94,0,0,0,0,1.38,2.68,2.68,0,0,0,.11.62.34.34,0,0,0,.2.22.26.26,0,0,0,.3-.09,1.66,1.66,0,0,0,.29-.53l.13-.35A2.17,2.17,0,0,0,30.5,43l.06-.24c.06-.26.11-.52.16-.79s.14-.78.2-1.18l.18-1.18c.08-.59.16-1.19.25-1.78-.13.49-.25,1-.36,1.46-.16.67-.32,1.35-.49,2-.1.45-.21.9-.32,1.35l-.12.45-.12.34c-.05.14-.09.29-.13.37Zm-4,.23h0a.55.55,0,0,1-.09-.29c0-.22,0-.47,0-.61s0-.56,0-.84,0-.56,0-.84c0-.56,0-1.13,0-1.69,0-.29,0-.58,0-.86s.06-.57.1-.86a1.37,1.37,0,0,1,.1-.49s.08,0,.16.05c-.08-.11-.14-.11-.18-.06a1.5,1.5,0,0,0-.16.48c-.07.29-.13.57-.18.86s-.1.57-.14.86c-.06.57-.11,1.13-.13,1.7,0,.29,0,.57,0,.86s0,.56,0,.85a4.5,4.5,0,0,0,.06.76.65.65,0,0,0,.18.36.31.31,0,0,0,.26.11.4.4,0,0,0,.23-.12,2,2,0,0,0,.3-.67,7.13,7.13,0,0,0,.24-1c.11-.78.12-1.56.24-2.34-.19.76-.27,1.54-.45,2.3a6.25,6.25,0,0,1-.29.93,2.37,2.37,0,0,1-.15.34c0,.05-.05.09-.07.13l0,0,0,0Zm10.14.5Zm-2.75,0Zm0,0h0a.19.19,0,0,1,0-.09,1.77,1.77,0,0,1-.07-.29c0-.16,0-.32-.05-.49s0-.23,0-.33c0-.33.06-.56.18-.44-.08-.14-.18,0-.28.21a3.63,3.63,0,0,0-.15.61,3.4,3.4,0,0,0,0,.45,2.66,2.66,0,0,0,0,.3.79.79,0,0,0,.17.38.32.32,0,0,0,.37.07.94.94,0,0,0,.27-.21,3.71,3.71,0,0,0,.4-.62c.22-.41.39-.84.46-1-.1.09-.42.54-.75.92a3.53,3.53,0,0,1-.25.28.79.79,0,0,1-.24.2Zm3.06,1.15h0s0,0,0,0h0Zm0,0ZM23.52,46h0s0,0,0,0,0,0,0,0ZM36,44.54h0a5,5,0,0,0-.09.56,2,2,0,0,0,0,.25,1.79,1.79,0,0,0,0,.34.67.67,0,0,0,.1.24c.08.12.16.17.25.16a.34.34,0,0,0,.24-.09l.1-.12a1.13,1.13,0,0,0,.15-.29c.1-.26.17-.54.19-.61s-.17.23-.33.41a1.76,1.76,0,0,1-.29.31.56.56,0,0,0,0-.12c0-.08-.06-.18-.09-.28l-.06-.22c-.09-.29-.14-.53-.15-.54Zm-5.36,1.58ZM24,39.86h0c0,.06-.17.34-.3.62s-.24.57-.27.68a11,11,0,0,0-.31,2c0,.27,0,.54,0,.8,0,.41,0,.81,0,1.2a4.89,4.89,0,0,0,.08,1c.07.21.2.31.32.3a.23.23,0,0,0,.15,0,.44.44,0,0,0,.14-.22,5.2,5.2,0,0,0,.17-.82c.15-.67.32-1.34.49-2s.35-1.34.54-2c-.25.65-.49,1.29-.71,1.94s-.43,1.32-.63,2c0,.06-.06.37-.13.61,0,0,0-.08,0-.11,0-.26,0-.55,0-.61,0-.39,0-.78,0-1.18s0-.79,0-1.18a10.29,10.29,0,0,1,.14-1.57c0-.11.11-.4.2-.68s.2-.59.23-.65h0Zm18.35,6.93Zm-3.14-1.51h0c-.16,0-.24.23-.24.54a1.34,1.34,0,0,0,0,.28,2,2,0,0,0,.1.37.84.84,0,0,0,.13.25.51.51,0,0,0,.31.23.42.42,0,0,0,.41-.17,1.39,1.39,0,0,0,.19-.46,6.46,6.46,0,0,1,.16-.66,3,3,0,0,0-.31.51c-.07.11-.14.22-.21.31a.23.23,0,0,1-.07.07.13.13,0,0,1-.07,0,0,0,0,0,1,0,0h0l0,0a1.16,1.16,0,0,1-.13-.2L39.25,46c0-.12-.08-.22-.11-.33s-.07-.4,0-.43Zm3.14,1.51h0a.08.08,0,0,1,0,0,.57.57,0,0,1-.08-.13,1.7,1.7,0,0,1-.12-.34.79.79,0,0,1,0-.24c0-.11,0-.17.12-.13a.1.1,0,0,0-.13,0c-.07,0-.12.13-.16.28a1.36,1.36,0,0,0,0,.29,2,2,0,0,0,0,.25A.88.88,0,0,0,42,47a.38.38,0,0,0,.4.22.5.5,0,0,0,.31-.24l.11-.23a1.09,1.09,0,0,0,.05-.17.53.53,0,0,0,0-.12l0-.16,0-.25-.2.35-.17.23-.14.15s-.1.09-.11.06Zm-11.55.58h0s0,0,0,0,0,0,0,0Zm.07,0h0s0,0,0,0h0Zm-.27-1.25h0s0,0,0,.09-.05.26-.08.44,0,.22,0,.33a2,2,0,0,0,0,.35.84.84,0,0,0,.09.28.34.34,0,0,0,.18.14.23.23,0,0,0,.22,0,.6.6,0,0,0,.21-.28,4.19,4.19,0,0,0,.22-.63,5.89,5.89,0,0,1,.17-.64,7.37,7.37,0,0,0-.47.75,3.75,3.75,0,0,1-.26.39.59.59,0,0,0,0-.14l-.09-.48a4.57,4.57,0,0,0-.09-.51l0-.09s0,0,0,0,0,0,0,.08l0,0Zm-9.89,2.2h0s0,0,0,0,0,0,0,0l0,0Zm0-.36h0a1.69,1.69,0,0,1,0-.21q0-.54.09-1.08c0-.24,0-.48.07-.72a9.58,9.58,0,0,1,.21-1.17c0-.1.25-.74.43-1.2.12-.3.21-.53.23-.5a3.31,3.31,0,0,0-.37.64c-.21.42-.45.91-.48,1a9.47,9.47,0,0,0-.32,1.19c-.05.23-.09.48-.12.72s-.09.72-.13,1.08a2.85,2.85,0,0,0-.05.64.42.42,0,0,0,.1.26.26.26,0,0,0,.39-.07,6.82,6.82,0,0,0,.51-1c.24-.58.48-1.16.7-1.74s.44-1.18.64-1.78c-.21.47-.42.92-.64,1.37-.32.67-.65,1.34-1,2,0,0-.15.33-.29.6Zm12.59-.62h0c0-.06-.07-.08-.1-.08s-.08.07-.11.18a1.83,1.83,0,0,0,0,.47,1.91,1.91,0,0,0,.06.33,1.47,1.47,0,0,0,.1.22.49.49,0,0,0,.26.22.44.44,0,0,0,.3,0,.67.67,0,0,0,.28-.23,1.63,1.63,0,0,0,.2-.42c.09-.25.13-.51.17-.63a7.68,7.68,0,0,1-.52.74l-.16.14a.15.15,0,0,1-.15,0,.17.17,0,0,1-.06-.06.85.85,0,0,1-.09-.14,2.23,2.23,0,0,1-.15-.31c0-.08-.06-.15-.08-.22s-.09-.34,0-.24ZM18.54,49.09Zm.11,0h0v0h0s0,0,0,0Zm8.16.23Zm-8.08-.51h0l.08-.25a9.07,9.07,0,0,1,.29-.89c.1-.3.2-.6.28-.79l0,.14a1.84,1.84,0,0,0,.13-.32.11.11,0,0,0,0-.06,0,0,0,0,0-.06,0l-.07.09c-.09.15-.28.5-.46.85s-.37.77-.41.89a3.3,3.3,0,0,0-.19.6.36.36,0,0,0,.09.29.28.28,0,0,0,.2.09.37.37,0,0,0,.22-.09,1.28,1.28,0,0,0,.22-.27,3.44,3.44,0,0,0,.2-.4c.07-.17.15-.33.23-.5s.27-.53.4-.8l.6-1.21c-.37.55-.75,1.07-1.11,1.62-.16.24-.3.48-.44.73l-.16.28Zm8.08.51h0l0-.06a.56.56,0,0,1,0-.2c0-.5,0-1,0-1.5s0-1,0-1.5a8.37,8.37,0,0,1,0-.85.59.59,0,0,1,.12-.33.54.54,0,0,0-.16.32,6.93,6.93,0,0,0-.09.84c-.07.51-.13,1-.17,1.51s-.06,1-.08,1.51.19.59.37.63.46-.09.55-.5c.05-.2.08-.33.11-.43s.09-.3.18-.67l.46-2c.16-.73.36-1.44.53-2.16.07-.31.13-.62.19-.93-.08.31-.18.61-.27.91-.23.7-.49,1.4-.71,2.11L27.22,48c-.1.35-.15.46-.2.65s-.06.24-.11.46a.56.56,0,0,1-.06.17l0,0Zm9.74-.58h0c0-.12-.07,0-.1.16a2.09,2.09,0,0,0,0,.45,1.29,1.29,0,0,0,0,.19.88.88,0,0,0,.2.37.62.62,0,0,0,.29.15.43.43,0,0,0,.33-.07.89.89,0,0,0,.24-.29,2.48,2.48,0,0,0,.21-.58,4.82,4.82,0,0,1,.15-.57,5.17,5.17,0,0,0-.33.51,3.78,3.78,0,0,1-.22.33,1,1,0,0,1-.19.22l-.07.05s0,0,0,0a.21.21,0,0,1-.18-.1,1.1,1.1,0,0,1-.17-.25,1.9,1.9,0,0,1-.15-.53.26.26,0,0,1,0-.07h0s0,0,0,0Zm3.88.54h0c-.11,0-.13.23-.06.53a1.18,1.18,0,0,0,.16.38.41.41,0,0,0,.55.18.77.77,0,0,0,.25-.23,1.71,1.71,0,0,0,.14-.27,4,4,0,0,0,.16-.62,4.69,4.69,0,0,1,.12-.61,3.55,3.55,0,0,0-.31.54c-.09.19-.19.37-.29.54L41,50a.77.77,0,0,1-.12.13h0a.14.14,0,0,1-.11-.06,1.55,1.55,0,0,1-.23-.27c-.13-.23-.22-.45-.11-.44Zm-11.28.31h0c-.18,0-.34.37-.38.67a.81.81,0,0,0,0,.42.38.38,0,0,0,.17.2.43.43,0,0,0,.41,0,1,1,0,0,0,.18-.13l.13-.15a4.78,4.78,0,0,0,.32-.5c.17-.33.3-.66.36-.76-.07.06-.22.23-.41.44l-.4.44-.17.15a.87.87,0,0,1-.15.13l-.09.06s0,0,0,0h0c-.06,0-.08-.09-.1-.17a1.34,1.34,0,0,1,0-.35.54.54,0,0,1,.14-.44Zm-4.69,2.56h0s0,0,0,0,0,0,0,0Zm.07,0h0a0,0,0,0,0,0,0h0s0,0,0,0Zm10-1.88h0c0,.11-.05.28-.09.48a4,4,0,0,0-.06.5,2.61,2.61,0,0,0,0,.49,1.43,1.43,0,0,0,.08.22.6.6,0,0,0,.09.15.5.5,0,0,0,.68.09,1.73,1.73,0,0,0,.37-.3,2.09,2.09,0,0,0,.14-.17c.11-.14.2-.28.3-.42l-.4.31-.18.12a1.37,1.37,0,0,1-.35.17.21.21,0,0,1-.3-.12,1.34,1.34,0,0,1-.1-.32,1.44,1.44,0,0,1,0-.24q-.06-.3-.09-.57c0-.16,0-.3-.06-.39Zm-10,1.78h0v0a1.19,1.19,0,0,1,0-.38q0-.39,0-.87a10.69,10.69,0,0,1,.08-1.27,2.47,2.47,0,0,1,.27-.87,3.05,3.05,0,0,0-.49,1.14,9.3,9.3,0,0,0-.16.92c0,.33-.07.64-.1.91a1.72,1.72,0,0,0,0,.45.86.86,0,0,0,.1.33.32.32,0,0,0,.28.17.3.3,0,0,0,.21-.09,1,1,0,0,0,.16-.25l.14-.35a3.62,3.62,0,0,0,.13-.35l.16-.45c0-.11.09-.22.18-.45l.24-.7c.1-.35.2-.7.29-1-.14.34-.28.67-.43,1s-.2.44-.31.65L25,51c-.05.1-.1.21-.2.44l-.32.66Zm7.86.94h0c-.31,0-.43.22-.47.47a1.21,1.21,0,0,0,0,.19.73.73,0,0,0,.17.39.52.52,0,0,0,.19.14.37.37,0,0,0,.31,0,.33.33,0,0,0,.16-.11.82.82,0,0,0,.18-.31h0s0-.15.09-.33.12-.5.12-.5l-.29.42-.18.29h0a.67.67,0,0,1-.13.15c-.05,0-.1.06-.14,0l-.06,0a.93.93,0,0,1-.14-.22c-.08-.21-.08-.45.18-.55Zm5.87.88h0s0,0,0,0-.06-.08-.09-.15-.11-.5-.15-.62,0-.08,0-.08,0,0,0,.05,0,0,0,0,0,.16,0,.3a2.31,2.31,0,0,0,0,.37,1,1,0,0,0,.06.27.27.27,0,0,0,.1.13.31.31,0,0,0,.3,0,1.35,1.35,0,0,0,.33-.18A1.52,1.52,0,0,0,39,53.8a3.2,3.2,0,0,0,.34-.53c.17-.3.31-.6.44-.82-.19.17-.41.41-.65.67s-.27.29-.41.42l-.22.2a.8.8,0,0,1-.23.16ZM26,54.35h0s0,0,0,0Zm0,0h0l0,0h0s0,0,0,0Zm14.67-.68h0c-.15,0-.19.19-.17.37a.68.68,0,0,0,.07.2c.1.16.28.21.52.09a1.18,1.18,0,0,0,.31-.28,1.36,1.36,0,0,0,.13-.24,1.31,1.31,0,0,0,.09-.28l.06-.28c0-.31,0-.6.08-.84a5.87,5.87,0,0,0-.25.55l-.24.53-.09.16-.09.15a.83.83,0,0,1-.19.26s0,.06-.08.06a.25.25,0,0,1-.18-.14c-.06-.13-.07-.26,0-.31ZM26,54.35h0a1.48,1.48,0,0,1,0-.21,3.23,3.23,0,0,1,0-.44c0-.3.12-.55.3-.46-.18-.18-.41.09-.55.45a1.58,1.58,0,0,0-.11.54.65.65,0,0,0,.05.3.31.31,0,0,0,.13.16.27.27,0,0,0,.25,0,.34.34,0,0,0,.17-.1.79.79,0,0,0,.21-.25,2.12,2.12,0,0,0,.11-.21c.05-.1.09-.21.14-.31l.12-.34c0-.05.05-.11.09-.22l-.15.18-.22.29-.24.29-.11.12a.79.79,0,0,1-.13.13l0,0Zm3.1-.6h0c-.26-.12-.45.27-.47.6a.6.6,0,0,0,.11.37.32.32,0,0,0,.2.12.31.31,0,0,0,.19,0,.83.83,0,0,0,.35-.2,1.25,1.25,0,0,0,.24-.27,3.86,3.86,0,0,0,.32-.56A5.85,5.85,0,0,1,30.5,53a3.45,3.45,0,0,0-.46.47l-.27.33c-.1.13-.21.26-.31.37l-.14.14a1.14,1.14,0,0,1-.17.15.41.41,0,0,1-.11.07h0a.19.19,0,0,1-.07-.08.74.74,0,0,1-.05-.33c0-.2.08-.37.24-.35ZM27.54,57ZM24,57.22Zm0,0h0s0,0,0,0,0,0,.05,0Zm-7.4.16h0v0h0s0,0,0,0ZM27.54,57h0s0,0,0,0h0s0,0,0-.06a1.38,1.38,0,0,1,0-.22,3.53,3.53,0,0,1,0-.46c0-.35.09-.66.19-.67-.08,0-.19.13-.31.35a3.86,3.86,0,0,0-.17.45,1.73,1.73,0,0,0-.07.31,1.05,1.05,0,0,0,0,.36.39.39,0,0,0,.2.29.32.32,0,0,0,.29,0,.91.91,0,0,0,.3-.24l.42-.48.16-.24c0-.11.08-.21.15-.38a3.64,3.64,0,0,1-.25.31.88.88,0,0,1-.2.17c-.11.09-.24.17-.36.25l-.16.13a.86.86,0,0,1-.17.13ZM24,57.21h0s0,0,0,0,0-.11,0-.18v-.21c0-.1,0-.21,0-.32a.9.9,0,0,1,.13-.52.85.85,0,0,0-.34.41,1,1,0,0,0-.09.21.76.76,0,0,0-.06.2.89.89,0,0,0,0,.32.54.54,0,0,0,.05.24.32.32,0,0,0,.17.19.29.29,0,0,0,.23,0l.1-.07a.87.87,0,0,0,.22-.28c.07-.14.11-.2.14-.26l.11-.27-.21.2-.21.19a1.79,1.79,0,0,1-.19.16Zm10.9-1.05h0c0-.06,0,0,0,0a2.49,2.49,0,0,0-.08.35c0,.09,0,.21-.07.35a1.11,1.11,0,0,0,0,.41.44.44,0,0,0,.32.31.78.78,0,0,0,.3,0,.85.85,0,0,0,.41-.15,1.51,1.51,0,0,0,.42-.45c.17-.25.29-.52.44-.72-.14.11-.29.25-.45.4a3.78,3.78,0,0,1-.43.38,1,1,0,0,1-.3.13l-.12,0h-.18a.2.2,0,0,1-.13-.15,2,2,0,0,1-.09-.56,2.19,2.19,0,0,1,0-.3c0-.07,0-.12,0-.07ZM31.2,57.82h0s0,0,0,0h0s0,0,0,0Zm0,0h0l0-.1a2,2,0,0,1-.08-.26,1.27,1.27,0,0,1,0-.41c0-.1,0-.15.14-.11a.11.11,0,0,0-.12,0c-.07,0-.12.12-.16.26a1.35,1.35,0,0,0-.06.41,1.66,1.66,0,0,0,0,.33.76.76,0,0,0,.06.16.29.29,0,0,0,.24.14.68.68,0,0,0,.36-.1,1.09,1.09,0,0,0,.25-.23,2.32,2.32,0,0,0,.28-.49c.12-.3.2-.6.25-.77l-.33.47a4.46,4.46,0,0,1-.34.42,1.64,1.64,0,0,1-.25.22.33.33,0,0,1-.1.06l-.09,0Zm-12.09.79h0s0,0,0,0,0,0,.05,0Zm0,0h0l0-.06s0-.11,0-.18a4.5,4.5,0,0,1,.05-1c0-.37.11-.76.17-1.11s.18-.93.23-1.1a6,6,0,0,1,.09-.67.34.34,0,0,1,.15-.24c-.08,0-.14.11-.18.23s-.14.53-.18.64-.29.85-.47,1.53c-.09.35-.16.71-.21,1a2.75,2.75,0,0,0,0,.85.6.6,0,0,0,.24.43.36.36,0,0,0,.46-.13,1.34,1.34,0,0,0,.2-.29,7.1,7.1,0,0,0,.29-.66A7.39,7.39,0,0,1,20.4,57c.44-.69,1-1.34,1.42-2-.52.64-1.12,1.23-1.63,1.88a8.9,8.9,0,0,0-.61.9,5.71,5.71,0,0,1-.31.61,1.13,1.13,0,0,1-.16.27Zm-3.06,4.2H16s0,0,0,0,0,0,.08,0Zm.58-5.45h0c0,.09-.15.46-.25.79s-.13.49-.15.58c-.05.4-.12.79-.18,1.18s-.12.79-.17,1.19c0,.2-.05.41-.07.61s0,.27,0,.41a2.8,2.8,0,0,0,0,.62.45.45,0,0,0,.16.35.21.21,0,0,0,.26,0,.9.9,0,0,0,.16-.17c.11-.15.22-.36.24-.38.13-.25.26-.5.38-.75.27-.58.5-1.19.79-1.77-.35.54-.65,1.12-1,1.67-.14.24-.28.47-.43.69a2.9,2.9,0,0,1-.23.38,1.2,1.2,0,0,1,0-.19c0-.17.06-.34.07-.41,0-.23.05-.45.07-.68l.09-1c0-.34.05-.68.07-1l0-.68a2.22,2.22,0,0,1,0-.28c.06-.39.16-1,.18-1.11Zm-.89,15h0c0-.27,0-.54-.05-.8s0-.61,0-.91c0-.51-.08-1.06-.12-1.63-.06-.8-.12-1.63-.11-2.44a8.56,8.56,0,0,1,.39-2.68,8.46,8.46,0,0,0-.55,2.67,22.47,22.47,0,0,0,0,2.46c0,.57,0,1.12.06,1.63l0,1.1c0,.24,0,.48,0,.72a7.1,7.1,0,0,0,.12,1,.49.49,0,0,0,.07.16l.08.06a.21.21,0,0,0,.19,0,.25.25,0,0,0,.09-.15,1.53,1.53,0,0,0,.06-.29c.14-.74.41-2.59.46-2.77L17,68.18c.14-.65.27-1.28.38-1.91s.18-1.27.24-1.93c-.09.65-.21,1.28-.35,1.91s-.29,1.25-.47,1.88l-.65,2.24c0,.13-.23,1.17-.39,2Z" transform="translate(-1.32 -7.03)"/><path class="cls-13" d="M20.66,93.37Zm-4.32.27Zm10,5.47h0s0,0,.06,0,0,0-.05,0Zm0,0h0a4.18,4.18,0,0,1-.15-.43c-.15-.39-.27-.84-.28-.88-.09-.34-.18-.74-.27-1.17a16.35,16.35,0,0,1-.28-1.77,6.43,6.43,0,0,1,.05-2,6.36,6.36,0,0,0-.26,2,15.62,15.62,0,0,0,.12,1.83c.06.43.14.84.21,1.2a5.26,5.26,0,0,0,.18.7,4,4,0,0,0,.28.71c.18.31.43.37.61.25a1.11,1.11,0,0,0,.38-.59A7,7,0,0,0,27,97.6c.06-.67.1-1.33.14-2,0-.44.05-.88.08-1.32s.07-1,.13-1.42c-.11.46-.19.93-.27,1.4s-.13.88-.19,1.32c-.1.65-.18,1.31-.29,2a8.57,8.57,0,0,1-.16,1.08,1,1,0,0,1-.2.45Zm-10.54.56h0s-.07,0-.05,0,0,0,.06,0Zm.08,0h0s0,0,0,0a0,0,0,0,0,0,0Zm2.35.18h0a.08.08,0,0,1,0,0h0s0,0,0,0Zm2.42-.44h0a1.17,1.17,0,0,1-.11-.28,3.38,3.38,0,0,1-.11-.6,10.36,10.36,0,0,1,0-1.48c0-.61.07-1.18.08-1.51s0-.63,0-1,0-.43.07-.63.05-.22.08-.35,0-.2.06-.22h0a1,1,0,0,0-.06.15,4,4,0,0,0-.14.41,6.21,6.21,0,0,0-.14.62c-.06.32-.09.65-.13,1s-.14.89-.21,1.5a10.19,10.19,0,0,0-.06,1.55,3.88,3.88,0,0,0,.14.83,1.32,1.32,0,0,0,.32.53c.14.15.37.16.55-.13a4.33,4.33,0,0,0,.31-.83c.16-.54.27-1.13.29-1.23.14-.87.26-1.86.46-2.82a9.11,9.11,0,0,1,.56-1.81,8.76,8.76,0,0,0-.73,1.77c-.28.93-.47,1.92-.68,2.79,0,.08-.17.65-.34,1.16a5.29,5.29,0,0,1-.21.58Zm3,0h0q-.06-.16-.12-.36c-.15-.5-.28-1-.28-1a15.44,15.44,0,0,1-.26-2.49,12.1,12.1,0,0,1,.15-2.5,11.87,11.87,0,0,0-.39,2.5,14.32,14.32,0,0,0,.08,2.55s.11.59.25,1.11a3.59,3.59,0,0,0,.27.76c.16.3.39.28.53.15a.84.84,0,0,0,.15-.27,2.74,2.74,0,0,0,.13-.53c.09-.6.12-1.4.16-1.63.19-1,.41-2,.59-3,.13-.67.23-1.35.31-2-.1.51-.22,1-.35,1.51s-.24.92-.37,1.38l-.57,2.09c-.05.23-.12,1-.24,1.64,0,.08,0,.15,0,.21Zm-10.38.77Zm5-.44h0a0,0,0,0,0,0,0,2.57,2.57,0,0,1,0-.33c0-.42,0-.89,0-.93,0-.36,0-.71,0-1.06q0-.81.09-1.59c.07-.88.17-1.75.29-2.66-.22.89-.43,1.75-.58,2.62-.09.53-.17,1.06-.21,1.61q0,.52-.06,1.08s0,.37,0,.72a3.67,3.67,0,0,0,.12.76.5.5,0,0,0,.3.33.29.29,0,0,0,.28,0,.61.61,0,0,0,.22-.23,4,4,0,0,0,.39-.84c.18-.49.36-1.09.53-1.7.3-1.09.55-2.19.69-2.57-.16.33-.47,1.23-.82,2.18-.18.49-.37,1-.55,1.44s-.33.77-.47,1a1.6,1.6,0,0,1-.13.21Zm-2.79-3.6h0c0,.26-.07.51-.09.77a12.85,12.85,0,0,0,0,1.49,7,7,0,0,0,0,1.09,1.34,1.34,0,0,0,.12.37.46.46,0,0,0,.19.2.33.33,0,0,0,.32,0,.76.76,0,0,0,.23-.26,6.46,6.46,0,0,0,.42-1.27c.15-.47.3-1,.44-1.44.21-.72.42-1.44.66-2.15.18-.51.36-1,.58-1.5a18.22,18.22,0,0,0-.93,1.94c-.2.5-.4,1-.58,1.51s-.38,1-.57,1.5c0,.06-.13.47-.27.82,0,.09-.07.22-.11.31a2.13,2.13,0,0,1-.06-.39,6.89,6.89,0,0,1,0-.74c0-.43,0-.93,0-1.46a10.2,10.2,0,0,1,.1-1.45,5.29,5.29,0,0,1,.58-1.85h0a1,1,0,0,1-.05.36,2,2,0,0,0,.08-.33.1.1,0,0,0,0-.07s0,0-.05,0a5,5,0,0,0-.79,1.83c0,.16-.07.33-.1.5-.25.43-.5.87-.73,1.31-.33.62-.64,1.24-.95,1.86-.09.19-.18.55-.33.82a.7.7,0,0,1-.13.19.14.14,0,0,1-.08,0,1.11,1.11,0,0,1,0-.34c0-.24.11-.51.12-.69s0-.48,0-.72.08-.73.12-1.09.14-.91.22-1.36.16-.92.25-1.36c0-.11.07-.49.13-.78a1,1,0,0,1,.11-.31,1.22,1.22,0,0,1,.29-.25s0,0,0,0c.05-.09,0-.08-.07,0a1.74,1.74,0,0,0-.29.2,1.2,1.2,0,0,0-.15.32c-.09.29-.18.66-.21.77-.13.43-.26.87-.39,1.33s-.22.91-.31,1.36-.13.74-.18,1.11,0,.5-.06.75-.08.41-.11.63a1.44,1.44,0,0,0,0,.54.45.45,0,0,0,.15.24.37.37,0,0,0,.28.09.62.62,0,0,0,.53-.35,6.24,6.24,0,0,0,.36-1c.31-.77.62-1.54,1-2.31.11-.27.23-.53.35-.8Z" transform="translate(-1.32 -7.03)"/><path class="cls-16" d="M19,52.78Zm0,0h0v0h0s0,0,0,0Zm0,0h0v-.14a6.45,6.45,0,0,1,.06-.69c.06-.45.14-.89.18-1.07s.14-.22.19-.33a.29.29,0,0,0,0-.09.2.2,0,0,1,0,.08c-.07.1-.21.17-.27.31s-.16.37-.26.67-.1.31-.14.47-.06.27-.08.4a1.77,1.77,0,0,0,0,.44c0,.24.15.36.3.37a.29.29,0,0,0,.22-.06,1.31,1.31,0,0,0,.39-.38.91.91,0,0,0,.11-.16,1.4,1.4,0,0,0,.1-.16c.08-.14.15-.28.22-.42s.14-.29.2-.43l.23-.62a4.06,4.06,0,0,1,.19-.4l-.26.36c-.09.14-.14.26-.34.57-.06.11-.13.21-.19.31l-.32.45a1.71,1.71,0,0,1-.11.14.69.69,0,0,1-.11.13,1.5,1.5,0,0,1-.22.22l0,0Zm-2.78,2.32h0s0,0,0,0a0,0,0,0,0,0,0Zm.28-.49h0c0-.09.09-.36.15-.68s.13-.75.17-1a2.55,2.55,0,0,0,0-.31c0-.07,0-.07-.06,0,0-.07,0-.08,0,0a1.7,1.7,0,0,1-.09.29c-.08.27-.22.65-.33,1s-.19.56-.22.65a3.3,3.3,0,0,0-.14.61.87.87,0,0,0,0,.18.34.34,0,0,0,.06.12.26.26,0,0,0,.39-.07,2.07,2.07,0,0,0,.26-.42c.14-.29.26-.61.27-.63q.18-.31.39-.63c.32-.49.69-1,1-1.45-.38.44-.82.85-1.21,1.3a6.62,6.62,0,0,0-.47.61l-.25.48Zm3.93,7h0c0,.09,0,.13-.06.14h0l-.05,0c-.06-.06-.14-.17-.25-.27a1.15,1.15,0,0,0-.35-.22.76.76,0,0,0-.34-.05.63.63,0,0,0-.22.07,1.16,1.16,0,0,0-.35.25.76.76,0,0,0-.22.62c.05.18.23.33.59.27-.27,0-.39-.15-.38-.29s.08-.2.19-.3a.91.91,0,0,1,.19-.13l.14-.07.14,0h.15l.14,0a3.29,3.29,0,0,1,.52.24c.08,0,.14,0,.17,0a.27.27,0,0,0,0-.19ZM22,63h0s0-.06-.05-.15a1.5,1.5,0,0,1,0-.37,1.25,1.25,0,0,1,.07-.26,2.39,2.39,0,0,1,.15-.37l.08-.14c0-.05.05-.1.08-.14a.92.92,0,0,1,.19-.26l.09-.08.06,0a.21.21,0,0,1,.14.11,1.06,1.06,0,0,1,.12.38.86.86,0,0,0,0-.58.3.3,0,0,0-.31-.14.72.72,0,0,0-.24.09,1.22,1.22,0,0,0-.3.27,1.1,1.1,0,0,0-.14.21,1.4,1.4,0,0,0-.13.36,1.85,1.85,0,0,0,0,.23,1.9,1.9,0,0,0,0,.34,2.72,2.72,0,0,0,.13.34c.06.12.12.2.14.18Zm-2.43,1.21h.05s0,0,0,0,0,0-.06,0Zm-1.48.57Zm0,0h0a.91.91,0,0,1,.26-.13h0a1.42,1.42,0,0,0-.35.34,1,1,0,0,0-.19.77,1,1,0,0,1,.32-.65,2.09,2.09,0,0,1,.43-.27l.49-.21a2.57,2.57,0,0,0,.33-.18,1.61,1.61,0,0,0,.32-.25.23.23,0,0,0,.07-.15.18.18,0,0,0-.05-.16.23.23,0,0,0-.19-.05.91.91,0,0,0-.23.1l-.41.25c-.17.13-.41.24-.61.38a1.21,1.21,0,0,0-.23.22s0,0,0,0,0,0,0,0Zm17,.82h0a1.61,1.61,0,0,0-.41.74,3.7,3.7,0,0,0-.14.55l0,.24v.24a2,2,0,0,0,0,.31.58.58,0,0,0,.13.24.32.32,0,0,0,.2.08.56.56,0,0,0,.32-.11,1.5,1.5,0,0,0,.27-.24c.16-.16.3-.33.36-.39-.1,0-.38.25-.64.38l-.2.07h-.08v0s0-.07,0-.12,0-.22,0-.35,0-.24,0-.37l0-.56a1.55,1.55,0,0,1,.15-.66Zm-17,2.56h0s0,0,0,0h0v0a1.12,1.12,0,0,1,.05-.13.53.53,0,0,1,.06-.14c0-.07.05-.13.07-.19l.12-.3c.09-.2.17-.38.24-.51s.12-.19.16-.17-.28.1-.51.35a2.16,2.16,0,0,0-.27.33l-.17.31a1.42,1.42,0,0,0-.09.37c0,.19,0,.32.15.37a.27.27,0,0,0,.18,0,.53.53,0,0,0,.26-.12,3.13,3.13,0,0,0,.41-.38l-.46.2c-.12,0-.26.08-.24,0Zm20.62,1.6h-.06s0,0,.06,0Zm-7.13-2.11h0c-.11.06-.2.38-.24.76a2,2,0,0,0,0,.35,2.31,2.31,0,0,0,.07.47,1.11,1.11,0,0,0,.13.31.5.5,0,0,0,.46.27.62.62,0,0,0,.42-.24,2.45,2.45,0,0,0,.26-.45.9.9,0,0,0,.08-.21c0-.11.07-.21.1-.32l-.21.32-.09.13a2,2,0,0,1-.42.39.2.2,0,0,1-.16,0l0,0a.22.22,0,0,1-.05-.08,1.23,1.23,0,0,1-.11-.23c0-.12-.08-.26-.12-.4s-.05-.21-.07-.31c-.06-.36-.08-.67,0-.75Zm7.14,2.1h0l0,0-.12-.18c0-.06-.07-.11-.11-.18a.67.67,0,0,1-.06-.12c0-.11,0-.19.06-.21a.16.16,0,0,0-.14,0c-.08.06-.1.18-.09.34a.89.89,0,0,0,0,.22.76.76,0,0,0,.06.2.75.75,0,0,0,.08.18.23.23,0,0,0,.07.09A.28.28,0,0,0,39,70,.44.44,0,0,0,39,69.9a2,2,0,0,0,.1-.26,3.83,3.83,0,0,0,.1-.56,5.39,5.39,0,0,1-.36.5s-.09.13-.13.17Zm-18.42-.28h0a.67.67,0,0,0-.41.38,1.06,1.06,0,0,0-.09.25.63.63,0,0,0,0,.39.42.42,0,0,0,.25.22.31.31,0,0,0,.19,0,.64.64,0,0,0,.28-.15,1.36,1.36,0,0,0,.22-.25c.12-.16.21-.31.28-.39-.13.06-.36.22-.58.34l-.15.07a.22.22,0,0,1-.11,0,.1.1,0,0,1,0,0,.2.2,0,0,1,0-.08.86.86,0,0,1,0-.32.61.61,0,0,1,.17-.43Zm15.58.38h0a.09.09,0,0,0,0-.06,1.87,1.87,0,0,0-.25.49,6.74,6.74,0,0,0-.13.69,2.64,2.64,0,0,0,0,.28,3.12,3.12,0,0,0,0,.44,1,1,0,0,0,.12.4.52.52,0,0,0,.28.25.46.46,0,0,0,.28,0,1.16,1.16,0,0,0,.36-.27,3.74,3.74,0,0,0,.33-.43c.19-.28.35-.56.42-.67a8.74,8.74,0,0,1-.8.78,2,2,0,0,1-.34.23A.15.15,0,0,1,36,72s0,0,0,0a.93.93,0,0,1,0-.1,2,2,0,0,1-.08-.41c0-.18,0-.38-.05-.57s0-.47,0-.58a2.39,2.39,0,0,1,.08-.45s0,0,0,0v0ZM23.31,71h0s-.18.14-.3.44a2.75,2.75,0,0,0-.1.34,1.63,1.63,0,0,0,0,.31,1.06,1.06,0,0,0,.05.31.75.75,0,0,0,.05.16c.1.18.21.3.38.27a.34.34,0,0,0,.16-.08.88.88,0,0,0,.24-.26,1,1,0,0,1-.26.12.2.2,0,0,1-.17,0s0,0,0-.08a.74.74,0,0,1,0-.27s0-.1,0-.15,0-.11,0-.16,0-.19,0-.29,0-.13,0-.2c0-.28,0-.48.06-.46Zm6.76,1.72h0a.37.37,0,0,1-.15,0,1.84,1.84,0,0,1-.36-.28c-.17-.16-.29-.33-.25-.44-.09.11,0,.35.1.59a1.43,1.43,0,0,0,.15.22,1.12,1.12,0,0,0,.34.29.42.42,0,0,0,.26,0,.35.35,0,0,0,.24-.16,1.07,1.07,0,0,0,.11-.26,2.43,2.43,0,0,0,0-.3c0-.1,0-.2,0-.3,0-.37-.06-.74-.06-.86,0,.09-.09.34-.15.63,0,.13-.07.27-.1.41s-.08.27-.12.37l0,.09Zm-12.62-.76h0a2.11,2.11,0,0,1,0,.56c0,.13,0,.25,0,.38a1.63,1.63,0,0,0,0,.31,1.59,1.59,0,0,0,0,.34c.05.18.12.29.22.32a.33.33,0,0,0,.28,0,.59.59,0,0,0,.11-.08,2.11,2.11,0,0,0,.33-.42,2.46,2.46,0,0,1-.41.24.41.41,0,0,1-.18,0h0a.15.15,0,0,1,0-.07,1.75,1.75,0,0,1,0-.23,2.18,2.18,0,0,0,0-.25,1.1,1.1,0,0,0,0-.18,1.28,1.28,0,0,0-.05-.27,2.64,2.64,0,0,0-.12-.4,1.36,1.36,0,0,0-.13-.24Zm8.72,2Zm3.76,1.7h0a.29.29,0,0,1,.07-.11h0s0,0,0,0h0s0,0,0,0a.36.36,0,0,1,.05.09l.08.09.07,0a.75.75,0,0,0,.24.08h.1l.09,0a.26.26,0,0,0,.14-.24.23.23,0,0,1-.12.06h0s0,0-.06,0,0,0-.05,0l-.07-.09-.06,0-.09,0a.45.45,0,0,0-.24-.07H30s-.09,0-.1.06a.14.14,0,0,0,0,.06.67.67,0,0,0,.06.16ZM26.17,74h0s0,.1-.09.24-.07.24-.11.39a2.87,2.87,0,0,0,0,.31.66.66,0,0,0,0,.14.89.89,0,0,0,0,.23.77.77,0,0,0,0,.15.92.92,0,0,0,.18.41.33.33,0,0,0,.39.1.46.46,0,0,0,.19-.13,2.1,2.1,0,0,0,.27-.37,1.77,1.77,0,0,1-.45.27H26.4a.09.09,0,0,1,0-.06.64.64,0,0,1,0-.07,1.2,1.2,0,0,1,0-.2,2.45,2.45,0,0,1,0-.27l0-.28c0-.12,0-.23,0-.34,0-.29,0-.51,0-.52Zm-5.65.42h0s-.13.22-.19.54a1.79,1.79,0,0,0,0,.4.91.91,0,0,0,.13.43.55.55,0,0,0,.29.23A.45.45,0,0,0,21,76a.75.75,0,0,0,.3-.22,1.72,1.72,0,0,0,.24-.34c.12-.22.21-.44.26-.53-.11.09-.35.37-.6.57l-.2.13a.15.15,0,0,1-.11,0,.18.18,0,0,1-.08-.07.47.47,0,0,1-.06-.09,1.75,1.75,0,0,1-.12-.32c0-.16-.06-.32-.08-.45s0-.32,0-.3Zm6.57,16.4h0s0,0,0,0,0,0,0,0Zm0,0h0s0,0,0,0h0a2,2,0,0,1-.47-1.06,12.7,12.7,0,0,1-.19-1.9c-.09-1.12-.15-2.25-.18-3.37s0-2.26,0-3.39a15.91,15.91,0,0,1,.38-2.67c.15-.54.35-.93.62-.89-.27-.06-.49.33-.67.87a14.58,14.58,0,0,0-.5,2.68C26,82.18,26,83.31,26,84.45s0,2.27.09,3.4a15,15,0,0,0,.19,2,2.53,2.53,0,0,0,.6,1.25.33.33,0,0,0,.25.12.41.41,0,0,0,.31-.19,2.69,2.69,0,0,0,.29-.82c.07-.48.13-1,.18-1.43s.07-1,.09-1.43c0-1.22.12-2.44.25-3.65s.29-2.42.52-3.62c-.28,1.19-.5,2.39-.67,3.6s-.29,2.43-.38,3.65c0,.48-.08,1-.13,1.42s-.12.94-.21,1.4a2.43,2.43,0,0,1-.14.48,2,2,0,0,1-.09.2Zm-2.91-8.53h0c-.07.43-.15.85-.22,1.28-.13.72-.25,1.45-.37,2.17L23.39,87c0,.3-.09.6-.13.9l-.21,1.75c-.06.51-.12.87-.17,1.11a18.37,18.37,0,0,1-.2-2c-.08-1-.13-2.06-.13-2.2,0-1,0-2.05,0-3.08l.06-1.08c.08-.32.15-.63.22-.95.15-.67.28-1.35.38-2-.12.68-.28,1.35-.45,2,0,.14-.07.27-.11.4,0-.47.09-1,.16-1.42.1-.75.34-1.57.48-2.37a6.22,6.22,0,0,0,.11-1,6.33,6.33,0,0,1-.16,1c-.18.79-.46,1.61-.59,2.35-.16.89-.28,1.81-.36,2.72s-.45,1.52-.68,2.28c-.4,1.32-.77,2.65-1,4,0,.12-.11,1-.27,1.78a3.29,3.29,0,0,1-.23.76.42.42,0,0,1-.07.12A.09.09,0,0,1,20,92a2.12,2.12,0,0,1-.14-.61,12.14,12.14,0,0,1,0-1.48c0-.93,0-1.84.07-2.74,0-.62.08-1.22.13-1.83.1-1.07.23-2.14.39-3.23l.24-1c-.07.23-.13.46-.2.69.05-.35.1-.69.16-1,0-.12.27-2,.53-3.08.11-.46.23-.74.32-.59-.09-.16-.22.12-.35.58-.3,1-.63,2.94-.66,3.06-.16.82-.3,1.63-.43,2.44l-.09.26c-.18.51-.36,1-.57,1.52-.35.89-.7,1.76-1,2.65a15.36,15.36,0,0,0-.49,1.83,10.06,10.06,0,0,1-.23,1.18,1.11,1.11,0,0,1-.27.49s0-.09,0-.13a3.87,3.87,0,0,1,0-.78c0-1,.09-1.89.14-2.83,0-.41.05-.81.08-1.22.06-1,.12-2,.23-3,.07-.16.13-.33.2-.49-.06.14-.13.28-.19.41v0A20.47,20.47,0,0,1,18.16,81a11.45,11.45,0,0,1,1.21-3.28A11.62,11.62,0,0,0,18,80.94,18.41,18.41,0,0,0,17.58,83c0,.28-.08.56-.12.84s-.37.77-.54,1.16-.31.68-.45,1l-.33.87c-.11.29-.21.58-.31.88s-.2,1.32-.41,2.07a2.17,2.17,0,0,1-.21.54.21.21,0,0,1,0,.06h0a1.36,1.36,0,0,1,0-.21,3.84,3.84,0,0,1,0-.6c0-.45,0-.9.07-1.34.06-.68.14-1.35.23-2s.18-1.59.28-2.39c.07-.53.14-1.05.23-1.58a17.62,17.62,0,0,1,.62-2.58A11,11,0,0,1,17,78.51a1.16,1.16,0,0,1,.32-.45,1.1,1.1,0,0,0-.34.43,9.4,9.4,0,0,0-.48,1.22,16.16,16.16,0,0,0-.76,2.57c-.12.52-.21,1-.3,1.58-.13.79-.23,1.59-.35,2.38s-.19,1.35-.25,2q-.06.69-.06,1.38a3.37,3.37,0,0,0,.05.95c.07.21.2.29.37.25a.45.45,0,0,0,.23-.17,1.32,1.32,0,0,0,.21-.43,21.37,21.37,0,0,0,.42-2.38c.08-.3.18-.59.27-.88s.19-.59.3-.88.25-.69.39-1,.27-.66.41-1c-.09.71-.15,1.41-.21,2.1s-.11,1.35-.16,2-.07,1.36-.1,2a3.93,3.93,0,0,0,0,1.06.38.38,0,0,0,.21.28.25.25,0,0,0,.23,0,1.13,1.13,0,0,0,.44-.56,7.34,7.34,0,0,0,.29-1.44,17.65,17.65,0,0,1,.42-1.81c.26-.9.56-1.78.89-2.67.14-.39.27-.79.39-1.19-.07.49-.14,1-.19,1.46s-.14,1.22-.18,1.83c-.07.91-.11,1.83-.11,2.77a8.66,8.66,0,0,0,.14,2,.84.84,0,0,0,.21.4.36.36,0,0,0,.26.11.36.36,0,0,0,.24-.09,1.25,1.25,0,0,0,.27-.51,17.36,17.36,0,0,0,.38-2.4c.23-1.35.57-2.68.92-4l.43-1.6c-.06.91-.07,1.83-.06,2.73,0,.14,0,1.16.1,2.22a16.75,16.75,0,0,0,.28,2.23.66.66,0,0,0,.11.25.27.27,0,0,0,.13.11.24.24,0,0,0,.29-.16,5.56,5.56,0,0,0,.28-1.55L23.52,88c0-.3.07-.6.1-.9s.11-.89.17-1.34q.12-1.1.27-2.19c0-.32.08-.64.13-1,0,.14,0,.27,0,.41,0,.65,0,1.31,0,2,0,.35,0,.7,0,1,0,.53,0,1,0,1.55s0,.91.08,1.35a12.47,12.47,0,0,0,.22,1.34,3.7,3.7,0,0,0,.26,1,.25.25,0,0,0,.2.13.23.23,0,0,0,.14-.08,1.89,1.89,0,0,0,.38-.89c.15-.76.15-1.72.22-2.19-.1.46-.15,1.42-.34,2.16a1.71,1.71,0,0,1-.39.8h0s0,0,0,0a1.38,1.38,0,0,1-.08-.2c-.06-.23-.09-.53-.12-.7q-.11-.66-.15-1.32t0-1.32c0-.49,0-1,0-1.52s0-1-.06-1.52c0-.89-.08-1.81-.08-2.71,0-.61,0-1.22.06-1.81a12,12,0,0,1,.61-3.17,9.68,9.68,0,0,0-.55,1.65A16.53,16.53,0,0,0,24.25,81c0,.41-.05.81-.06,1.22ZM13.61,109.52h0s0,0,0,0Zm12.5-3.91h0c-.24,1.22-.58,2.47-.81,3.61,0,0-.07.49-.18.89a2.64,2.64,0,0,1-.14.4l-.06.07h0a2,2,0,0,1-.46-1,8.58,8.58,0,0,1-.1-1.85c0-.42,0-.83.09-1.25s.14-1,.23-1.51a25.63,25.63,0,0,0,.48-3.55,25.55,25.55,0,0,1-.71,3.5c-.05.23-.11.46-.15.69-.18.54-.35,1.07-.51,1.6-.22.72-.41,1.45-.59,2.18,0,.13-.1.55-.2.9-.05.19-.1.5-.17.44s0,0,0,0,0,0,0,0a.36.36,0,0,1-.07-.1,2.44,2.44,0,0,1-.17-.52,8.67,8.67,0,0,1-.2-1.44c0-.6,0-1.21,0-1.81s0-1.21.09-1.82a21.68,21.68,0,0,1,.59-3.59,20.51,20.51,0,0,0-.85,3.56q-.13.92-.18,1.83c0,.62,0,1.23,0,1.84a6.9,6.9,0,0,0,.12,1,4,4,0,0,0,.28,1c.15.32.36.45.57.38a.26.26,0,0,0,.12-.09.74.74,0,0,0,.14-.27,11.61,11.61,0,0,0,.25-1.23c.13-.74.29-1.47.46-2.2.08-.34.16-.68.25-1a1.77,1.77,0,0,0,0,.2,11.3,11.3,0,0,0-.14,1.29,8.67,8.67,0,0,0,.07,1.94,2.36,2.36,0,0,0,.58,1.23A.39.39,0,0,0,25,111a.44.44,0,0,0,.27-.19,2,2,0,0,0,.23-.61,7.31,7.31,0,0,0,.13-.88c.14-.92.35-1.91.51-2.89,0,.24,0,.48,0,.72s0,.39.07.59a1.31,1.31,0,0,0,.19.55.19.19,0,0,0,.15.1.25.25,0,0,0,.22-.1,1.74,1.74,0,0,0,.24-.51c.14-.45.26-1,.3-1.2l.2-.86-.29.84a8.17,8.17,0,0,1-.55,1.47.87.87,0,0,1-.08.1,1.34,1.34,0,0,1-.09-.43,5.44,5.44,0,0,1,0-.57c0-.29,0-.57,0-.86l0-.74c0-.25,0-.5,0-.74s0-.6,0-.9,0-.9,0-1.34,0-1.08,0-1.61c0-.05,0-.07,0-.07s0,0,0,0a.11.11,0,0,0,0,.05c0,.11-.08.54-.11.71,0-.1.07-.27.11-.42,0,.65-.11,1.31-.18,2-.05.49-.1,1-.14,1.49,0,.26,0,.53-.05.8v.19Zm-10.57,6.86h0s0,0,0,0Zm-.06-7.91h0l-.66,1.69c-.08.22-.15.45-.22.67-.15.52-.28,1-.44,1.56a3.14,3.14,0,0,1-.4.86.53.53,0,0,1-.11.14l0,0s0,0,0,0a1.44,1.44,0,0,1-.07-.31c0-.29,0-.47,0-.62s0-.42,0-.93c0-.82,0-1.65,0-2.47a14.8,14.8,0,0,1,.2-1.63c.07-.37.29-.78.4-1.18a1.23,1.23,0,0,0,.07-.53,1.43,1.43,0,0,1-.11.52c-.15.39-.4.79-.5,1.16a14.18,14.18,0,0,0-.36,2.05c-.07.69-.1,1.39-.12,2.08,0,.52,0,.7,0,.95s0,.34.05.64a1.57,1.57,0,0,0,.12.46.37.37,0,0,0,.22.21.39.39,0,0,0,.42-.12,3.13,3.13,0,0,0,.57-1.19c.14-.51.24-1,.37-1.58.05-.23.11-.45.17-.67.13-.44.27-.88.41-1.32-.1,1.21-.1,2.42-.11,3.53,0,.48-.16,1.81-.1,2.87a2.87,2.87,0,0,0,.26,1.24.17.17,0,0,0,.1.07.16.16,0,0,0,.09,0,.33.33,0,0,0,.09-.12,6.1,6.1,0,0,0,.38-.93c0-.16.08-.32.11-.48.14-.65.24-1.3.39-1.94s.4-1.54.63-2.31c0,.43-.05.87-.06,1.31,0,.62,0,1.24.06,1.84a7.23,7.23,0,0,0,.16,1.12,1.3,1.3,0,0,0,.14.37.46.46,0,0,0,.17.17.37.37,0,0,0,.32,0,.39.39,0,0,0,.21-.21,2,2,0,0,0,.14-.59c0-.29,0-.6.08-.81.07-.39.13-.79.2-1.19a4.37,4.37,0,0,1,.09-.5,22.69,22.69,0,0,1,.69-2.31,19.26,19.26,0,0,0-.27,3.19,2.92,2.92,0,0,0,.71,2.21c.29.21.48.13.62-.07a2.73,2.73,0,0,0,.3-.93c.16-.75.33-1.48.52-2.2s.41-1.43.65-2.16c-.25.73-.48,1.44-.68,2.15s-.4,1.44-.57,2.19a2.66,2.66,0,0,1-.29.89c-.11.16-.27.22-.49,0a2.84,2.84,0,0,1-.63-2.13,23,23,0,0,1,.57-4.47c.14-.42.28-.85.39-1.27a9.06,9.06,0,0,0,.32-2.19v0a.1.1,0,0,1,0,0,.14.14,0,0,0-.06-.07.12.12,0,0,0-.13,0s0,0-.05.06,0,0,0,.06a4.82,4.82,0,0,1-.05.61c0,.19-.07.39-.11.58-.09.45-.2.9-.29,1.35l0,.1c-.47,1.5-1.13,3-1.44,4.37,0,.17-.07.34-.1.51-.07.39-.13.79-.21,1.19s-.05.69-.11,1c0,.06,0,.12,0,.18l0,.1,0,0h0s0,0,0,0l0-.08c0-.09-.06-.21-.09-.33a9.13,9.13,0,0,1-.11-.93,17.67,17.67,0,0,1,0-1.79c0-.92.09-1.84.18-2.71,0-.13,0-.26,0-.39l.54-1.69a9.21,9.21,0,0,0,.28-1.3,1.05,1.05,0,0,0,0-.31.35.35,0,0,0-.08-.15.28.28,0,0,0-.2-.09.27.27,0,0,0-.24.18,3.85,3.85,0,0,0-.17.78c-.13.5-.24,1-.34,1.45s-.15.86-.2,1.32-.3,1-.45,1.49c-.22.78-.43,1.56-.61,2.35s-.23,1.3-.36,1.94c0,.16-.07.32-.1.48s-.17.51-.28.76a3.12,3.12,0,0,1-.17-1c-.07-1,.06-2.37.05-2.85a39.07,39.07,0,0,1,.09-4l.1-.3.27-.9-.33.86c0-.06,0-.12,0-.19a9.41,9.41,0,0,1,.78-2.83c0,.13-.1.36-.12.47s-.06.42-.08.63a3,3,0,0,0,0,.42,3,3,0,0,1,0-.42c0-.21.06-.42.09-.63s.13-.46.15-.55v0s0,0,0,0a.07.07,0,0,0,0,0,9.58,9.58,0,0,0-.87,2.9c0,.19-.05.38-.07.58Z" transform="translate(-1.32 -7.03)"/><path class="cls-5" d="M23.25,58.63h0a.33.33,0,0,1,.1,0h0s0,0,0,0h0s0,0,0,.06,0,.07,0,.11a.19.19,0,0,0,0,.08V59s0,.06,0,.08a.52.52,0,0,0,.09.21s0,.06.07.07.05,0,.08,0,.07,0,.1-.13-.12,0-.11,0,0,0,0,0h0s0,0,0,0a1,1,0,0,0,0-.1s0-.08,0-.12V58.9s0-.07,0-.1a1,1,0,0,0-.08-.2c-.05-.05-.06-.1-.11-.09s0,0,0,0l0,0a.17.17,0,0,0-.06.11Zm2.43-.38h0c-.14,0-.28.08-.4.27a1.07,1.07,0,0,0-.13.31,1,1,0,0,0,0,.29.5.5,0,0,0,0,.12.68.68,0,0,0,.08.19c.08.1.16.16.27.14a.27.27,0,0,0,.16,0,.59.59,0,0,0,.15-.16A1.6,1.6,0,0,0,26,59a.91.91,0,0,1-.47.31h0s0,0,0,0a.37.37,0,0,1,0-.11s0-.07,0-.12,0-.15,0-.23a.92.92,0,0,0,0-.16c0-.18.06-.31.17-.34Zm10.15,2.09h0v0s0-.08,0-.14a1.16,1.16,0,0,1,.05-.42.39.39,0,0,1,.06-.13s0,0,0,0,0,0,.05.06a.13.13,0,0,0,0-.1c-.05,0-.13,0-.22.14a1.69,1.69,0,0,0-.17.3.68.68,0,0,0,0,.36.32.32,0,0,0,.12.22.53.53,0,0,0,.45.07,1.11,1.11,0,0,0,.32-.17,1.41,1.41,0,0,0,.24-.2,2.09,2.09,0,0,0,.2-.22c.24-.29.43-.59.52-.71l-.5.37-.5.35-.2.11a.76.76,0,0,1-.18.09l-.1,0Zm-4.24-.08h0c-.25-.08-.48.2-.61.53a1.09,1.09,0,0,0-.08.63.44.44,0,0,0,.21.33.52.52,0,0,0,.41,0,1.15,1.15,0,0,0,.4-.22,4.48,4.48,0,0,0,.6-.56,5.92,5.92,0,0,1,.55-.56,3.87,3.87,0,0,0-.69.41c-.21.15-.44.3-.65.42a2.08,2.08,0,0,1-.32.14.19.19,0,0,1-.13,0s0,0,0-.06a.21.21,0,0,1,0-.12,1.37,1.37,0,0,1,0-.53c.06-.24.17-.43.36-.43Zm-3.52-.19h0c0-.08-.32.29-.56.74a2.68,2.68,0,0,0-.24.6.87.87,0,0,0,0,.48.46.46,0,0,0,.32.3.65.65,0,0,0,.43,0,1.65,1.65,0,0,0,.41-.33,7.78,7.78,0,0,0,.53-.76,4.27,4.27,0,0,1,.49-.74,4.53,4.53,0,0,0-.65.63c-.2.22-.41.45-.61.63a2,2,0,0,1-.28.19.33.33,0,0,1-.23.05c-.06,0-.07-.08-.08-.16a1.89,1.89,0,0,1,.08-.59,6.48,6.48,0,0,1,.2-.62c.1-.25.18-.41.2-.37Zm5.58,2.32h0a.78.78,0,0,0-.25.48.6.6,0,0,0,0,.27.35.35,0,0,0,.43.25.82.82,0,0,0,.28-.11,1.4,1.4,0,0,0,.2-.16,2.57,2.57,0,0,0,.28-.37c.14-.21.25-.42.35-.57-.13.09-.28.21-.44.34s-.28.22-.43.32l-.17.11-.16.08h0L33.66,63a.65.65,0,0,1,0-.21.66.66,0,0,1,0-.39ZM28,64.62Zm0,0h0v0h0s0,0,0,0Zm-.21-1.28h0l0,.11a3.53,3.53,0,0,0-.1.43,3.71,3.71,0,0,0-.06.45,1.91,1.91,0,0,0,0,.24.8.8,0,0,0,0,.18.27.27,0,0,0,.14.19.4.4,0,0,0,.24,0,.62.62,0,0,0,.3-.23,1.9,1.9,0,0,0,.2-.34c.1-.23.16-.45.2-.54a6.06,6.06,0,0,1-.52.6,1,1,0,0,1-.18.13h0v0q0-.09,0-.21L28,63.89c0-.22-.06-.41-.07-.49v0c0-.21,0-.19,0,0Zm3.24.36h0a2.27,2.27,0,0,0-.19.48.89.89,0,0,0,0,.22,1.11,1.11,0,0,0,0,.32A.73.73,0,0,0,31,65a.48.48,0,0,0,.09.11.45.45,0,0,0,.34.14.69.69,0,0,0,.29-.09,1.41,1.41,0,0,0,.41-.45,1.7,1.7,0,0,1-.41.2.33.33,0,0,1-.31,0s0,0,0,0a.36.36,0,0,1-.05-.09.93.93,0,0,1-.08-.2c0-.1-.05-.19-.07-.31a3.52,3.52,0,0,1-.05-.5Z" transform="translate(-1.32 -7.03)"/><path class="cls-13" d="M35.87,15.84a1,1,0,1,1-1,1,1,1,0,0,1,1-1Z" transform="translate(-1.32 -7.03)"/><path class="cls-17" d="M35.2,16.86a.55.55,0,1,1-.58.55.57.57,0,0,1,.58-.55Z" transform="translate(-1.32 -7.03)"/><path class="cls-5" d="M40.71,8.68s.08,0,.07-.06-.2,0-.23.05c-.26.13-.5.24-.77.35a11,11,0,0,1-2.09.64c-.55.11-1.11.06-1.66.13a5.1,5.1,0,0,0-.78,0,4.1,4.1,0,0,0-1.27.79,15.4,15.4,0,0,0-1.76,1.76,4.22,4.22,0,0,0-1,1.38c-.09.28-.21.44,0,.71s.79-.21,1-.34c.79-.6,1.12-1.71,1.89-2.35a8.9,8.9,0,0,1,1.66-1.14c1.19-.58,2.5-.77,3.71-1.25A6.22,6.22,0,0,0,40,9l.75-.36Z" transform="translate(-1.32 -7.03)"/><path class="cls-7" d="M34.42,9.35c-2.56,1.73-5.42,4.17-5.05,5.2A2.43,2.43,0,0,0,30.68,16c-.07-.16-.11-.32-.18-.5a3,3,0,0,1,.36-2.54,3.65,3.65,0,0,1,.4-.69A11.9,11.9,0,0,1,32.66,11c.18-.17.32-.38.5-.55s.41-.24.59-.4.45-.45.67-.67Z" transform="translate(-1.32 -7.03)"/><path class="cls-18" d="M51.53,12.25A7.57,7.57,0,0,1,52.76,17c-.07.45-.28,1-.39,1.48a17.7,17.7,0,0,1,7.82,7c3.18,5.94.46-3.25-1-5.44-1.12-1.64-3.75-5.56-7.64-7.81Z" transform="translate(-1.32 -7.03)"/><path class="cls-8" d="M58.79,19.51a5.83,5.83,0,0,1-.27,1.89,2.73,2.73,0,0,1-.59,1.07,13.22,13.22,0,0,1,2.26,3c3.18,5.94.46-3.25-1-5.44l-.38-.55Z" transform="translate(-1.32 -7.03)"/><path class="cls-19" d="M40.28,17.61a5.72,5.72,0,0,1,1.45-.67,9.76,9.76,0,0,1,2.34-.42,12.28,12.28,0,0,1,2.63.14c.32.05.64.12,1,.19l1,.24c.59.17,1.22.37,1.88.63A23,23,0,0,1,53.24,19c.82.44,1.68.95,2.58,1.55a29.9,29.9,0,0,0-3-2,19.91,19.91,0,0,0-2.16-1.09,16.69,16.69,0,0,0-1.91-.7c-.33-.1-.66-.18-1-.25a10,10,0,0,0-1-.17,10.81,10.81,0,0,0-2.71,0,8.77,8.77,0,0,0-2.36.57,5.55,5.55,0,0,0-1.41.78Z" transform="translate(-1.32 -7.03)"/><path class="cls-9" d="M32.45,20.21c-.13-1-1.45-.32-1.78.26a5.64,5.64,0,0,0,0,3.76c.18.6.61,1.9,1.28,2.12.22.08.21-.58.62-.17,1,1.05,1.63,2.46,2.7,3.54.39.39.73-.12,1.15.13.8.48,1,1.66,1.59,2.34s1,.47,1.64.62c.2.06.35.51.49.67A1.7,1.7,0,0,0,41,34c.36.09.17-.65.53-.53s.53.89.89.53.27-1.32.44-1.81a7.18,7.18,0,0,0,.26-2.35c0-1.06.37-2.63-.26-3.58-.35-.53-.93-1-1.24-1.46s-.06-.81-.35-1.11c-.6-.59-2.3-.57-3.1-.71a8,8,0,0,1-1.9-1.1c-.42-.25-1,0-1.42-.22-.9-.45-1-1.43-2-1.77l-.34.36Z" transform="translate(-1.32 -7.03)"/><path class="cls-20" d="M21.57,60.77l-.23.06-.23.06h0l.24-.06.23-.05v0Z" transform="translate(-1.32 -7.03)"/><path class="cls-21" d="M3.23,71s58.25-10.88,64-13.91c0,0-.91,2.22-.51,2.22s1.42,1.31.51,1.31S1.32,74.76,1.32,74.76s.2-1.91.6-1.91S3.23,71,3.23,71Z" transform="translate(-1.32 -7.03)"/><path class="cls-22" d="M22.88,64.63c-.65.07-.6,1.16-.31,1.58a11.77,11.77,0,0,0,2.39,2c.26.21.67.33.86.59s.49.78.31,1.15-.65.47-.88.7c0,0,.21.39.27.41a3.18,3.18,0,0,1,.32.16c.15.08.38,0,.54.07a1.49,1.49,0,0,0,1.17-.12c.23-.15.34-.54.55-.64s.68,0,.83-.34a1.52,1.52,0,0,0-.05-.92c0-.06-.15-.32-.09-.39S29,69,29,69s.47.33.63.25.07-.19.09-.24a1.63,1.63,0,0,0,0-.79A3.15,3.15,0,0,0,29.12,67c-.36-.55-.62-1.17-1-1.68s-1.44-.62-2.09-.71a2.82,2.82,0,0,1-.41,0c-.4-.13-.56-.56-1.08-.45s-1,.55-1.48.3" transform="translate(-1.32 -7.03)"/><path class="cls-22" d="M39.7,59.83A3.35,3.35,0,0,0,38.26,61a8.22,8.22,0,0,1-.59.9c-.42.43-1.29.65-1.37,1.34s.61,1.47.8,2.22c.11.44-.2.66-.31,1A2.15,2.15,0,0,0,37,67.5c.11.24.15.53.46.59a1,1,0,0,0,1.16-.56c.12-.19.33-.31.43-.52s.13-.5.26-.64.28.09.34.12c.27.17.48.5.78.57s.42-.55.5-.71.34.08.44,0a1.61,1.61,0,0,0,.19-.49,3.87,3.87,0,0,0,0-1.4,6.82,6.82,0,0,0-.19-2.26c-.19-.41-.55-.6-.73-1s-.12-.75-.32-1.07-.53-.58-.8-.47-.38.35-.52.55" transform="translate(-1.32 -7.03)"/></g></g></g></svg>