<svg xmlns="http://www.w3.org/2000/svg" viewBox="0 0 39.42 75.77"><defs><style>.cls-1{fill:#ef0000;}.cls-2{fill:#05b3db;}.cls-3{fill:#023784;}.cls-4{fill:#b70904;}.cls-5{fill:#047ba0;}.cls-6{fill:#0433b7;}.cls-7{fill:#0392c0;}.cls-8{fill:#930303;}.cls-9{fill:#022a5b;}.cls-10{fill:#1858e8;}.cls-11{fill:#755425;}.cls-12{fill:#a37b4b;}.cls-13{fill:#8c6133;}.cls-14{fill:#00891a;}.cls-15{fill:#036b14;}.cls-16{fill:#d09183;}.cls-17{fill:#c16657;}.cls-18{fill:#3d3d3d;}.cls-19{fill:#fff;}.cls-20{fill:#474745;}.cls-21{fill:#d9c68e;}.cls-22{fill:#57a504;}.cls-23{fill:#ff3d36;}.cls-24{fill:#eea800;}.cls-25{fill:#303030;}.cls-26{fill:#f4ccae;}</style></defs><g id="Layer_2" data-name="Layer 2"><g id="Layer_1-2" data-name="Layer 1"><path class="cls-1" d="M14.66,31.8,12,31S-1,73.51.78,74.05s7-18.7,13.88-42.25Z"/><path class="cls-2" d="M3.77,59.36a3.13,3.13,0,0,0,.83.71,1.79,1.79,0,0,0,1.73.08C3.66,68.9,1.72,74.33.78,74.05c-.68-.21.86-6.76,3-14.69Z"/><path class="cls-3" d="M9.44,70.7l1.27.15a.77.77,0,0,0,.85-.68c.61-5.88,4.52-43.44,3.81-43.52s-3.7,19.18-6.59,43.2a.75.75,0,0,0,.66.85Z"/><path class="cls-4" d="M16.14,31l-2.79-.4S6.59,74.78,8.4,74.82s4.23-19.5,7.74-43.8Z"/><path class="cls-5" d="M9.2,60.6a1.67,1.67,0,0,0,1.18.55,2.52,2.52,0,0,0,1.47-.43c-1.36,8.69-2.49,14.11-3.45,14.1-.68,0-.14-6.35.8-14.22Z"/><path class="cls-6" d="M4.33,67.31l1,.24a.51.51,0,0,0,.61-.38c.89-4,6.82-30.47,6.32-30.59S8,49.9,4,66.71a.5.5,0,0,0,.38.6Z"/><path class="cls-1" d="M14.63,32.59l-2.77-.51S7,62.87,4.79,74.06c-.38,1.89,1.48,2.31,1.77.76,1.31-7.08,4.56-22.92,8.07-42.23Z"/><path class="cls-7" d="M4.79,74.06C5.36,71.18,6.1,67,6.89,62.38A1.67,1.67,0,0,0,8,62.87a1.49,1.49,0,0,0,1-.25c-1,5.22-1.84,9.4-2.36,12.2-.29,1.55-2.15,1.13-1.77-.76Z"/><path class="cls-4" d="M6.33,70.86a.07.07,0,0,0,.07-.06L12,40.23a.08.08,0,1,0-.15,0L6.26,70.77a.06.06,0,0,0,.06.08Z"/><path class="cls-8" d="M9.63,68A.08.08,0,0,0,9.71,68l4.73-31.37s0-.08-.06-.08a.06.06,0,0,0-.08.06L9.56,67.94s0,.08.06.08Z"/><path class="cls-4" d="M3.24,66a.08.08,0,0,0,.07,0l7.51-27.3a.07.07,0,0,0-.05-.09.08.08,0,0,0-.09,0L3.17,65.94a.07.07,0,0,0,.05.09Z"/><path class="cls-9" d="M13.45,27,10,26.08S4.79,50.13,5.75,50.37,10.16,40.12,13.45,27Z"/><path class="cls-6" d="M20.22,24.1l-3.3-1.4S6.06,50.32,7,50.7s6.84-11.52,13.25-26.6Z"/><path class="cls-6" d="M15.13,23.07l-3.48-.87S6.47,46.25,7.43,46.49s4.41-10.25,7.7-23.42Z"/><path class="cls-10" d="M19.14,20.63l-3.37-1.21S8.48,42.15,9.41,42.48,14.7,33,19.14,20.63Z"/><path class="cls-11" d="M1.26,36.25A27.46,27.46,0,0,0,13,37.94c1.94-.1,5.95-.46,14-1.58l.26,0c.55-.08,1.19.1,3.18,1.27.64.38,1.4.86,2.28,1.42-.5.66-1,1.29-1.58,1.9a24.75,24.75,0,0,0-3.72-2.15l-.09,0c-8.13,1.12-12.21,1.49-14.2,1.59A29.34,29.34,0,0,1,.25,38.49a11.24,11.24,0,0,1,1-2.24Z"/><path class="cls-12" d="M.19,37.11c-.28.62-.25,1.23.06,1.38s.79-.25,1.07-.87.26-1.23-.06-1.37-.79.24-1.07.86Z"/><path class="cls-11" d="M31.11,39.57c-.28.62-.25,1.23.06,1.37s.79-.24,1.07-.86.26-1.23-.06-1.37-.79.24-1.07.86Z"/><path class="cls-13" d="M.29,37.15c-.24.52-.22,1,.05,1.15s.66-.2.89-.72.21-1-.05-1.15-.66.21-.89.72Z"/><path class="cls-12" d="M.32,37.17c-.22.48-.2.95,0,1.06S1,38,1.2,37.57s.19-1-.05-1.07-.61.19-.83.67Z"/><path class="cls-13" d="M.42,37.21c-.17.38-.16.75,0,.83s.48-.15.65-.52.15-.74,0-.83-.47.15-.64.52Z"/><path class="cls-12" d="M.45,37.23c-.15.34-.14.67,0,.75s.43-.13.59-.47.14-.68,0-.75-.43.13-.58.47Z"/><path class="cls-11" d="M30.36,30a18.31,18.31,0,0,1-9.07,8.12l.29.69A19,19,0,0,0,31,30.33L30.36,30Z"/><path class="cls-14" d="M25.28,33.41a3.31,3.31,0,0,0,.86,2,3.35,3.35,0,0,0,.87-2,3.35,3.35,0,0,0-.86-2,3.29,3.29,0,0,0-.87,2Z"/><path class="cls-15" d="M25.28,33.41a3.31,3.31,0,0,0,.86,2v-4a3.29,3.29,0,0,0-.87,2Z"/><path class="cls-14" d="M27.55,31.17a3.35,3.35,0,0,0,.86,2,3.29,3.29,0,0,0,.87-2,3.35,3.35,0,0,0-.86-2,3.35,3.35,0,0,0-.87,2Z"/><path class="cls-15" d="M27.55,31.17a3.35,3.35,0,0,0,.86,2v-4a3.35,3.35,0,0,0-.87,2Z"/><path class="cls-14" d="M29.91,29a3.31,3.31,0,0,0,.5,2.13,3.3,3.3,0,0,0,1.2-1.83,3.32,3.32,0,0,0-.51-2.14A3.31,3.31,0,0,0,29.91,29Z"/><path class="cls-15" d="M29.91,29a3.31,3.31,0,0,0,.5,2.13l.69-4A3.31,3.31,0,0,0,29.91,29Z"/><path class="cls-14" d="M30.74,31.37a3.31,3.31,0,0,0-1.55,1.54,3.3,3.3,0,0,0,2.19.06,3.31,3.31,0,0,0,1.55-1.54,3.3,3.3,0,0,0-2.19-.06Z"/><path class="cls-15" d="M30.74,31.37a3.31,3.31,0,0,0-1.55,1.54l3.74-1.48a3.3,3.3,0,0,0-2.19-.06Z"/><path class="cls-14" d="M29,34a3.34,3.34,0,0,0-1.91,1.07,3.29,3.29,0,0,0,2.09.65,3.29,3.29,0,0,0,1.92-1.07A3.36,3.36,0,0,0,29,34Z"/><path class="cls-15" d="M29,34a3.34,3.34,0,0,0-1.91,1.07l4-.42A3.36,3.36,0,0,0,29,34Z"/><path class="cls-11" d="M37.18,38.83a18.25,18.25,0,0,0-12.1-1.35l-.17-.73a19,19,0,0,1,12.59,1.4l-.32.68Z"/><path class="cls-14" d="M31,39a3.36,3.36,0,0,1-.47-2.14,2.77,2.77,0,0,1,2.35,3.28A3.31,3.31,0,0,1,31,39Z"/><path class="cls-15" d="M31,39a3.36,3.36,0,0,1-.47-2.14l2.35,3.28A3.31,3.31,0,0,1,31,39Z"/><path class="cls-14" d="M34.19,39.48a3.36,3.36,0,0,1-.47-2.14,3.33,3.33,0,0,1,1.88,1.13,3.29,3.29,0,0,1,.47,2.14,3.33,3.33,0,0,1-1.88-1.13Z"/><path class="cls-15" d="M34.19,39.48a3.36,3.36,0,0,1-.47-2.14l2.35,3.27a3.33,3.33,0,0,1-1.88-1.13Z"/><path class="cls-14" d="M37.38,39.89a3.33,3.33,0,0,1-.83-2,3.31,3.31,0,0,1,2,.8,3.26,3.26,0,0,1,.83,2,3.31,3.31,0,0,1-2-.8Z"/><path class="cls-15" d="M37.38,39.89a3.33,3.33,0,0,1-.83-2l2.87,2.83a3.31,3.31,0,0,1-2-.8Z"/><path class="cls-14" d="M36.68,37.47a3.27,3.27,0,0,1-2.16-.36,3.33,3.33,0,0,1,1.75-1.32,3.33,3.33,0,0,1,2.16.36,3.33,3.33,0,0,1-1.75,1.32Z"/><path class="cls-15" d="M36.68,37.47a3.27,3.27,0,0,1-2.16-.36l3.91-1a3.33,3.33,0,0,1-1.75,1.32Z"/><path class="cls-14" d="M33.77,36.32a3.27,3.27,0,0,1-2.17.24,3.28,3.28,0,0,1,1.32-1.75,3.37,3.37,0,0,1,2.18-.24,3.32,3.32,0,0,1-1.33,1.75Z"/><path class="cls-15" d="M33.77,36.32a3.27,3.27,0,0,1-2.17.24l3.5-2a3.32,3.32,0,0,1-1.33,1.75Z"/><path class="cls-16" d="M15.54,35.15l.05,1.71c-.6.44-.55.66-.6.94l.88-.08A3,3,0,0,1,17,40.33a.24.24,0,0,0,.46.09A2.31,2.31,0,0,0,17.09,38a2.41,2.41,0,0,1,1.51,2,.24.24,0,0,0,.47,0c.16-1.14-.69-2.4-2.68-3.13l.09-1.72c0-.38-.94-.38-.94,0Z"/><path class="cls-17" d="M18.36,34.84l.06,1.72a1.16,1.16,0,0,0-.62,1l.89-.1A3,3,0,0,1,19.78,40a.24.24,0,0,0,.46.09,2.31,2.31,0,0,0-.32-2.38,2.43,2.43,0,0,1,1.51,2,.24.24,0,0,0,.47,0c.16-1.15-.69-2.4-2.68-3.13l.09-1.73c0-.37-.95-.37-.95,0Z"/><path class="cls-18" d="M18.85,39.92l0-.13.28,0a2.17,2.17,0,0,1,0,.36.82.82,0,0,1-.08.29.39.39,0,0,1-.12.17s-.07,0-.08,0,0-.07,0-.14a2,2,0,0,0,0-.27,2.19,2.19,0,0,0,0-.28Z"/><path class="cls-18" d="M17.07,40.77a1,1,0,0,0,.1-.27.88.88,0,0,0,0-.27.64.64,0,0,0,0-.09v0l.28,0a.8.8,0,0,1,0,.41.87.87,0,0,1-.15.29c-.12.14-.24.18-.26.15s0-.06.06-.14Z"/><path class="cls-18" d="M20,39.91a1,1,0,0,0,0-.13l.28,0a1.16,1.16,0,0,1-.28.65c-.13.14-.24.18-.26.15s.11-.21.18-.41a1.21,1.21,0,0,0,.07-.29Z"/><path class="cls-18" d="M21.72,39.84a2.85,2.85,0,0,0,0-.31l0-.14.28,0a2.41,2.41,0,0,1,0,.38.93.93,0,0,1-.09.32.47.47,0,0,1-.14.18c-.05,0-.08,0-.09,0s0-.06,0-.14a1.27,1.27,0,0,0,0-.29Z"/><path class="cls-4" d="M21.6,27.35s-.84,5.69-2.14,7.47a1.35,1.35,0,0,1-1.55,0C16.49,33,15.32,27.2,15.32,27.2l6.28.15Z"/><path class="cls-4" d="M23.43,11.92c-7.5.71-5.58,11.18-4.39,19.46,9.44-3.84,11.9-20.17,4.39-19.46Z"/><path class="cls-1" d="M11.24,20c-.52,7.25.44,13.27,2.64,13.63,4.07.67,9.43-3.39,11.65-10.32,1.58-5,1.69-10,.54-12-.72-1.28-7.66-3-8.79-2.5-3.39,1.41-5.65,5.74-6,11.2Z"/><path class="cls-1" d="M26.62,13V8.23l1.94-5.12h0A2.21,2.21,0,0,0,26.82.23c-2.05-.33-4.92-.47-7,.76-3.56,2.12-5.51,10.06-5.51,10.06L26.62,13Z"/><path class="cls-19" d="M21.7,3.86A3.41,3.41,0,0,0,25,7.36a2.58,2.58,0,0,0,3.15-2.58c.18-1.73.28-3.37-2.5-3.67A3.43,3.43,0,0,0,21.7,3.86Z"/><path class="cls-20" d="M23.6,2.57a.77.77,0,1,0,.77-.77.77.77,0,0,0-.77.77Z"/><path class="cls-21" d="M23.73,2.57a.64.64,0,1,0,.64-.63.63.63,0,0,0-.64.63Z"/><path d="M24.1,2.57a.27.27,0,1,0,.54,0,.27.27,0,0,0-.54,0Z"/><path class="cls-1" d="M19.21,28s-.84,5.69-2.14,7.47a1.35,1.35,0,0,1-1.55,0c-1.42-1.78-2.59-7.63-2.59-7.63l6.28.15Z"/><path class="cls-3" d="M17.62,21.87c-3.5,7.76-5.69,14.35-4.9,14.7S17,30.92,20.48,23.16a1.58,1.58,0,1,0-2.86-1.29Z"/><path class="cls-3" d="M14.18,25.43c-3.5,7.77-5.69,14.35-4.9,14.71S13.54,34.49,17,26.72a1.58,1.58,0,1,0-2.86-1.29Z"/><path class="cls-3" d="M9.88,28.62c-2.89,8-4.57,14.74-3.76,15s3.82-6,6.71-14a1.58,1.58,0,1,0-2.95-1.06Z"/><path class="cls-3" d="M7.9,27.65C5.28,35.75,3.82,42.54,4.65,42.8s3.61-6.09,6.23-14.19a1.58,1.58,0,1,0-3-1Z"/><path class="cls-7" d="M17.28,18.64c-3.35,7.75-5.13,14.46-4,15s4.79-5.31,8.14-13c.94-2.18-3.21-4.13-4.15-1.95Z"/><path class="cls-7" d="M17.77,17.44c-1.35,3.8-3.23,7-4.27,9.46s-1.31,4.14,0,4.6,3.61-.68,5.54-3.14a17.56,17.56,0,0,0,3.55-10.23c0-1.14-1.12-1.64-2.2-1.81s-2.16.07-2.59,1.12Z"/><path class="cls-7" d="M13.84,20.62c-3.35,7.75-5.13,14.46-4,15s4.79-5.31,8.14-13c.94-2.18-3.21-4.13-4.15-1.95Z"/><path class="cls-7" d="M11.47,21.16c-3.35,7.75-5.13,14.47-4,15s4.79-5.3,8.14-13c.94-2.18-3.2-4.12-4.15-1.95Z"/><path class="cls-7" d="M9.79,21.94c-3.35,7.75-5.14,14.47-4,15s4.79-5.3,8.14-13c.94-2.18-3.21-4.12-4.15-1.95Z"/><path class="cls-22" d="M17.94,15.36c-3.5,7.76-5.37,14.49-4.19,15s5-5.33,8.47-13.09c1-2.19-3.29-4.11-4.28-1.93Z"/><path class="cls-22" d="M18.45,14.16C17,18,15.08,21.17,14,23.64s-1.37,4.15,0,4.6,3.73-.7,5.73-3.16A17.26,17.26,0,0,0,23.4,14.83c0-1.14-1.15-1.64-2.26-1.8s-2.24.07-2.69,1.13Z"/><path class="cls-22" d="M14.38,17.36c-3.5,7.76-5.38,14.49-4.2,15s5-5.33,8.48-13.1c1-2.18-3.3-4.11-4.28-1.92Z"/><path class="cls-22" d="M11.92,17.91c-3.49,7.77-5.37,14.49-4.19,15s5-5.33,8.47-13.09c1-2.19-3.29-4.11-4.28-1.93Z"/><path class="cls-22" d="M10.18,18.7C6.68,26.46,4.8,33.19,6,33.72s5-5.33,8.47-13.09c1-2.19-3.3-4.12-4.28-1.93Z"/><path class="cls-23" d="M20.28,10.48c-9.1-2.51-11.85,8.63-14.2,18a1,1,0,0,0,1.07,1.26c12.7-1,22.32-16.74,13.13-19.27Z"/><path class="cls-24" d="M6.08,28.49c.27-1.08.54-2.18.83-3.28C6.72,27,6.93,28.33,8,28.33a16.93,16.93,0,0,0,9.77-3.09A19.54,19.54,0,0,1,7.15,29.75a1,1,0,0,1-1.07-1.26Z"/><path d="M29.4,7.44c-.73,1.18-2.09.82-2.78.79a4.39,4.39,0,0,1,0-3.1A3,3,0,0,1,29.4,7.44Z"/><path class="cls-25" d="M28.67,2.35a5.43,5.43,0,0,1,1,8.2,3.6,3.6,0,0,0-.32-3.11c-2.06-.17-1.25-1.67-2.77-2.31,0,0,.63-2.9,2-2.78Z"/><path class="cls-26" d="M30.18,6.71c-.4-.46-.34-1.14-.83-1.55a5,5,0,0,0-.81-.47,2.58,2.58,0,0,1-.82-.79A1.78,1.78,0,0,1,27.5,3a1.36,1.36,0,0,1,1.17-.68A5.42,5.42,0,0,1,31.13,7a.9.9,0,0,1-.95-.31Z"/></g></g></svg>