<svg xmlns="http://www.w3.org/2000/svg" viewBox="0 0 74.32 80.8"><defs><style>.cls-1{fill:#9a4e7b;}.cls-2{fill:#b46699;}.cls-3{fill:#222f39;}.cls-4{fill:#485769;}.cls-5{fill:#192228;}.cls-6{fill:#2c3741;}.cls-7{fill:#90b1ce;}.cls-8{fill:#15222b;}.cls-9{fill:#3d4a59;}.cls-10{fill:#f49223;}.cls-11{fill:#121617;}.cls-12{fill:#7a92a9;}.cls-13{fill:#7b94ae;}.cls-14{fill:#adc5da;}.cls-15{fill:#374451;}.cls-16{fill:#252e35;}.cls-17{fill:#f5af55;}.cls-18{fill:#595c5c;}</style></defs><g id="Layer_2" data-name="Layer 2"><g id="Layer_1-2" data-name="Layer 1"><path class="cls-1" d="M52.08,65.32l1.8,3.42a1.6,1.6,0,0,0,1.52.84l6-.39a.74.74,0,0,1,.8.61c0,.2,0,.39-.33.48-.78.22-4.44.71-4.44.71a27.59,27.59,0,0,0,4.2,1c.91,0,1.55,1.27-.42,1.27s-6.09-.9-7.08-2c0,0,2.53,2.14,1.89,2.71s-1.56,0-2.38-1.16A5.39,5.39,0,0,0,52,71.66a3.71,3.71,0,0,0-.87-.08c-.8,0-3.26,1.46-3.54.89s3.29-2,3.29-3a21.32,21.32,0,0,0-1.48-4.19h2.65"/><path class="cls-2" d="M47.09,68.91l1.9,3.6a1.28,1.28,0,0,0,1.23.68l6.24-.41a.76.76,0,0,1,.8.61.4.4,0,0,1-.34.48c-.77.22-4.44.72-4.44.72a22,22,0,0,0,3.84,1c.92,0,1.55,1.27-.42,1.27A20,20,0,0,1,49,75.5s.42,1.83-.21,2.4-1.84.64-1.73-.53a9.49,9.49,0,0,0,0-2s.11-.21-.7-.21-3.13.49-3.41-.07,3-1.06,3-2a21.22,21.22,0,0,0-1.48-4.2Z"/><path class="cls-3" d="M2.35,80.65c2.38-.56,9.84-7.85,13.32-11.36,6.49-1.78,14.27-3.36,18.5-4.17l3.12-.57s-.81-.49-2.1-1.21C31.3,61.17,23,56.85,19.43,57.29a2.31,2.31,0,0,0-1,.31c-.4.25-1,.62-1.65,1.08C11.46,62.28-.83,71.4,3.11,71.87a19.41,19.41,0,0,0,5.05-.69L1.53,77.37c-2,1.91-2.33,4,.82,3.28"/><path class="cls-4" d="M18.44,56.75l1,.54,13.26,7.08,1.19.63.29.12a21.43,21.43,0,0,0,8.56,1.82c.28.42.62.92,1,1.38a6.85,6.85,0,0,0,1.07,1.23c.85.63,2.33-.64,2.33-.64L47.65,66c.39-.15.76-.31,1.1-.48a7.85,7.85,0,0,0,1.62,1.62c.84.44,2-1.15,2-1.15l.74-4c.28-.37.42-.59.42-.59s8-3.17,17.34-14.59a14.83,14.83,0,0,0,2.92-6.09c2.36-10.06-4-22.77-5.68-25.94A2,2,0,0,1,68,13.16c1.14-3.14,3.1-5.6,2.51-9.57C70.19,1.36,68.26,0,64.66,0S59.57,3.21,58,5.8C56.18,9,54.81,17,52.9,20c-1.36,2.13-5.68,5.78-8,7.67h0c-.9.74-1.5,1.21-1.5,1.21L18.44,56.75"/><path class="cls-5" d="M15.32,66.84a1,1,0,0,1-1.08-1c-.27-1.91,1.09-4.72,2.61-7.17l.08,0c-1.28,2.24-2.31,4.66-2.08,6.37a1,1,0,0,0,1.06,1c1.52,0,4.21-2,5.37-2.87A8.86,8.86,0,0,0,21.82,65c.27.71,1.08,1,2.21,1,2.1,0,5.3-1,8-2l.67.36h0l.19.1c-2.93,1.11-6.8,2.37-9.24,2.37-1.15,0-2-.28-2.26-1A9.32,9.32,0,0,1,20.82,64c-1.18.9-3.94,2.87-5.5,2.87"/><path class="cls-6" d="M33.13,64.37h-.44L32,64c2.74-1,5-2,5-2,.1.83.51,1.17,1.1,1.17,2.5,0,8.3-6.1,8.3-6.1a1.66,1.66,0,0,0,1.47.68c3.08,0,9-4.94,10.41-7.17,1.56-2.47,4.58-7.12,1.14-13.86,4.26,7.2,1,12.14-.69,14.72C57.27,53.63,51.2,58.57,48,58.57a1.7,1.7,0,0,1-1.5-.68S40.6,64,38,64c-.6,0-1-.34-1.13-1.17,0,0-.45.21-1.2.52s-1.54.64-2.56,1h0"/><path class="cls-7" d="M14.85,65c.35,2.61,4.84-.65,6.43-1.88A8.86,8.86,0,0,0,21.82,65C23.09,68.38,37,62,37,62c.56,4.37,9.4-4.93,9.4-4.93,1.94,2.82,10.19-3.81,11.88-6.49s5.1-7.92.13-15.6c-5.92-9.16-12-8.54-12-8.54-3.37,1.15-11.5,8.5-16.6,13.77h0c-.85.88-1.67,1.74-2.44,2.56h0c-.72.76-1.39,1.49-2,2.17-1.64,1.8-2.92,3.28-3.61,4.12-3,3.59-1.59,4.75-1.59,4.75-1.79,2.44-5.71,8-5.28,11.21"/><path class="cls-7" d="M69.48,9.15s.68-.22.56-1.26c-.17-1.41-1.11-1-1.11-1S68.33,6,67.6,6.2,66,6.87,66.3,7.46s3.18,1.69,3.18,1.69"/><path class="cls-8" d="M66,7.78c.8,1,2.45,3.25,3,4.18a.16.16,0,0,0,.28,0,4,4,0,0,0,.47-3.07A9,9,0,0,1,66.2,7.46c-.07,0-.41.09-.24.32Z"/><path class="cls-9" d="M63,5.63c-.58,0-1-.72-1-1.61s.46-1.62,1-1.62S64,3.13,64,4s-.46,1.61-1,1.61m0-2.9c-.46,0-.83.58-.83,1.29s.37,1.29.83,1.29.82-.58.82-1.29S63.44,2.73,63,2.73"/><path class="cls-10" d="M62.16,4c0,.71.37,1.29.83,1.29s.82-.58.82-1.29S63.44,2.73,63,2.73s-.83.58-.83,1.29"/><path class="cls-11" d="M62.65,4.23c0,.35.15.63.34.63s.34-.28.34-.63-.16-.64-.34-.64-.34.29-.34.64"/><path class="cls-8" d="M28.73,46.32C27.4,50.88,32.89,49.51,33,49.5s-2.09,3-.21,4.15,5.5-2.18,5.5-2.18c-4.3,0-4-3.45-4-3.45-6.06,1.34-3.88-3.25-3.88-3.25-2.53.92-.57-4.59-.57-4.59-.85.88-1.67,1.74-2.44,2.56h0c-1.68,3.89,1.39,3.57,1.39,3.57Z"/><path class="cls-12" d="M68.33,8.1h0c-.08,0-.13-.22-.09-.45s.12-.41.21-.41h0c.09,0,.13.21.1.45s-.13.41-.21.41"/><path class="cls-12" d="M68.82,8.19h0c-.07,0-.1-.18-.07-.38s.1-.34.17-.34h0c.07,0,.1.18.07.38s-.1.34-.17.34"/><path class="cls-13" d="M21.28,63.12l5.56-6.67s4.68.83,1.53,1.55-7.09,5.12-7.09,5.12"/><path class="cls-13" d="M18.64,59.78l5.51-7s4.53,1,1.46,1.67-7,5.32-7,5.32"/><path class="cls-13" d="M26.68,62.68l4.9-3.6s2.91,1.32.89,1.32h-.2c-2.24,0-5.59,2.28-5.59,2.28"/><path class="cls-8" d="M25.42,53.48s-2.43,1.69-2,2.85,3.91.87,3.91.87.33,3.22,2.35,3.4c5,.46,6.72-1.59,6.77-1.65-4.24,1.66-2.88-1.75-2.88-1.75-4.23,1.4-4.65-4.57-4.65-4.57-3.09.06-2.07-3.7-2.07-3.7-1.76-.63-1.51-4-1.51-4-1.64,1.8-2.92,3.28-3.61,4.12-.64,3.49,3.7,4.44,3.7,4.44Z"/><path class="cls-14" d="M36.44,40.73s-.24-7.91,9.94-12c0,0-7.79,7.08-9.94,12"/><path class="cls-15" d="M43.69,68.32h0c-.34-.46-.68-1-1-1.38h-.28a21.65,21.65,0,0,1-8.28-1.82L33.88,65l-1-.53.25-.1h.26c24.78,0,40.41-23.64,40.41-23.64a14.83,14.83,0,0,1-2.92,6.09C61.57,58.24,53.54,61.41,53.54,61.41s-.14.22-.42.59l-.74,4s-.9,1.22-1.69,1.22a.71.71,0,0,1-.32-.07,7.85,7.85,0,0,1-1.62-1.62c-.34.17-.71.33-1.1.48h0a6.71,6.71,0,0,0-4,2.32"/><path class="cls-16" d="M32.88,64.47l-.19-.1h.44l-.25.1"/><path class="cls-13" d="M50.08,53.91s5.6-6,7.29-10.47a12.5,12.5,0,0,1-7.29,10.47"/><path class="cls-9" d="M69.54,33.1c-.35,0-.79-.4-1.35-1.43a.88.88,0,0,0,.55.2c.54,0,1.38-.51,2.1-3.19,0,0-.14,4.42-1.3,4.42"/><path class="cls-9" d="M66.81,41.8c-.35,0-.79-.39-1.34-1.42a.85.85,0,0,0,.55.2c.54,0,1.38-.51,2.1-3.19,0,0-.14,4.41-1.31,4.41"/><path class="cls-17" d="M63.33,4.23h0a.77.77,0,0,0-.2-.57c0-.25.1-.45.2-.45s.19.23.19.51-.09.51-.19.51"/><path class="cls-18" d="M63.33,4.23c-.11,0-.2-.23-.2-.51V3.66a.77.77,0,0,1,.2.57h0"/></g></g></svg>