<svg xmlns="http://www.w3.org/2000/svg" viewBox="0 0 73.79 69.64"><defs><style>.cls-1{fill:#63473d;}.cls-2{fill:#543a30;}.cls-3{fill:#c69f71;}.cls-4{fill:#d8b280;}.cls-5{fill:#b58e64;}.cls-6{fill:#664e3b;}.cls-7{fill:#755a44;}.cls-8{fill:#896b50;}.cls-9{fill:#ba483f;}.cls-10{fill:#d35746;}.cls-11{fill:#4f3a2c;}.cls-12{fill:#fff;}.cls-13{fill:#9b7754;}.cls-14{fill:#937358;}.cls-15{fill:#b23f39;}.cls-16{fill:#5b4536;}</style></defs><g id="Layer_2" data-name="Layer 2"><g id="Layer_1-2" data-name="Layer 1"><path class="cls-1" d="M40.45,46.57s3.42,11.74,5.94,16.36c.37.68.82,1.3,2.89,1.08s4.2-1.25,5.22.22a1.49,1.49,0,0,0-1.19-.32c-.12.49-.63.65-1.28.65s-3,.29-3,.29,6.2,2.9,7.76,2.86,1.92.62,2.16,1a2.85,2.85,0,0,0-2.18-.61,1.81,1.81,0,0,1-2.35.36,47.43,47.43,0,0,0-5.24-2.35c1.69,2,3.47,2.22,3.59,3.55a2.39,2.39,0,0,0-1.38-1.06,2.44,2.44,0,0,1-2.29-.83,8.32,8.32,0,0,0-3.19-2c-.73,0-2.9,1.16-4,1.33s-2.37.23-3-.55a2.33,2.33,0,0,0-1.7.63A2.22,2.22,0,0,1,39.17,66a16.72,16.72,0,0,0,3.95-.49c1.32-.41,2.31-.92,2.05-1.73-.94-3-4.22-10.4-5.15-12.9s-1.59-3.28-1.51-5.16c.94.41,1.94.82,1.94.82Z"/><path class="cls-2" d="M45.8,61.76l.38-.08a17.05,17.05,0,0,0,3.73-.61c1.23-.42,2.15-.91,1.87-1.62-1-2.64-4.43-9-5.41-11.19s-1.64-2.83-1.64-4.5c.9.32,1.87.64,1.87.64s3.72,10.23,6.3,14.21c.38.59.83,1.12,2.78.84s3.93-1.3,5,0a1.5,1.5,0,0,0-1.13-.24c-.1.44-.57.61-1.19.64s-2.79.38-2.79.38,6,2.3,7.46,2.19,1.85.47,2.1.77A2.9,2.9,0,0,0,63,62.71a1.82,1.82,0,0,1-2.22.43,47,47,0,0,0-5.06-1.86c1.69,1.67,3.38,1.82,3.55,3a2.23,2.23,0,0,0-1.35-.88,2.34,2.34,0,0,1-2.2-.63,7.87,7.87,0,0,0-3.11-1.67c-.7,0-2.7,1.16-3.7,1.35s-2.24.31-2.85-.35H46l-.16-.33Z"/><path class="cls-3" d="M29.76,43.06s9.08,7,20.28,6.29A23.67,23.67,0,0,0,69.91,36.09c2.37-5,4.09-12.41,2.62-16.75S68.74,12,69.5,8.2l-.38-2.29a9.05,9.05,0,0,0-3.54-4.2A12,12,0,0,0,56.36.35,12.2,12.2,0,0,0,48,5.42c-2.07,2.5-6.65,4.9-9.27,6.59s-17,10-8.94,31.05Z"/><path class="cls-4" d="M70.76,28.17C69.23,36.6,62.47,45,51.27,45.75s-17.69-8.17-17.69-8.17c-.45-2.45,0-5.91.94-9.41l23.57-5,12.67,5Z"/><path class="cls-5" d="M61,21.42s-.19,4-1,5.72c-3.42,7.06-17,16-24.5,19.26l-3.61-1.92S57.54,21.66,61,21.42Z"/><path class="cls-6" d="M70.28,13.82c-3.92.9-7.17,3.73-10.59,5.75A148.8,148.8,0,0,0,47,28.26a132.57,132.57,0,0,0-12,9.39c-1.81,1.69-3.55,3.45-5.31,5.18-7.83-20.9,6.41-29.13,9-30.82S45.9,7.92,48,5.42A12.2,12.2,0,0,1,56.36.35a12,12,0,0,1,9.22,1.36,9.05,9.05,0,0,1,3.54,4.2L69.5,8.2a9.68,9.68,0,0,0,.78,5.62Z"/><path class="cls-7" d="M70.28,13.82c-3.92.9-7.17,3.73-10.59,5.75A148.8,148.8,0,0,0,47,28.26c-4.07,3-11.35,7.07-15,10.55,0,0-5.09-16.77,7.17-26C41.57,10.93,46,8.09,48,5.58S51.68,1.27,56.36.35a12,12,0,0,1,9.22,1.36,9.05,9.05,0,0,1,3.54,4.2L69.5,8.2a9.68,9.68,0,0,0,.78,5.62Z"/><path class="cls-8" d="M68.15,14.48c-3.91.9-30.7,19.24-30.7,19.24-2.45-8.22,2-18.26,4.9-20.78A59.17,59.17,0,0,0,49.6,6c2.09-2.5,2.7-4.06,6.65-4.95a10.1,10.1,0,0,1,8.06,1.27c4.43,2.54,3.84,12.14,3.84,12.14Z"/><path class="cls-9" d="M68.06,4a10.87,10.87,0,0,1-1.64.61c-2.73.72-8,.86-9.21,2.29-.82,1-.17,3.1-.66,4.14s-4.18,4-6.34,5.2c3.7.55,8.69,5.1,9,8.32s6.11,13.58,12.45,7a27.13,27.13,0,0,0,1.26-10.48C72.5,18,70,13.89,69.67,12A10.83,10.83,0,0,1,69.5,8.2c-.21-1.28-.38-2.29-.38-2.29A8.26,8.26,0,0,0,68.06,4Z"/><path class="cls-10" d="M66.42,4.63A14.46,14.46,0,0,1,64.49,5c-2.87.42-5.59.06-7.2,1.47-1,.89-.67,2.71-1.16,3.75a21.7,21.7,0,0,1-5.92,6c3.7.55,8.27,6.7,9.36,9.74,2.06,5.75,6.29,8.82,9.56,7.35,1.35-2.56,2.84-8.61,2.41-11.72a30,30,0,0,0-2.73-8.54,8,8,0,0,0-5-4.16A9.93,9.93,0,0,0,67.45,7.1s-.59-1.62-1-2.47Z"/><path class="cls-11" d="M73.73,6.14l-4.61-.23a20,20,0,0,1-5.29,3c3.54.3,10.69-2.11,9.9-2.79Z"/><path d="M56.91,7.9a1.76,1.76,0,1,0,1.76-1.76A1.75,1.75,0,0,0,56.91,7.9Z"/><path class="cls-12" d="M57.7,7.5a.39.39,0,0,0,.39.4.4.4,0,0,0,0-.8.39.39,0,0,0-.39.4Z"/><polygon class="cls-13" points="29.79 41.47 18.78 40.65 27.64 34.99 29.79 41.47 29.79 41.47"/><path class="cls-6" d="M27.39,29.89s-2.21,3.52-8.75,8.26C12.89,42.32,0,50.82,0,50.82s1.14,1,3.35,0,21.37-10.48,25.59-13l-1.55-7.93Z"/><path class="cls-14" d="M57.29,16.17c2.73,1.13,6.8,4.89.14,12.82S25.81,45.05,20,50.44c2.12-3.43,3.38-5.73,7.34-12.08s16.86-27.6,29.94-22.19Z"/><path class="cls-8" d="M27.35,38.36A95.27,95.27,0,0,1,37,24.86c1.38,4.53,7.57,6.38,13.32,5.49,6-.94,9.85-5.86,9.93-5.89A15.26,15.26,0,0,1,57.43,29c-7,7.61-32.15,16.47-38,21.86,2.13-3.43,3.92-6.14,7.88-12.49Z"/><path class="cls-7" d="M39.3,34.48c5.31,1.08,10.08.06,17.3-4.59C49.16,37.6,19.24,53.28,18.78,52c1.51-2.45,2.69-4.31,4.7-7.47.81-1.28,1.79-2.77,2.93-4.6S30.63,32.48,33.69,29c-.28,2,1,4.57,5.61,5.52Z"/><path class="cls-15" d="M60.3,18.65S62,21.42,59.57,26A10.14,10.14,0,0,0,60,27.14s2.42-5.15.28-8.49Z"/><path class="cls-7" d="M23.48,44.5s-3.25,3.09-2.78,4.41l2.41-1.49.37-2.92Z"/><path class="cls-7" d="M26.41,39.9s-4.21,3.87-2.93,4.6a19.84,19.84,0,0,0,2.93-4.6Z"/><path class="cls-7" d="M18.82,52s-.92-.36,1.88-3.11A19.36,19.36,0,0,1,18.82,52Z"/><path class="cls-7" d="M26.41,39.9s-.39-1.37,2.64-4.32a34.52,34.52,0,0,1-1.33,3.55l-1.31.77Z"/><path class="cls-7" d="M33.69,29s-5,5.48-4.64,6.62l1.48-.87L33.69,29Z"/><path class="cls-6" d="M30.63,32.64s6.84-8.39,9.89-11.35a140.06,140.06,0,0,0-11,11.11l1.08.24Z"/><path class="cls-16" d="M20.7,48.91S40.31,38.69,48.82,32.47C36.73,39.7,20.78,48,20.78,48a1.36,1.36,0,0,0-.08.89Z"/><path class="cls-16" d="M23.48,44.5s13.11-7.43,19.63-12.23C39.74,34.36,23.24,44,23.24,44a.44.44,0,0,0,.24.46Z"/><path class="cls-16" d="M26.41,39.9S35.15,35,40.29,31.22c-2.75,1.63-13.86,8.14-13.86,8.14a1.26,1.26,0,0,0,0,.54Z"/><path class="cls-16" d="M29,35.66a99,99,0,0,0,9.21-6c-2,1.17-9.07,5.45-9.07,5.45a2.57,2.57,0,0,0-.14.56Z"/><path class="cls-2" d="M44.56,62.06l.08.21a.88.88,0,0,0-.64.48,1,1,0,0,1,.56-.69Z"/></g></g></svg>