<svg xmlns="http://www.w3.org/2000/svg" width="55.69" height="50.48" viewBox="0 0 55.69 50.48"><defs><style>.cls-1{fill:#bab5b3;}.cls-2{fill:#dbd3ce;}.cls-3{fill:#c6b5a8;}.cls-4{fill:#ad9787;}.cls-5{fill:#161514;}.cls-6{fill:#262320;}.cls-7{fill:#603517;}.cls-8{fill:#75401c;}.cls-9{fill:#b7b7b7;}.cls-10{fill:#fff;}.cls-11{fill:#63473d;}.cls-12{fill:#543a30;}.cls-13{fill:#513d30;}.cls-14{fill:#72594e;}.cls-15{fill:#191513;}.cls-16{fill:#998679;}.cls-17{fill:#7f6d62;}.cls-18{fill:#6d4a32;}.cls-19{fill:#995b30;}.cls-20{fill:#844c26;}.cls-21{fill:#563117;}.cls-22{fill:#472a17;}</style></defs><g id="Layer_2" data-name="Layer 2"><g id="Layer_1-2" data-name="Layer 1"><path class="cls-1" d="M52.13,14.25c.53,2.27.49,7.73-1.26,10.54A27.63,27.63,0,0,1,34.56,36.26a22.52,22.52,0,0,1-15.41-2.45c-1-.68-1.35-2.73,1.56-7.42s10-10.88,12-12.62,2.51-1.46,4-5.34,5.63-4.24,9.35-3.52C51.17,5.88,51.6,12,52.13,14.25Z"/><path class="cls-2" d="M35.35,13.89c1.16-1.18,3-5.05,3.52-8.13,2-1.33,4.71-1.35,7.27-.85s5.38,2,4.57,8.33a20.19,20.19,0,0,1-.37,5.89C50,20.24,35.35,13.89,35.35,13.89Z"/><path class="cls-3" d="M20.71,26.39c2.92-4.69,10-10.88,12-12.62.54-.47,1-.79,1.34-1.08a16.61,16.61,0,0,1,2.65-1.07s11.51.2,13.61,7.51c0,0,.81,3.76-.76,5.93-2.92,4-7.41,9.5-15,11.2a22.52,22.52,0,0,1-15.41-2.45C18.18,33.13,17.8,31.08,20.71,26.39Z"/><path class="cls-4" d="M34.5,32.34a19.13,19.13,0,0,0,14-8.73,10.89,10.89,0,0,0,1.85-4.48s1,3.49.53,5.66A11.13,11.13,0,0,1,50,26.17c-2.93,4-7.22,8.42-14.81,10.19-8.24,1.93-13.91-.42-15.55-2a4.06,4.06,0,0,1-1.2-2.64l2.76-1.53C22.29,31.16,27,33.27,34.5,32.34Z"/><path class="cls-5" d="M36.79,8.43c1.53-3.89,4-7,7.63-8s6.56,0,7.89,1.73c.84,1.1.51,3.49.51,3.49s-.41,2.72-.69,3.89a7.54,7.54,0,0,0,.09,4.57,17,17,0,0,1,.19,2.58c-.8-2.21-2.83-4.58-2.91-7.39s-1-2.95-3-2.84a12.27,12.27,0,0,1-3.28-.6,1.7,1.7,0,0,0-1.21,1.43c.19,2.07,3.34,1.14,3.46,1.38.35.69-.8,2.83-1.88,2.87a16.71,16.71,0,0,1-3.93-.61c-.86-.28-2.61-.9-3.48-1.14C36.39,9.39,36.58,8.94,36.79,8.43Z"/><path class="cls-6" d="M36.79,8.43c1.53-3.89,11.1-6.9,15.29-5.85L49.5,5c.15.45,1.72,1.43,1.72,1.43-.37,2.88-.94,4.47-.51,6.8a7.84,7.84,0,0,1-1.21-4c-.08-2.74-1-2.95-3-2.84a12.27,12.27,0,0,1-3.28-.6,1.7,1.7,0,0,0-1.21,1.43c.19,2.07,3.34,1.14,3.46,1.38.35.69-.8,2.83-1.88,2.87a16.71,16.71,0,0,1-3.93-.61c-.86-.28-2.61-.9-3.48-1.14C36.39,9.39,36.58,8.94,36.79,8.43Z"/><path class="cls-7" d="M36.15,9.93s.38-.85.64-1.5c1.53-3.89,4-7,7.63-8s6.56,0,7.89,1.73a2.2,2.2,0,0,1,.31.59S50,3,49,3.14c-6.5,1.06-10.66,4.52-9.27,7.77C37.62,10.42,36.15,9.93,36.15,9.93Z"/><path class="cls-8" d="M37.43,10.32s.51-1.12.77-1.77c1.12-2.75,3-6,5.95-7.22,2.76-1.12,6.06-.8,7.39.95a4,4,0,0,1,.3.52S50,3,49,3.14c-6.5,1.06-10.66,4.52-9.27,7.77C38,10.49,37.43,10.32,37.43,10.32Z"/><path class="cls-9" d="M44.64,4.11a1.58,1.58,0,1,0,1.58-1.58A1.57,1.57,0,0,0,44.64,4.11Z"/><path d="M44.86,4.11a1.36,1.36,0,1,0,1.36-1.36A1.36,1.36,0,0,0,44.86,4.11Z"/><path class="cls-10" d="M45.47,3.8a.31.31,0,0,0,.31.31.31.31,0,0,0,0-.62A.31.31,0,0,0,45.47,3.8Z"/><path class="cls-11" d="M28.34,48.25a15.39,15.39,0,0,0,3-.3c1-.25,1.74-.57,1.55-1.07-.71-1.88-3.28-6.45-4-8a12.39,12.39,0,0,1-.82-1.82c.47,0,1.57,0,1.57,0,.73,2,2.64,7,4.14,9.24.28.42.62.81,2.18.68s3.17-.78,3.93.13a1.32,1.32,0,0,0-.89-.2c-.1.3-.48.4-1,.4s-2.23.18-2.23.18,4.67,1.8,5.84,1.77,1.45.39,1.64.61a2.56,2.56,0,0,0-1.65-.38,1.55,1.55,0,0,1-1.77.23,40.35,40.35,0,0,0-3.94-1.46c1.27,1.21,2.6,1.38,2.7,2.19a1.74,1.74,0,0,0-1-.65,2.05,2.05,0,0,1-1.72-.51,6.55,6.55,0,0,0-2.41-1.27c-.55,0-2.18.72-3,.82s-1.79.14-2.25-.34a2,2,0,0,0-1.28.39A1.73,1.73,0,0,1,28.34,48.25Z"/><path class="cls-12" d="M34.38,45.56a14.88,14.88,0,0,0,2.8-.38c.93-.26,1.62-.56,1.41-1-.76-1.63-3-5-3.75-6.3-.49-.81-.8-1.27-.8-1.27.39-.07.86-.19,1.31-.28a44.7,44.7,0,0,0,4.08,7.33c.29.37.63.7,2.1.52s3-.8,3.73,0A1.29,1.29,0,0,0,44.4,44c-.07.27-.42.37-.89.39s-2.1.24-2.1.24S45.92,46.06,47,46s1.39.28,1.58.47A2.64,2.64,0,0,0,47,46.2a1.55,1.55,0,0,1-1.67.26c-1-.29-2.65-.94-3.81-1.14,1.27,1,2.54,1.12,2.67,1.84a1.64,1.64,0,0,0-1-.54,2.09,2.09,0,0,1-1.66-.39,6.46,6.46,0,0,0-2.34-1c-.53,0-2,.71-2.79.83a2.86,2.86,0,0,1-2.14-.22,1,1,0,0,0-.7.2l0-.06A1.22,1.22,0,0,1,34.38,45.56Z"/><path class="cls-13" d="M55.69,3.29s-.75-.91-3.35-1.11A26.06,26.06,0,0,0,49.5,5a8,8,0,0,0,3.27.93A13.88,13.88,0,0,0,55.69,3.29Z"/><path class="cls-14" d="M49.88,5l-.16.09L49.5,5a26.06,26.06,0,0,1,2.84-2.83c2.6.2,3.35,1.11,3.35,1.11v0A27.22,27.22,0,0,0,49.88,5Z"/><path class="cls-15" d="M49.5,5a22,22,0,0,1,6.19-1.72,52,52,0,0,0-5.71,2Z"/><path class="cls-16" d="M18.29,31.75c.26,2.68,3.29,3.85,3.29,3.85C38.12,28.49,44.7,22.91,44.7,22.91s-12.36-.11-14.27-1.54C27.13,23.47,18.18,30.53,18.29,31.75Z"/><path class="cls-17" d="M18.29,31.75c0,1.31,2.56.8,2.56.8,6.32-1.19,16.41-5.86,16.41-5.86s-4.92-3.89-6.83-5.32C27.13,23.47,18.3,30.52,18.29,31.75Z"/><path class="cls-18" d="M16.73,32l3.06-.54a7.68,7.68,0,0,0,4.36.27S5.73,40.31,3.61,41.16c-2.43,1-3.55.16-3.55.16C-1.06,40.91,12.9,33.84,16.73,32Z"/><path class="cls-19" d="M46.14,14.66c1.3.89,3.47,3.61,0,7C40.75,27,24,31.1,14.44,32.34c-.73.06-.53-.94,2.41-2.86.89-.59,2.34-1.49,2.34-1.49s.33-1.34,2.64-3.22c.06-.69,1.35-2.1,2.79-3.64S32.91,13,35.55,11.87,45.18,14,46.14,14.66Z"/><path class="cls-20" d="M16.85,29.48c.89-.59,2.34-1.49,2.34-1.49s.33-1.34,2.64-3.22c.06-.69,1.35-2.1,2.79-3.64.54-.58,2.13-2.12,3.69-3.57,0,0,1.28,2.24,6.41,3.11s10.72-.55,13.06-3.93c.48,1.29.33,3-1.64,4.94C40.75,27,24,31.1,14.44,32.34,13.71,32.4,13.91,31.4,16.85,29.48Z"/><path class="cls-21" d="M16.85,29.48c.89-.59,2.34-1.49,2.34-1.49s.33-1.34,2.64-3.22c-.07-1.18,3.4-4.27,3.4-4.27h0c-.28.43.07.86.53,1l.12.26c-.29.31,0,1.24,1.36,1.39l.06.41c.05.58,1.49,1.73,3.55,1.63,0,0,.86,1.28,4.09.92a30,30,0,0,0,10.5-3.83c-6,5-21.79,8.84-31,10C13.71,32.4,13.91,31.4,16.85,29.48Z"/><path class="cls-22" d="M19.19,28s12.94-2.23,21.06-5.18c-9.17,2.63-20.84,4.67-20.84,4.67A2.67,2.67,0,0,0,19.19,28Z"/><path class="cls-22" d="M21.83,24.77s10.06-2.06,15.43-3.85C33.08,22,22,24.27,22,24.27A1.27,1.27,0,0,0,21.83,24.77Z"/><path class="cls-22" d="M23.38,22.33a112.3,112.3,0,0,0,11.3-2.81C31.17,20.48,23.74,22,23.74,22Z"/><path class="cls-22" d="M25.23,20.5s4.13-1.06,6.75-1.87c-2,.5-6.42,1.54-6.42,1.54Z"/></g></g></svg>