<svg xmlns="http://www.w3.org/2000/svg" viewBox="0 0 63.85 86.52"><defs><style>.cls-1{fill:#353637;}.cls-2{fill:#47494a;}.cls-3{fill:#6d6c6b;}.cls-4{fill:#d2c7b4;}.cls-5{fill:#bcb19f;}.cls-6{fill:#dfdad1;}.cls-7{fill:#ece8e0;}.cls-8{fill:#d4cdc4;}.cls-9{fill:#f8f0e4;}.cls-10{fill:#fffbf3;}.cls-11{fill:#141414;}.cls-12{fill:#fff;}.cls-13{fill:#ff7d48;}.cls-14{fill:#e06e46;}</style></defs><g id="Layer_2" data-name="Layer 2"><g id="Layer_1-2" data-name="Layer 1"><path class="cls-1" d="M20.93,77c-.31.27-.6.13-1.46,0a.36.36,0,0,0-.31.61c.87,1.11,5.86,3.3,10.22,3.11a1.2,1.2,0,0,0,1.21-1.53A4,4,0,0,1,31,76.3,1.1,1.1,0,0,0,31.12,75c-.27-.51-.14-.75.11-2.56a1.68,1.68,0,0,0-.09-.93l-.8-.68a.44.44,0,0,0-.48.42c-.34,2.84-.2,3.2-.72,3.85a.82.82,0,0,0-.07.87,3,3,0,0,1,.1,1.56.21.21,0,0,1-.35.13c-.48-.43-1-.85-1.44-1.29-1.11-1-1.74-1.74-2.14-2a.45.45,0,0,0-.73.37c0,.22,0,.44,0,.64-.35.16-.45,0-1.39-.48-.39-.18-.88.25-.74.55s.26.54.4.84c-.45.1,0,.17-1.44-.24a3.39,3.39,0,0,0-.43-.11c-.2,0-.43.32-.33.5s.25.36.37.53Z"/><path class="cls-2" d="M14.28,80.27c-.24.11-.52.22-.79.35a.37.37,0,0,0-.1.58c.21.23.58.36.65.89.15,1.22,0,1.12-.47,2a.43.43,0,0,0,.38.56.76.76,0,0,0,.34-.06c.66-.3,1.19.5,1.33,1a2.66,2.66,0,0,0,.21.53.65.65,0,0,0,.79.25,3.47,3.47,0,0,0,.57-.37c4-3.29,6.06-3.38,7.59-5A1.24,1.24,0,0,0,25.14,80a13.39,13.39,0,0,1,0-2.61c0-.72.55-.93.28-1.76-.61-1.85-.28-2.91.07-4.93a.6.6,0,0,0-.21-.61c-.26-.23-.51-.45-.91-.32-.23.07-1.07-.45-1,.52,0,.34.08.68.14,1a20.9,20.9,0,0,1,.16,3,.79.79,0,0,1-.12.42,1.87,1.87,0,0,0-.05,2c.12.24.18.45.12,2.15a.6.6,0,0,1-.67.61c-2.18,0-5.53-1.34-8-2.16a.56.56,0,0,0-.76.58c0,1.24.56,1.84.08,2.47Z"/><path class="cls-3" d="M22.58,80.31a5.74,5.74,0,0,1-.69.1c-.75,0-1.51.08-2.27,0-1.33,0-2.66.08-4,.11-.76,0-.81.13-1,.33-.07.07,0,.28.06.29.61.13-.24.11,5.33,0l.11,0c.11.16,0,.27-.12.35-4.1,2.66-4.38,2.72-4.13,3,.64.68,3.35-1.8,7.19-3.51.55-.24.42-.41.23-1.23-.37-.5-1.4-.19-7.55-2a6.63,6.63,0,0,0-.77-.18.49.49,0,0,0-.29.12.29.29,0,0,0,0,.41,4.2,4.2,0,0,0,.73.52,11.5,11.5,0,0,0,2.78,1,18.86,18.86,0,0,0,3.95.47.41.41,0,0,1,.42.18Z"/><path class="cls-3" d="M27.41,78.71a6.51,6.51,0,0,1-1.71,0c-.54,0-.57.7-.22.75a9.66,9.66,0,0,0,3.28.1c.47,0,.84-.55.58-.85-.44-.52-.24-.38-3.07-2.87,0,0-.14,0-.21,0s-.15.18-.09.28c.36.57.24.27,1.29,1.64a1.15,1.15,0,0,1-.38,0c-1-.33-1.46-.69-1.43-.16a4.1,4.1,0,0,0,1,.53,2.23,2.23,0,0,1,1,.56Z"/><path class="cls-3" d="M24,71.58c-.16.24-.08.47-.08.69,0,.42,0,.83,0,1.25,0,1.22-.34,1.32-.62,2.26s1.19,1.54,1.23,1.18-.15-.47-.26-.7a1.16,1.16,0,0,1-.07-1,3.33,3.33,0,0,0,.16-1.56c0-1.51,0-1.73-.14-2,0-.06-.16-.08-.25-.11Z"/><path class="cls-3" d="M29.77,74.42a4.29,4.29,0,0,0-.45.54c-.54.94.5,1.66.73,1.41a.21.21,0,0,0,.06-.2c-.08-.2-.18-.4-.28-.6a5.35,5.35,0,0,0,.56-3,.2.2,0,0,0-.13-.14c-.32,0-.33.62-.49,2Z"/><path class="cls-3" d="M24.1,77.44c-.37.56-.15,1.2-.36,1.71.11.1.15.17.21.19s.33,0,.34-.19c.05-.51.06-1,.07-1.55,0,0-.16-.1-.26-.16Z"/><path class="cls-4" d="M17,37.13c-.92.61-1.31.78-1.3,1.26,0,1.37,5.93,0,15,1.23,10.61,1.5,20,9.93,24,9.71a.63.63,0,0,0,.53-.84A7.9,7.9,0,0,0,54,46.69l.32-.7c-.15-1.16-2.91-3.12-3.76-3.73a2.19,2.19,0,0,0-.88-1.65,22.75,22.75,0,0,0-5.58-3.68A2.56,2.56,0,0,0,42.86,35a10.36,10.36,0,0,0-5-2.09,32.47,32.47,0,0,0-8.63.06c-4.67.46-9.19,2.78-11.85,3.18a.57.57,0,0,0-.47.29c-.09.19,0,.36.09.53s0,.07,0,.17Z"/><path class="cls-4" d="M35.76,65.59c-3.76-2.93-10.43-1.78-9.32,1.27A11.86,11.86,0,0,0,28.94,71a6.68,6.68,0,0,0,1,.8c1,.78,2.31,0,2.78-.5a20.85,20.85,0,0,0,2.46-2.68,1.37,1.37,0,0,1,.58-.51c.46-.22.53-.59,1.09-2.17a.38.38,0,0,0-.31-.41c-.22,0-.45,0-.74,0Z"/><path class="cls-5" d="M38.06,35.56c.38-.38.49-.26,3.1-1a.77.77,0,0,0,.37-.24.29.29,0,0,0,0-.3,1.16,1.16,0,0,0-.46-.32c-3.55-1.27-7.83.55-9.42.95a8,8,0,0,0-1-.6c-1.77-.77-5.95.61-10.51,1.92a18.78,18.78,0,0,0-2.44.91.22.22,0,0,0-.06.19c0,.06.1.14.14.13a50.35,50.35,0,0,1,7.48-.39,24,24,0,0,1,7.31.87c9.53,2.51,8.92,2.1,12.83,2.27.81,0,.86-.47.28-.8-2.47-1.44-3.28-1-4.7-1.79,2.76,0,2.42,0,2.73-.2a.29.29,0,0,0,0-.31,1.38,1.38,0,0,0-.36-.25,16.13,16.13,0,0,0-1.64-.48,26.08,26.08,0,0,0-3.7-.56Z"/><path class="cls-5" d="M45.55,41.7a1.54,1.54,0,0,1,0,.24.41.41,0,0,0,.17.5,34.09,34.09,0,0,0,7.1,2.3c.35.08.75.15,1-.08s0-.4-.22-.6c-2.27-2.12-5.18-2.63-8.3-2.88a1.11,1.11,0,0,0-.43.09s-.06.12-.08.18,0,.08.06.09l.75.16Z"/><path class="cls-5" d="M48.75,44.88a5.07,5.07,0,0,0,2.1,1.38c.79.36,3.18,1.47,3.85.89s-2-1.74-5.55-2.47a.32.32,0,0,0-.4.2Z"/><path class="cls-6" d="M25.15,71.17a6.76,6.76,0,0,1,.77-.44,2.93,2.93,0,0,0,1.25-1,30.13,30.13,0,0,0,2.36-3.62,2.44,2.44,0,0,1,.23-.32,1.24,1.24,0,0,1,.83,0,57.67,57.67,0,0,0,9.19,1.62,4,4,0,0,0,2.33-.37,1.92,1.92,0,0,1,.88-.2,13.34,13.34,0,0,0,4.32-.95,16.41,16.41,0,0,0,5.36-3.15,11.22,11.22,0,0,0,1.1-.82c1.95-1.83,4.12-1.43,6.41-4.75a6.81,6.81,0,0,0,1.06-1.61c.21-.49-.25-.71-.56-.88a15.81,15.81,0,0,0,2.93-4.32,2.72,2.72,0,0,0,.23-.75.54.54,0,0,0-.53-.6l-.57,0c-11.47,1.08-11-3.81-23.21-8.75-2.58-1-7.66-3.23-13.37-3.49-6-.26-5.23-.17-7.84.15-.17,0-.36.12-.52-.06,0-.23.22-.29.37-.39C23.55,33.19,31.19,28.86,33,19,33.9,14.45,32,10.54,29,6.91a18.86,18.86,0,0,0-7.22-5.59A19.64,19.64,0,0,0,15.42,0,12.24,12.24,0,0,0,9,1.68,10.92,10.92,0,0,0,3.6,9.08a11.11,11.11,0,0,0,0,5.19A3.35,3.35,0,0,0,7,16.92c4-.25,7.69-3.42,8.86-7.75a2.77,2.77,0,0,1,.35-1,8.29,8.29,0,0,1,7.21,11.67,16,16,0,0,1-1.14,2.22,17.1,17.1,0,0,1-3,3,26.87,26.87,0,0,1-5.56,3.3c-1.42.63-2.78,1.4-4.16,2.13a16.45,16.45,0,0,0-3.46,2.57c-.56.52-2.42,2.28-3.2,3.09-1.13,1.16-.41,1.69-1.62,3.09s-1.45,4.21-1.16,6A21.9,21.9,0,0,0,1,49c.12.34.84,2.59.86,2.95.07,1.23,1.44,3.15,2.88,4.22a74.35,74.35,0,0,0,7.19,4.62,30.84,30.84,0,0,0,5.05,2.35,2.38,2.38,0,0,1,1,.75c.61.78,1.87,2.74,3,4.3.46.63,1.52,1.57,1.8,1.89a3.1,3.1,0,0,0,2.43,1.07Z"/><path class="cls-7" d="M53.18,59.32C56.32,58,56.9,57.69,57.39,57a.74.74,0,0,0-.28-1.22,2,2,0,0,1-.3-.19c1.2-1.17,2.75-1.59,4-3.55.73-1.15.14-1.72-.45-1.75a2.71,2.71,0,0,0-1.23.2c-9.88,4.34-9.43,9.22-17.49,7.86-3.27-.55-4.22-1.06-5.68-.26a5.91,5.91,0,0,1-4.31.44,20.34,20.34,0,0,1-5.12-1.89,53.28,53.28,0,0,1-6.46-4,7.31,7.31,0,0,1-2.34-3C17,48.15,16.2,48.26,13,46.21a7.67,7.67,0,0,1-.88-.72,2.06,2.06,0,0,1-.6-1c-.6-2-.52-4.47,1.09-5.83,1.4-1.17,1.66-1.07,4-2.43,4.63-2.73,7.27-4.15,10.67-7.71a16.38,16.38,0,0,0,4-6.79,23.7,23.7,0,0,0,.6-7.68c-.29-2.6-1.27-4.11-3.12-6.74a15.07,15.07,0,0,0-8-5.31c-1.35-.26-1.81-.61-2.44-.31a4.72,4.72,0,0,1-.53.18.5.5,0,0,0-.27.81,2.71,2.71,0,0,0,.49.47c.68.49,1.35,1,2.06,1.43a15.7,15.7,0,0,1,5.06,5.16,10.7,10.7,0,0,1,1.38,4.41c.74,3.34-2.84,9.43-7.17,11.74-.8.42-1.52,1-2.28,1.5s-1.65,1.08-2.5,1.59A32.31,32.31,0,0,0,4.8,38c-2.45,3.65-2.75,8.83-1.64,11.57a19.26,19.26,0,0,0,5.9,8.09A32.79,32.79,0,0,0,14,60.51a29.09,29.09,0,0,0,4.72,2,3.14,3.14,0,0,1,1.23.52,6.12,6.12,0,0,0,.93,2.79A10.73,10.73,0,0,0,23,68.44a.87.87,0,0,0,1.49-.25c.58-1.3.07-2.3.91-2.56a8.54,8.54,0,0,0,2.44-.53,3,3,0,0,1,2.1-.28,20.59,20.59,0,0,0,4.29.49,53.88,53.88,0,0,0,8,0,5.8,5.8,0,0,0,1.65-.42c1.71-.73,2-.72,2.27-1.2.36-.79,1.14.33,3.26-.23a10.75,10.75,0,0,0,3.12-1.37,3.62,3.62,0,0,0,1.32-1.38c.36-.68-.25-1.09-.65-1.43Z"/><path class="cls-7" d="M31.61,56a24.36,24.36,0,0,0,5.61.87,1.39,1.39,0,0,0,1.1-.5,1.61,1.61,0,0,1,.27-.23c2.76.66,4.74,1.27,7.51.92,1.4-.17,1.75-1.07,1.22-1.67-.12-.13-.69-.6-.84-.73.25-.22-.11-.14,1.44-.22a7.26,7.26,0,0,0,1.45-.27A2.07,2.07,0,0,0,51,52.79c.62-.27,1.84,0,2.81-.43a.52.52,0,0,0,.2-.78,5.91,5.91,0,0,0-.56-.56c.63-.77,1.32-1.16-1.86-2.73,0-.21.12-.18.2-.19a5,5,0,0,0,.67-.14.71.71,0,0,0,.3-1.06,3.47,3.47,0,0,0-.83-.92,9.45,9.45,0,0,0-2-1.28c-1-.44-.75-.65-2-1.51A28.91,28.91,0,0,0,39,38.77c-1.18-.31-.52-.66-2.58-1.6a23.53,23.53,0,0,0-8.34-1.58,36.25,36.25,0,0,0-8.14.84,8.36,8.36,0,0,0-4.64,2,3.9,3.9,0,0,0-1.57,2.3c-.25.81-.17,1.88,1,3.36A13.76,13.76,0,0,0,18.19,47c1.21.84.68,1.28,3.34,4.29a19.39,19.39,0,0,0,9,5.49c.61.14.83-.36,1.06-.72Z"/><path class="cls-7" d="M7.94,11.91C8,13,8,13.2,8.33,13.78a1.34,1.34,0,0,0,1.34.68A4.1,4.1,0,0,0,13.12,12a21.68,21.68,0,0,0,2.34-6.27,4.66,4.66,0,0,0-.7-3.27c-1.17-2-5.85-1.11-9,3.44a10.42,10.42,0,0,0-2.17,5.67,5.83,5.83,0,0,0,0,1c.06.8.81.94,1.05.47a35.82,35.82,0,0,0,1-3.72c.33-1,2.09.23,2.14,1.88,0,.23,0,.46,0,.68Z"/><path class="cls-8" d="M16.59,8.38a2.06,2.06,0,0,1,.55,0c3.39.8,7.3,5.08,6.58,9.21-.53,3-1.26,3.52-1.48,4.39a.19.19,0,0,0,.09.18.31.31,0,0,0,.3-.09c2.63-3.82,3.37-7.85.31-11.26a14.62,14.62,0,0,0-5.78-3.91c-.1-.57-.09-.93-.44-1a.42.42,0,0,0-.46.26c-.88,2.33-1.12,6.29-5.35,8.9a3.44,3.44,0,0,1-2.31.36A.91.91,0,0,1,8,15c-1.48-2.05-.43-2.56-.78-4.23a.54.54,0,0,0-1-.18c-.73,1.16-.44,2.44-1,3.72a2.39,2.39,0,0,0,.26,2.17,1.24,1.24,0,0,0,.88.66C8,17.52,8.43,17,9.4,16.7a9,9,0,0,0,4.51-2.93c1.25-1.42,1.3-1.87,2.68-5.39Z"/><path class="cls-9" d="M10.91,55.78c.95-.23.93-.15.74-1.14a1.14,1.14,0,0,1,.33.08,8.63,8.63,0,0,0,2.15,1c.55.16.83-.28.66-.69a11.94,11.94,0,0,0-2.62-3.4,1.2,1.2,0,0,1-.16-.27c.16-.12.31,0,.45,0a4.18,4.18,0,0,0,.79,0,.65.65,0,0,0,.46-1c-1.36-1.74-4.86-2.87-5.59-6.76-.29-1.49.76-3.48,1.64-4.72a1,1,0,0,1,.54-.4A9,9,0,0,0,13,36.88c1.41-1.15,1.71-.43,3.38-1.58A38.61,38.61,0,0,0,19.89,33c.62-.53,1.41-.45,2.61-1.58,1.47-1.4,1.75-.89,3.13-2.25,2.49-2.45,2.86-4.79,3.87-6.38a13.29,13.29,0,0,0,1.17-4.14c0-.19-.06-.37-.18-.36a1.21,1.21,0,0,0-.42.13.84.84,0,0,0-.18.29c-1.72,3.58-1.31,3.24-2.62,5.55-.91,1.62-2.34,2.41-4.11,4.05a7.31,7.31,0,0,1-2.43,1.45,1,1,0,0,1-1.07-.12c-.6-.49-1.05.08-1.94.76s-1.28,1.06-1.87.87-1,.36-1.69.77c-1,.65-1.51.81-2,.69-.79-.21-1.17.66-2.53,2.09-1.59,1.67-2,.9-3.12,2.21a11.07,11.07,0,0,0-2.32,5.36,13.12,13.12,0,0,0-.11,4.76C5.29,53.18,8.65,56,10.92,58.25a8.4,8.4,0,0,0,1.69,1.15.71.71,0,0,0,.22.05c.11,0,.31-.17.29-.29a1.56,1.56,0,0,0-.09-.44,13.29,13.29,0,0,0-2.12-2.94Z"/><path class="cls-9" d="M45.59,42.81A4.56,4.56,0,0,0,47,42.56a.64.64,0,0,0,.29-1c-1.46-2.15-7.16-2.41-8.65-2.54.09.24.28.17.4.21a5.47,5.47,0,0,0,.55.13,6.06,6.06,0,0,1,2.38.7.7.7,0,0,1,0,1.22,4.91,4.91,0,0,1-1.57.44c.3.4-.15.09,1.38.66.93.36,1,.94.65,1.22s-.32.21-4.12.43c.3.35,0,.21,1.11.61a10.25,10.25,0,0,1,3.3,1.75.66.66,0,0,1-.38,1.06,5,5,0,0,1-1.81,0c-2.42-.34-2.63-.54-2.9-.35.13.21.35.26.56.36,1.83.83,2.1.94,2.55,1.44.58.66-.18,1.49-1.07,1.37A49.74,49.74,0,0,1,33,48.83c-.23.2.13.27,1.28,1.09.87.62,1,.84,1.07,1.13a.62.62,0,0,1-.53.83,3,3,0,0,1-.79-.06,17.22,17.22,0,0,1-6.11-2.08c-.15-.08-.29-.25-.52-.13.07.28.34.37.51.55.61.68.76.72.91,1.39.08.38-.34.88-1.26.77a10,10,0,0,1-2.09-.52c-.14,0-.28-.15-.44,0,0,.05,0,.13.08.16a21.68,21.68,0,0,0,6.29,3.38,2,2,0,0,0,.55.07c.46,0,.46-.52.51-.8,2.85,1.2,6.23,3.18,6.72,2.07a.42.42,0,0,0-.05-.42c-.49-.68-.57-.6-1.17-1.07a1.08,1.08,0,0,1-.18-.23c.22-.11.39,0,.57,0a20,20,0,0,0,4.84.67c.66,0,1-.38,1-.59,0-.47-.37-.58-1.41-1.21-.17-.46.69,0,1.93-.45a.77.77,0,0,0,.57-.64.66.66,0,0,1,.11-.2c.21-.12.44,0,.66,0a13,13,0,0,0,1.81.08,2.69,2.69,0,0,0,.86-.27.75.75,0,0,0,.27-1.08,5.12,5.12,0,0,0-.41-.54c.06-.24.3-.17.44-.25a.64.64,0,0,0,.29-.87c-.26-.58-.47-.76-2.13-2-.3-.23-.62-.43-.93-.65.16-.15.3-.09.44-.05,2.32.58,2.84.77,3.67.62a.49.49,0,0,0,.38-.68,2.8,2.8,0,0,0-.75-1,17.44,17.44,0,0,0-4.17-2.74c-.08,0-.1-.18-.17-.3Z"/><path class="cls-9" d="M26.74,42c.31.5.64.48,1.6,1.13.56.39.54,1.07-.3,1.14a6.54,6.54,0,0,1-3.36-.92c-.07,0-.19,0-.33,0a6.79,6.79,0,0,1,.75,1.19.69.69,0,0,1-.65,1,8.64,8.64,0,0,1-3.25-1.25c-.3.1,0,.35.17.75a.55.55,0,0,1-.4.7,4.8,4.8,0,0,1-2.9-.83A19.92,19.92,0,0,1,15.62,43c-.1-.1-.19-.24-.36-.24s-.09.26,0,.39a3.3,3.3,0,0,0,.91,1.15c2.34,2.06,3.38,2.06,4.68,3.42A7.25,7.25,0,0,0,24.38,50a.67.67,0,0,0,.76-.66c0-.56-.12-.74-1-1.84.08-.06.15-.14.19-.13.74.27,3.46,1.58,4.78,1.25a.49.49,0,0,0,.28-.73,7.76,7.76,0,0,0-1.26-1.28c.12-.38.28,0,2.81.75a5.28,5.28,0,0,0,2.56.39.32.32,0,0,0,.18-.37c-.22-.44,0-.15-1.61-1.57-.13-.11-.31-.18-.33-.39.2-.11.37,0,.55.07,2.67.7,2.93.87,3.65.74a.5.5,0,0,0,.34-.62c-.19-.6-.5-.93-2.31-2.11.08-.07.13-.14.17-.14a8.66,8.66,0,0,0,2.38.08c.33-.07.75-.51.08-1.27a6,6,0,0,0-2.12-1.3,3.08,3.08,0,0,1-.3-.24,4.12,4.12,0,0,1,.48-.15A7.43,7.43,0,0,0,36.86,40c.64-.3.67-1.19-.32-1.93a5.81,5.81,0,0,0-1.71-.89,19.25,19.25,0,0,0-7.53-.92c.06.19.21.14.32.15.49.07,1,.1,1.47.19a1.53,1.53,0,0,1,.61.28.49.49,0,0,1,0,.78c-.42.31-.38.18-1,.43.09.38.47.17,2.27.44a8.16,8.16,0,0,1,1.2.32.52.52,0,0,1,.09.85,1.1,1.1,0,0,1-.4.21,16.56,16.56,0,0,1-3.49.35c0,.36-.15.05.82.64a2.16,2.16,0,0,1,.43.37.52.52,0,0,1-.34.86,13.67,13.67,0,0,1-2.5-.21Z"/><path class="cls-9" d="M39.14,63.77c.14-.21.34-.16.51-.2a4.75,4.75,0,0,0,2.44-.83.41.41,0,0,0-.07-.6,2,2,0,0,0-.51-.23,28.39,28.39,0,0,0-4.22-.5c.08-.11.12-.22.2-.26.88-.46.89-.33,1.24-.75a.52.52,0,0,0-.15-.7,2.57,2.57,0,0,0-.75-.22,16.9,16.9,0,0,0-3.59.38c-.07.27.13.37.22.52.49.79-.26,1-.79,1.28a4.76,4.76,0,0,1,.2.55.5.5,0,0,1-.27.56c-1.55.51-4.43,0-5.19-.05-.06,0-.12.05-.23.1a1.47,1.47,0,0,0,.36.28c1.09.42.85.44,6.56,1.81a11.77,11.77,0,0,0,4.29.3c.32,0,.56-.24.57-.46,0-.43-.33-.56-.58-.76-.09-.07-.16-.15-.24-.22Z"/><path class="cls-9" d="M18.65,58.17c.25.4.71.42,1.14,1.08a.61.61,0,0,1-.38.9c-.64.11-.73.07-3.57-.51l-.75-.19c-.17.12-.05.22,0,.27,1.49,1.06,2.65,1.64,7,2.81.19,0,.38.07.56.1a.66.66,0,0,0,.55-.05c.23-.16.16-.4.15-.62,0,0,0-.06.05-.1.21-.15.44-.06.65,0a3.16,3.16,0,0,0,2-.32.47.47,0,0,0,.09-.06.49.49,0,0,0,.15-.69,6.13,6.13,0,0,0-1.08-1.08c0-.28.18-.24.28-.32.35-.26.44-.56.22-.88-.87-1.26-2.21-2-4.13-3.14a7.17,7.17,0,0,0-2.1-.82s-.06,0-.1.05c0,.21.21.27.35.37a12.88,12.88,0,0,1,2.92,2.33A1.3,1.3,0,0,1,23,58a.71.71,0,0,1-.69.85,16.9,16.9,0,0,1-3.55-.74s-.06,0-.1.05Z"/><path class="cls-9" d="M22.45,66.09c.21-.13.34-.2.46-.29a.33.33,0,0,0,.09-.4,6.25,6.25,0,0,0-2.79-1.86.39.39,0,0,0-.39.16,1.65,1.65,0,0,0-.16.42A2.44,2.44,0,0,0,20,65.85c.89,1.42,1.19,1.66,3.75,3.91.12.11.6.39.69.25.35-.55-.34-.46-.64-1.91a2.92,2.92,0,0,0-.73-1.27l-.62-.74Z"/><path class="cls-9" d="M8.18,13.67c.05.42.08.73.43.86a.81.81,0,0,0,.83-.23A7.79,7.79,0,0,0,12,9.36a.72.72,0,0,0-.54-.85A1.82,1.82,0,0,0,10,9.42a10.35,10.35,0,0,0-1.64,3.35,7.78,7.78,0,0,0-.13.9Z"/><path class="cls-9" d="M52.89,55.74a1.64,1.64,0,0,1,.39,1.32.75.75,0,0,0,.29.06,9.88,9.88,0,0,0,4-1.75,10.44,10.44,0,0,0,.92-.83,2,2,0,0,0,.27-.37.55.55,0,0,0-.6-.86c-.86.15-.55,0-5.14,2.31,0,0-.06.05-.14.12Z"/><path class="cls-9" d="M56.79,52.48c.32.11.55-.06.8-.13a24.65,24.65,0,0,0,4.56-1.73c.37-.22.86-1.21-2.28-.87-2.26.24-2.41.2-3,.33,0,.07,0,.17,0,.19s.27.13.39.23c.88.68.09,1.36-.43,2Z"/><path class="cls-9" d="M3.74,12.26a1.5,1.5,0,0,0,.24.18c.05,0,.16,0,.2-.09.37-.55.24-.45.75-1.89.36-1,.7-2,1.09-3,.84-2.14,2.17-3,3.2-4.07,0,0,0-.15,0-.21A.22.22,0,0,0,9,3.11C8,3.2,5.87,6.09,5.27,7A10.13,10.13,0,0,0,3.73,12a1.19,1.19,0,0,0,0,.26Z"/><path class="cls-9" d="M50.06,59.68a1.65,1.65,0,0,1,.71.84c2.61,0,5.2-1.13,5.61-1.78a.36.36,0,0,0-.14-.48c-1.1-.44-4.8.8-5.92,1.18-.1,0-.16.14-.26.24Z"/><path class="cls-10" d="M9.42,44.7a.66.66,0,0,1,.06-.26c.55-.57.21-1.2,0-2.17a2.81,2.81,0,0,1-.19-1.1c.95-1.14.73-.73,1.88-4.7,0-.13-.06-.36-.18-.36s-.41.06-.44.25A5.89,5.89,0,0,1,10,37.84a6.7,6.7,0,0,1-1.09,1.59.47.47,0,0,1-.7.07c-.21-.13-.4,0-.37.2s.14,1,.21,1.69A3.62,3.62,0,0,1,8,42c0,.13-.21.22-.36.15A2.14,2.14,0,0,1,7.49,42c-.23-.11-.39,0-.38.19.07,1.43.78,1.73.73,3.31,0,.09-.17.2-.25.16-1.26-.76-.78-.64-1.31-.58a3.71,3.71,0,0,0,0,.57,11.79,11.79,0,0,0,2.07,5.48c.17.23.56.5.89.33s.28-.52.15-1.26c0-.18-.15-.35-.08-.55.27,0,.36.25.51.41,1.53,1.58,1.35,1.52,2.18,2a.74.74,0,0,0,.76,0c1.49-.78-.67-2.65-1-3.16-.22-.35-.32-.78-.52-1.14a34.06,34.06,0,0,0-1.81-3Z"/><path class="cls-10" d="M45.77,51.47c.16-.24.45-.26.68-.38a.91.91,0,0,0,.22-1.52c-.19-.18-.41-.34-.63-.52.11-.16.22-.3.31-.46a.65.65,0,0,0-.17-.82,3.77,3.77,0,0,0-2.81-.57c-.21.21,0,.42,0,.63a.58.58,0,0,1-.31.56,4,4,0,0,1-2.17.23,1,1,0,0,0,.15.28c1.51,1.3,1.11.84,1.64,1.56.08.11,0,.36-.13.38-2.75.39-2.53,0-2.7.36a.25.25,0,0,0,.18.25c5.41,2.31,5.77,2.58,7.38,2.34.58-.08.86-.57.66-.82-.47-.6-.26-.38-1.78-1.16-.18-.1-.43-.1-.53-.34Z"/><path class="cls-10" d="M28.93,18.43c.95-.76.73-1.57.91-2.62a2,2,0,0,1,.19-.65c.43-.71.08-1.3-.42-2.65.33-.75.6-1.16.31-1.89-.85-2.12-3.6-5.15-3.76-4.54a1.05,1.05,0,0,0,0,.43.8.8,0,0,0,.16.3,14.37,14.37,0,0,1,2.39,5.48.94.94,0,0,1,0,.44c-.05.18-.25.12-.38.17a.34.34,0,0,0-.24.34c.64,2.76.93,3.39.21,3.73-.43.2-.36.54-.51,1.67-.35,2.61-.91,1.95-1.1,3.43a1.39,1.39,0,0,0,0,.45A.63.63,0,0,0,27,23a.53.53,0,0,0,.51-.18,7.22,7.22,0,0,0,1.34-3.45c0-.26,0-.53.08-.89Z"/><path class="cls-10" d="M43.66,44a2.21,2.21,0,0,1-1.28.77c.39.3-.29-.05,2.67,1.19a5.41,5.41,0,0,0,2.33.42.47.47,0,0,0,.38-.67c-.91-1.7-3.61-3-5.36-3.88a.88.88,0,0,0-.33,0c-.06,0-.15.1-.11.14a1.88,1.88,0,0,0,.31.32A3.67,3.67,0,0,1,43.66,44Z"/><path class="cls-11" d="M4.12,17.18A21.81,21.81,0,0,0,2.5,23.27a3.1,3.1,0,0,0,0,.68.56.56,0,0,0,.75.46,1.58,1.58,0,0,0,.5-.26c2.19-2,3.32-4.34,5-7.4,0-.1.07-.22.11-.31-.28-.59-.66,0-1.46-1a5.13,5.13,0,0,1-.76-2.11.9.9,0,0,0-1.3-.48C4.38,13.43,2.41,15.72,4,17c0,0,.07.13.13.23Z"/><path class="cls-11" d="M6,12a1.15,1.15,0,0,0,.44-1.89A.7.7,0,0,0,5.78,10c-.81.32-.89,2.27.25,2Z"/><path class="cls-12" d="M5.74,11.21a.34.34,0,0,0,0-.67.34.34,0,0,0,0,.67Z"/><path class="cls-12" d="M6.5,11.43a.1.1,0,0,0,0-.2.1.1,0,0,0,0,.2Z"/><path class="cls-13" d="M6.37,16.13a1.7,1.7,0,0,1-.64,1.15.37.37,0,0,1-.31,0s-.08-.11-.16-.24c.13-.5.32-1.25.85-1.23a.32.32,0,0,1,.26.33Zm-2.78,7h0c.88.17,1-.15,1.54-.83a22.79,22.79,0,0,0,3-4.8c.25-.67,0-.85-.26-1.08a4.47,4.47,0,0,1-1.27-2c-.09-.28-.21-.63-.5-.67C5.57,15.2,4.85,16.55,4.23,18A13.34,13.34,0,0,0,3,22.36c0,.46.16.65.6.74Z"/><path class="cls-14" d="M3.59,23.1h0c.88.17,1-.15,1.54-.83a22.79,22.79,0,0,0,3-4.8c.25-.67,0-.85-.26-1.08a4.34,4.34,0,0,1-.47-.49,34.52,34.52,0,0,1-2,4.26A33.83,33.83,0,0,1,3.59,23.1Z"/></g></g></svg>